<?xml version="1.0" standalone="no"?><!DOCTYPE svg PUBLIC "-//W3C//DTD SVG 1.1//EN" "http://www.w3.org/Graphics/SVG/1.1/DTD/svg11.dtd" ><svg xmlns="http://www.w3.org/2000/svg"><metadata></metadata><defs><font id="SILInternational: Gentium Book Basic: 2008" horiz-adv-x="2115"><font-face font-family="Gentium Book Basic" font-weight="400" font-stretch="normal" units-per-em="2048" panose-1="2 0 5 3 6 0 0 2 0 4" ascent="1790" descent="-580" x-height="4" bbox="-1029 -728 2047 2182" underline-thickness="100" underline-position="-250" unicode-range="U+0020-fb02" /><missing-glyph horiz-adv-x="1400" d="M150 50 l1100 0 l0 1700 l-1100 0 l0 -1700 ZM100 1800 l1200 0 l0 -1800 l-1200 0 l0 1800 Z" /><glyph glyph-name="space" unicode=" " d="" /><glyph glyph-name="exclam" unicode="!" d="M419 126 q0 -36 -12 -66.5 q-12 -30.5 -32.5 -52.5 q-20.5 -22 -48.5 -34.5 q-28 -12.5 -60 -12.5 q-56 0 -85.5 30 q-29.5 30 -29.5 90 q0 36 12.5 66 q12.5 30 33.5 52.5 q21 22.5 49 35 q28 12.5 59 12.5 q51 0 82.5 -30 q31.5 -30 31.5 -90 ZM343 397 q-19 -14 -39 -22.5 q-20 -8.5 -45 -16.5 l-29 21 l-57 1009 q20 12 44.5 25.5 q24.5 13.5 49.5 26 q25 12.5 48.5 23 q23.5 10.5 41.5 17.5 l45 -27 l-59 -1056 Z" /><glyph glyph-name="quotedbl" unicode="&quot;" d="M322 834 q-8 -4 -21 -8 q-13 -4 -28 -7 q-15 -3 -30 -4.5 q-15 -1.5 -27 -1.5 l-63 603 q11 6 36 16 q25 10 52.5 20 q27.5 10 52 18 q24.5 8 35.5 10 l46 -23 l-53 -623 ZM695 834 q-8 -4 -21 -8 q-13 -4 -28 -7 q-15 -3 -30 -4.5 q-15 -1.5 -27 -1.5 l-63 603 q11 6 36 16 q25 10 52.5 20 q27.5 10 52.5 18 q25 8 36 10 l45 -23 l-53 -623 Z" /><glyph glyph-name="numbersign" unicode="#" d="M825 966 l152 0 l25 -25 q-2 -11 -6.5 -25 q-4.5 -14 -10 -28 q-5.5 -14 -10.5 -26.5 q-5 -12.5 -9 -20.5 l-177 0 l-70 -246 l152 0 l22 -27 q-2 -10 -6 -23 q-4 -13 -9 -27 q-5 -14 -9.5 -26.5 q-4.5 -12.5 -8.5 -21.5 l-177 0 l-85 -300 q-18 -14 -47 -24 q-29 -10 -55 -19 l-26 20 l92 323 l-184 0 l-86 -300 q-18 -14 -46 -24 q-28 -10 -54 -19 l-26 20 l92 323 l-154 0 l-22 25 q2 10 6 23 q4 13 9 26 l10 27 q5 14 10 24 l176 0 l71 246 l-151 0 l-25 24 q5 22 16.5 51.5 q11.5 29.5 19.5 49.5 l175 0 l82 285 q22 16 49 24 q27 8 49 17 l29 -22 l-88 -304 l183 0 l82 285 q22 16 49.5 24 q27.5 8 50.5 17 l27 -22 l-87 -304 ZM414 595 l183 0 l71 246 l-184 0 l-70 -246 Z" /><glyph glyph-name="dollar" unicode="$" d="M245 956 q0 -36 15 -63.5 q15 -27.5 41.5 -49.5 q26.5 -22 62 -40 q35.5 -18 76.5 -34 l0 339 q-53 -3 -90 -17 q-37 -14 -60 -35 q-23 -21 -34 -47 q-11 -26 -11 -53 ZM732 322 q0 44 -15 78 q-15 34 -41 61 q-26 27 -61 47.5 q-35 20.5 -75 37.5 l0 -424 q37 6 72 22 q35 16 61.5 41.5 q26.5 25.5 42.5 60 q16 34.5 16 76.5 ZM540 -138 q-18 -16 -32 -23 q-14 -7 -39 -13 l-29 24 l0 140 q-92 2 -173.5 28.5 q-81.5 26.5 -169.5 82.5 q-7 5 -10 36 q-3 31 -2.5 72 q0.5 41 4 83.5 q3.5 42.5 11.5 70.5 l53 -4 q48 -103 120.5 -162 q72.5 -59 166.5 -73 l0 461 q-63 23 -125.5 48.5 q-62.5 25.5 -111.5 61.5 q-49 36 -79.5 87.5 q-30.5 51.5 -30.5 126.5 q0 43 17 91.5 q17 48.5 57.5 91.5 q40.5 43 107 75.5 q66.5 32.5 165.5 42.5 l0 141 q14 8 21.5 13 q7.5 5 13.5 8 q6 3 13.5 5.5 q7.5 2.5 22.5 6.5 l29 -24 l0 -146 q48 -2 94.5 -9.5 q46.5 -7.5 86.5 -20.5 q40 -13 72 -29.5 q32 -16.5 51 -35.5 q6 -7 -1.5 -29.5 q-7.5 -22.5 -21.5 -49 q-14 -26.5 -31 -51 q-17 -24.5 -30 -36.5 l-49 8 q-76 107 -171 136 l0 -366 q64 -24 127 -52 q63 -28 113 -69 q50 -41 81 -97.5 q31 -56.5 31 -137.5 q0 -60 -21.5 -121.5 q-21.5 -61.5 -65 -114 q-43.5 -52.5 -109.5 -91 q-66 -38.5 -156 -51.5 l0 -135 Z" /><glyph glyph-name="percent" unicode="%" d="M1207 289 q0 72 -11.5 124.5 q-11.5 52.5 -30.5 87 q-19 34.5 -45 51.5 q-26 17 -54 17 q-23 0 -44 -14 q-21 -14 -36.5 -43.5 q-15.5 -29.5 -25 -74 q-9.5 -44.5 -9.5 -105.5 q0 -146 38 -214.5 q38 -68.5 101 -68.5 q51 0 84 59 q33 59 33 181 ZM1371 309 q0 -69 -24 -130.5 q-24 -61.5 -65.5 -108 q-41.5 -46.5 -97 -73.5 q-55.5 -27 -118.5 -27 q-63 0 -114.5 27 q-51.5 27 -88.5 73.5 q-37 46.5 -57.5 108 q-20.5 61.5 -20.5 130.5 q0 70 24 131.5 q24 61.5 65 107.5 q41 46 97 73 q56 27 119 27 q64 0 116 -26.5 q52 -26.5 89 -72.5 q37 -46 56.5 -108 q19.5 -62 19.5 -132 ZM363 14 q-9 -7 -27.5 -13.5 q-18.5 -6.5 -39 -13 q-20.5 -6.5 -40 -11.5 q-19.5 -5 -32.5 -9 l-24 34 l875 1191 q13 7 30.5 13.5 q17.5 6.5 36.5 12.5 q19 6 37.5 11 q18.5 5 32.5 8 l28 -32 l-877 -1191 ZM491 877 q0 72 -11.5 124.5 q-11.5 52.5 -31 87 q-19.5 34.5 -45 51 q-25.5 16.5 -53.5 16.5 q-23 0 -44 -14 q-21 -14 -37 -43 q-16 -29 -25.5 -73.5 q-9.5 -44.5 -9.5 -105.5 q0 -146 38 -214.5 q38 -68.5 101 -68.5 q51 0 84.5 59 q33.5 59 33.5 181 ZM656 897 q0 -69 -24 -130.5 q-24 -61.5 -65.5 -108 q-41.5 -46.5 -97.5 -73.5 q-56 -27 -119 -27 q-63 0 -115 27 q-52 27 -88.5 73.5 q-36.5 46.5 -57 108 q-20.5 61.5 -20.5 130.5 q0 69 23.5 130.5 q23.5 61.5 65 107.5 q41.5 46 97 73 q55.5 27 118.5 27 q64 0 116.5 -26.5 q52.5 -26.5 89.5 -72.5 q37 -46 57 -107.5 q20 -61.5 20 -131.5 Z" /><glyph glyph-name="ampersand" unicode="&amp;" d="M462 1130 q0 -57 16 -117.5 q16 -60.5 45 -124.5 q61 35 100 71.5 q39 36.5 61.5 72.5 q22.5 36 31 71 q8.5 35 8.5 68 q0 35 -9 65 q-9 30 -25.5 52.5 q-16.5 22.5 -41 35 q-24.5 12.5 -55.5 12.5 q-33 0 -57.5 -17.5 q-24.5 -17.5 -41 -46 q-16.5 -28.5 -24.5 -66 q-8 -37.5 -8 -76.5 ZM543 94 q75 0 140.5 23.5 q65.5 23.5 119.5 62.5 q-50 50 -101.5 108 q-51.5 58 -101 122 q-49.5 64 -95 132.5 q-45.5 68.5 -83.5 138.5 q-43 -40 -72 -78 q-29 -38 -47 -75.5 q-18 -37.5 -25.5 -76 q-7.5 -38.5 -7.5 -78.5 q0 -70 23.5 -122.5 q23.5 -52.5 61.5 -87 q38 -34.5 87.5 -52 q49.5 -17.5 100.5 -17.5 ZM1369 748 q-25 -31 -52 -57.5 q-27 -26.5 -52 -43.5 q-18 9 -40.5 16.5 q-22.5 7.5 -45 13 q-22.5 5.5 -43.5 9 q-21 3.5 -38 4.5 q10 -17 16.5 -32 q6.5 -15 10.5 -32 q4 -17 5 -37 q1 -20 1 -46 q0 -69 -31 -147 q-31 -78 -87 -152 q29 -28 57 -52.5 q28 -24.5 54 -44.5 q43 -36 90.5 -46.5 q47.5 -10.5 103.5 2.5 l11 -53 q-43 -19 -83.5 -34 q-40.5 -15 -74 -25 q-33.5 -10 -57.5 -15.5 q-24 -5.5 -35 -5.5 q-23 0 -76.5 36.5 q-53.5 36.5 -123.5 100.5 q-79 -62 -174.5 -99.5 q-95.5 -37.5 -201.5 -37.5 q-97 0 -176 24.5 q-79 24.5 -135 72.5 q-56 48 -86.5 119.5 q-30.5 71.5 -30.5 165.5 q0 110 74 222 q74 112 219 217 q-31 73 -48.5 143.5 q-17.5 70.5 -17.5 138.5 q0 81 28.5 150 q28.5 69 76 119.5 q47.5 50.5 110.5 79 q63 28.5 132 28.5 q67 0 114.5 -20.5 q47.5 -20.5 76.5 -54.5 q29 -34 42.5 -78.5 q13.5 -44.5 13.5 -92.5 q0 -52 -20 -103 q-20 -51 -56 -98.5 q-36 -47.5 -85.5 -90.5 q-49.5 -43 -108.5 -80 l-57 -37 q35 -63 77.5 -125.5 q42.5 -62.5 90 -122.5 q47.5 -60 97 -117 q49.5 -57 99.5 -108 q28 45 42.5 91.5 q14.5 46.5 14.5 88.5 q0 42 -13.5 78 q-13.5 36 -36 62 q-22.5 26 -51 41 q-28.5 15 -57.5 15 l-24 30 q5 6 14.5 15 q9.5 9 20.5 17.5 q11 8.5 22.5 15.5 q11.5 7 21.5 11 l456 0 l26 -39 Z" /><glyph glyph-name="quotesingle" unicode="&#39;" d="M322 834 q-8 -4 -21 -8 q-13 -4 -28 -7 q-15 -3 -30 -4.5 q-15 -1.5 -27 -1.5 l-63 603 q11 6 36 16 q25 10 52.5 20 q27.5 10 52 18 q24.5 8 35.5 10 l46 -23 l-53 -623 Z" /><glyph glyph-name="parenleft" unicode="(" d="M586 -315 q-117 57 -205 151 q-88 94 -147 216 q-59 122 -88.5 267 q-29.5 145 -29.5 304 q0 164 33.5 315.5 q33.5 151.5 95 279 q61.5 127.5 148 226 q86.5 98.5 193.5 156.5 l39 -55 q-63 -56 -119.5 -142.5 q-56.5 -86.5 -98.5 -200 q-42 -113.5 -66.5 -252.5 q-24.5 -139 -24.5 -299 q0 -146 20.5 -282 q20.5 -136 59.5 -254.5 q39 -118.5 96.5 -214 q57.5 -95.5 132.5 -160.5 l-39 -55 Z" /><glyph glyph-name="parenright" unicode=")" d="M545 663 q0 -164 -33.5 -315.5 q-33.5 -151.5 -95 -279.5 q-61.5 -128 -148.5 -226.5 q-87 -98.5 -193 -156.5 l-39 55 q63 56 119 143 q56 87 98.5 200.5 q42.5 113.5 67 252 q24.5 138.5 24.5 299.5 q0 145 -20 281.5 q-20 136.5 -59.5 254.5 q-39.5 118 -97 214 q-57.5 96 -132.5 160 l39 55 q117 -56 205 -150 q88 -94 147 -216 q59 -122 88.5 -267 q29.5 -145 29.5 -304 Z" /><glyph glyph-name="asterisk" unicode="*" d="M493 1199 l246 192 q10 -7 25.5 -17 q15.5 -10 31 -21.5 q15.5 -11.5 29.5 -22.5 q14 -11 22 -19 l-2 -46 l-314 -130 l290 -118 q-1 -12 -2 -30 q-1 -18 -3.5 -37.5 q-2.5 -19.5 -5 -37 q-2.5 -17.5 -6.5 -28.5 l-42 -22 l-267 207 l42 -308 q-11 -6 -27 -14.5 q-16 -8.5 -33.5 -16 q-17.5 -7.5 -34 -13.5 q-16.5 -6 -27.5 -8 l-41 23 l46 337 l-246 -192 q-11 7 -26.5 17.5 q-15.5 10.5 -31 21.5 q-15.5 11 -29 22 q-13.5 11 -20.5 19 l1 47 l315 129 l-291 118 q1 12 2 30.5 q1 18.5 3 37.5 q2 19 5 36.5 q3 17.5 6 27.5 l41 22 l269 -207 l-43 310 q11 6 27.5 14 q16.5 8 34.5 15.5 q18 7.5 35 14 q17 6.5 28 9.5 l38 -26 l-45 -336 Z" /><glyph glyph-name="plus" unicode="+" d="M487 232 q-20 -10 -48 -19 q-28 -9 -50 -14 l-27 24 l0 279 l-276 0 l-28 26 q5 21 16 48 q11 27 20 47 l268 0 l0 272 q19 6 47.5 16 q28.5 10 50.5 15 l27 -25 l0 -278 l275 0 l27 -27 q-3 -10 -7.5 -23 q-4.5 -13 -9.5 -26 q-5 -13 -10 -25 q-5 -12 -9 -20 l-266 0 l0 -270 Z" /><glyph glyph-name="comma" unicode="," d="M420 70 q0 -44 -18 -97.5 q-18 -53.5 -50.5 -107.5 q-32.5 -54 -77.5 -105 q-45 -51 -100 -90 l-53 40 q28 32 48.5 63.5 q20.5 31.5 34 64.5 q13.5 33 20.5 69.5 q7 36.5 7 79.5 q0 45 -31.5 74.5 q-31.5 29.5 -95.5 25.5 l-16 57 q9 12 40.5 28.5 q31.5 16.5 70.5 31.5 q39 15 77 25.5 q38 10.5 58 9.5 q48 -23 67 -64 q19 -41 19 -105 Z" /><glyph glyph-name="period" unicode="." d="M399 126 q0 -36 -12 -66.5 q-12 -30.5 -32.5 -52.5 q-20.5 -22 -48.5 -34.5 q-28 -12.5 -60 -12.5 q-55 0 -85 30 q-30 30 -30 90 q0 36 12.5 66 q12.5 30 33.5 52.5 q21 22.5 49 35 q28 12.5 59 12.5 q52 0 83 -30 q31 -30 31 -90 Z" /><glyph glyph-name="slash" unicode="/" d="M221 -282 q-10 -7 -28 -14.5 q-18 -7.5 -38 -15 q-20 -7.5 -39.5 -13.5 q-19.5 -6 -31.5 -10 l-40 27 l701 1857 q13 9 30.5 16.5 q17.5 7.5 36 14 q18.5 6.5 36.5 11.5 q18 5 32 9 l39 -24 l-698 -1858 Z" /><glyph glyph-name="zero" unicode="0" d="M719 565 q0 137 -19.5 240 q-19.5 103 -53 172 q-33.5 69 -77.5 103.5 q-44 34.5 -93 34.5 q-50 0 -88.5 -26.5 q-38.5 -26.5 -65 -83.5 q-26.5 -57 -40.5 -146 q-14 -89 -14 -214 q0 -137 17.5 -241 q17.5 -104 49.5 -174 q32 -70 76.5 -105 q44.5 -35 98.5 -35 q50 0 89 26.5 q39 26.5 65.5 84 q26.5 57.5 40.5 147.5 q14 90 14 217 ZM915 602 q0 -129 -32 -244 q-32 -115 -89.5 -201 q-57.5 -86 -138.5 -136.5 q-81 -50.5 -179 -50.5 q-98 0 -173.5 50.5 q-75.5 50.5 -127 136.5 q-51.5 86 -78 201 q-26.5 115 -26.5 244 q0 129 31.5 244 q31.5 115 89 201.5 q57.5 86.5 138.5 137 q81 50.5 180 50.5 q99 0 174.5 -50 q75.5 -50 127 -136 q51.5 -86 77.5 -201.5 q26 -115.5 26 -245.5 Z" /><glyph glyph-name="one" unicode="1" d="M165 0 l0 63 q78 9 130 20.5 q52 11.5 83 23.5 q31 12 44 23.5 q13 11.5 13 22.5 l0 777 q0 40 -3 62 q-3 22 -15 36 q-6 6 -22.5 10 q-16.5 4 -47 3 q-30.5 -1 -77 -7 q-46.5 -6 -112.5 -20 l-24 61 q42 11 103.5 32 q61.5 21 125.5 46 q64 25 121.5 49.5 q57.5 24.5 91.5 42.5 l39 -37 l0 -1055 q0 -10 11 -21.5 q11 -11.5 39 -23.5 q28 -12 76.5 -24 q48.5 -12 123.5 -21 l0 -63 l-700 0 Z" /><glyph glyph-name="two" unicode="2" d="M851 0 l-729 0 l-29 74 q118 137 206.5 243.5 q88.5 106.5 152 188.5 q63.5 82 105 143.5 q41.5 61.5 66 110 q24.5 48.5 34 88 q9.5 39.5 9.5 76.5 q0 45 -10.5 84 q-10.5 39 -33 68 q-22.5 29 -57.5 45.5 q-35 16.5 -85 16.5 q-41 0 -74 -19 q-33 -19 -55.5 -49.5 q-22.5 -30.5 -33.5 -67.5 q-11 -37 -9 -73 q-34 -19 -73 -34 q-39 -15 -85 -20 l-30 43 q0 52 36 108 q36 56 95.5 102.5 q59.5 46.5 136.5 76.5 q77 30 160 30 q66 0 122 -16.5 q56 -16.5 96.5 -50.5 q40.5 -34 63.5 -85 q23 -51 23 -121 q0 -45 -12.5 -90 q-12.5 -45 -40.5 -96.5 q-28 -51.5 -71.5 -112.5 q-43.5 -61 -106 -137.5 q-62.5 -76.5 -144.5 -172 q-82 -95.5 -186 -214.5 l412 0 q17 0 30.5 8 q13.5 8 24 21 q10.5 13 18 29.5 q7.5 16.5 12.5 33.5 q12 40 17 93 l60 -14 l-15 -310 Z" /><glyph glyph-name="three" unicode="3" d="M855 381 q0 -84 -29 -159 q-29 -75 -84 -131 q-55 -56 -135 -88.5 q-80 -32.5 -183 -32.5 q-39 0 -82.5 8 q-43.5 8 -88.5 26 q-45 18 -91 47.5 q-46 29.5 -91 72.5 l36 77 q45 -34 83.5 -56.5 q38.5 -22.5 74 -36 q35.5 -13.5 69.5 -19.5 q34 -6 72 -6 q56 0 103.5 18 q47.5 18 81.5 52.5 q34 34.5 53 84 q19 49.5 19 113.5 q0 73 -23 123.5 q-23 50.5 -58 82 q-35 31.5 -78.5 45.5 q-43.5 14 -83.5 14 l-22 0 q-7 0 -13 -1 q-6 -1 -14.5 -2 q-8.5 -1 -23.5 -4 l-15 70 q90 24 144 56.5 q54 32.5 83 67.5 q29 35 38 70.5 q9 35.5 9 66.5 q0 34 -9.5 69.5 q-9.5 35.5 -30 64 q-20.5 28.5 -52 46.5 q-31.5 18 -75.5 18 q-36 0 -64.5 -14 q-28.5 -14 -47.5 -37 q-19 -23 -26.5 -54 q-7.5 -31 -0.5 -65 q-36 -20 -77.5 -32.5 q-41.5 -12.5 -88.5 -16.5 l-30 41 q0 42 30.5 90 q30.5 48 84 89.5 q53.5 41.5 125 68.5 q71.5 27 152.5 27 q80 0 137.5 -24 q57.5 -24 94 -63.5 q36.5 -39.5 53.5 -89 q17 -49.5 17 -100.5 q0 -38 -15 -75.5 q-15 -37.5 -43 -72 q-28 -34.5 -67 -63.5 q-39 -29 -88 -49 q58 -7 107.5 -34.5 q49.5 -27.5 85.5 -70 q36 -42.5 56.5 -97 q20.5 -54.5 20.5 -115.5 Z" /><glyph glyph-name="four" unicode="4" d="M580 1020 l-354 -555 l354 0 l0 555 ZM902 435 q-21 -32 -42.5 -52.5 q-21.5 -20.5 -44.5 -37.5 l-65 0 l0 -231 q0 -8 6 -14.5 q6 -6.5 22 -14 q16 -7.5 43 -15.5 q27 -8 68 -17 l0 -53 l-519 0 l0 53 q65 11 106 20.5 q41 9.5 64 18 q23 8.5 31.5 16.5 q8.5 8 8.5 17 l0 220 l-489 0 l-36 36 l491 791 q44 17 87 37 q43 20 78 36 l39 -37 l0 -743 l126 0 l26 -30 Z" /><glyph glyph-name="five" unicode="5" d="M864 410 q0 -87 -26.5 -166.5 q-26.5 -79.5 -79 -140.5 q-52.5 -61 -129.5 -97 q-77 -36 -179 -36 q-93 0 -189 36 q-96 36 -183 117 l40 74 q53 -37 97.5 -60 q44.5 -23 82 -35.5 q37.5 -12.5 69.5 -17 q32 -4.5 61 -4.5 q60 0 106.5 23.5 q46.5 23.5 78 63 q31.5 39.5 47.5 91.5 q16 52 16 109 q0 68 -17 123 q-17 55 -50 93.5 q-33 38.5 -82 59 q-49 20.5 -114 20.5 q-55 0 -115.5 -21.5 q-60.5 -21.5 -113.5 -61.5 l-47 33 q6 36 14 84.5 q8 48.5 16.5 102.5 q8.5 54 17 110.5 q8.5 56.5 15.5 110.5 q7 54 12 101.5 q5 47.5 7 82.5 l466 0 q29 0 51 2.5 q22 2.5 38 6.5 q18 4 32 9 l32 -31 q-11 -16 -26.5 -36 q-15.5 -20 -32.5 -38.5 q-17 -18.5 -33 -34.5 q-16 -16 -28 -25 l-402 0 q-2 -29 -6.5 -72 q-4.5 -43 -11 -87 q-6.5 -44 -13 -83.5 q-6.5 -39.5 -10.5 -61.5 q42 14 96 22.5 q54 8.5 110 8.5 q94 0 165.5 -31 q71.5 -31 120 -83 q48.5 -52 73 -120 q24.5 -68 24.5 -141 Z" /><glyph glyph-name="six" unicode="6" d="M515 655 q-48 0 -105.5 -29 q-57.5 -29 -111.5 -90 q0 -118 18.5 -203.5 q18.5 -85.5 52.5 -141 q34 -55.5 81.5 -82 q47.5 -26.5 104.5 -26.5 q50 0 83.5 24 q33.5 24 53.5 62.5 q20 38.5 28.5 85.5 q8.5 47 8.5 93 q0 94 -20 153.5 q-20 59.5 -51.5 93.5 q-31.5 34 -69.5 47 q-38 13 -73 13 ZM911 412 q0 -47 -11 -98 q-11 -51 -33 -100 q-22 -49 -55 -93 q-33 -44 -76 -77.5 q-43 -33.5 -97 -53.5 q-54 -20 -118 -20 q-86 0 -162 36.5 q-76 36.5 -132.5 102.5 q-56.5 66 -89 158.5 q-32.5 92.5 -32.5 205.5 q0 141 43 270.5 q43 129.5 130.5 233.5 q87.5 104 219.5 175 q132 71 310 97 l22 -69 q-119 -27 -209.5 -79 q-90.5 -52 -154.5 -120.5 q-64 -68.5 -103 -150.5 q-39 -82 -54 -169 q34 31 69 52.5 q35 21.5 68 35 q33 13.5 63.5 20 q30.5 6.5 54.5 6.5 q82 0 146.5 -26 q64.5 -26 109 -73.5 q44.5 -47.5 68 -114.5 q23.5 -67 23.5 -149 Z" /><glyph glyph-name="seven" unicode="7" d="M910 1167 q-46 -108 -92 -217.5 q-46 -109.5 -90 -216.5 q-44 -107 -84 -207.5 q-40 -100.5 -74 -189 q-34 -88.5 -61 -162.5 q-27 -74 -44 -127 q-35 -25 -83.5 -44.5 q-48.5 -19.5 -98.5 -32.5 l-44 36 q87 153 155.5 288.5 q68.5 135.5 127 263 q58.5 127.5 111.5 250 q53 122.5 108 250.5 l-452 0 q-15 0 -29.5 -1.5 q-14.5 -1.5 -30.5 -15 q-16 -13.5 -34.5 -44.5 q-18.5 -31 -39.5 -89 l-53 20 q3 23 8.5 61 q5.5 38 11.5 78.5 q6 40.5 12.5 78 q6.5 37.5 12.5 59.5 l730 0 l33 -38 Z" /><glyph glyph-name="eight" unicode="8" d="M303 950 q0 -42 20 -73.5 q20 -31.5 54 -56 q34 -24.5 78.5 -45.5 q44.5 -21 92.5 -42 q63 51 90 102.5 q27 51.5 27 102.5 q0 52 -15 89 q-15 37 -41.5 61 q-26.5 24 -63 35 q-36.5 11 -79.5 11 q-41 0 -71.5 -16 q-30.5 -16 -51 -42 q-20.5 -26 -30.5 -59 q-10 -33 -10 -67 ZM705 309 q0 64 -22 109.5 q-22 45.5 -58.5 78.5 q-36.5 33 -83.5 57.5 q-47 24.5 -97 46.5 q-42 -33 -72.5 -65.5 q-30.5 -32.5 -50.5 -67 q-20 -34.5 -29.5 -72 q-9.5 -37.5 -9.5 -81.5 q0 -52 17 -95.5 q17 -43.5 47 -75 q30 -31.5 72 -49 q42 -17.5 92 -17.5 q51 0 87.5 20 q36.5 20 60.5 52 q24 32 35.5 73.5 q11.5 41.5 11.5 85.5 ZM897 352 q0 -78 -34 -147 q-34 -69 -92.5 -121.5 q-58.5 -52.5 -137 -83 q-78.5 -30.5 -167.5 -30.5 q-91 0 -161.5 26 q-70.5 26 -118.5 70 q-48 44 -72.5 100.5 q-24.5 56.5 -24.5 118.5 q0 54 19.5 103.5 q19.5 49.5 54.5 94.5 q35 45 84.5 84.5 q49.5 39.5 109.5 72.5 q-44 21 -83 45 q-39 24 -69 56 q-30 32 -47.5 74.5 q-17.5 42.5 -17.5 99.5 q0 69 29 128 q29 59 79 101.5 q50 42.5 118 66.5 q68 24 146 24 q82 0 144.5 -20 q62.5 -20 105 -55 q42.5 -35 64 -84 q21.5 -49 21.5 -107 q0 -41 -16 -78 q-16 -37 -43.5 -70.5 q-27.5 -33.5 -65.5 -65.5 q-38 -32 -83 -62 q50 -24 96.5 -54 q46.5 -30 82.5 -70.5 q36 -40.5 57.5 -93.5 q21.5 -53 21.5 -123 Z" /><glyph glyph-name="nine" unicode="9" d="M491 560 q65 0 120 35.5 q55 35.5 97 90.5 q-2 129 -23.5 213.5 q-21.5 84.5 -54.5 134 q-33 49.5 -72.5 69.5 q-39.5 20 -77.5 20 q-48 0 -85.5 -19.5 q-37.5 -19.5 -63.5 -55 q-26 -35.5 -39.5 -84.5 q-13.5 -49 -13.5 -108 q0 -90 21 -147.5 q21 -57.5 52.5 -90.5 q31.5 -33 69 -45.5 q37.5 -12.5 70.5 -12.5 ZM900 731 q0 -152 -43 -282.5 q-43 -130.5 -130.5 -232 q-87.5 -101.5 -220 -168.5 q-132.5 -67 -311.5 -91 l-20 69 q135 34 231 86 q96 52 158.5 120.5 q62.5 68.5 95.5 151.5 q33 83 43 178 q-54 -57 -123 -90.5 q-69 -33.5 -139 -33.5 q-83 0 -147.5 28 q-64.5 28 -108.5 76 q-44 48 -67 113 q-23 65 -23 140 q0 76 31 154 q31 78 87 141.5 q56 63.5 133.5 104 q77.5 40.5 169.5 40.5 q77 0 147 -29 q70 -29 122.5 -90.5 q52.5 -61.5 83.5 -156.5 q31 -95 31 -228 Z" /><glyph glyph-name="colon" unicode=":" d="M399 840 q0 -36 -12 -66.5 q-12 -30.5 -32.5 -52.5 q-20.5 -22 -48.5 -34.5 q-28 -12.5 -60 -12.5 q-55 0 -85 30 q-30 30 -30 90 q0 36 12.5 66 q12.5 30 33.5 52.5 q21 22.5 49 35 q28 12.5 59 12.5 q52 0 83 -30 q31 -30 31 -90 ZM399 126 q0 -36 -12 -66.5 q-12 -30.5 -32.5 -52.5 q-20.5 -22 -48.5 -34.5 q-28 -12.5 -60 -12.5 q-55 0 -85 30 q-30 30 -30 90 q0 36 12.5 66 q12.5 30 33.5 52.5 q21 22.5 49 35 q28 12.5 59 12.5 q52 0 83 -30 q31 -30 31 -90 Z" /><glyph glyph-name="less" unicode="&lt;" d="M851 326 q-22 -20 -41 -38 q-19 -18 -50 -37 l-674 249 l-28 29 l3 13 l5 16 q7 25 14 47 q2 8 5 14 q3 6 5 12 l2 4 l732 271 l27 -27 q-3 -11 -7 -25.5 q-4 -14.5 -8.5 -30.5 q-4.5 -16 -8.5 -30.5 q-4 -14.5 -7 -23.5 l-547 -201 l559 -204 l19 -38 Z" /><glyph glyph-name="equal" unicode="=" d="M851 444 q-5 -21 -16.5 -48.5 q-11.5 -27.5 -17.5 -45.5 l-731 0 l-28 29 q5 20 16 46 q11 26 20 46 l730 0 l27 -27 ZM851 744 q-3 -10 -7.5 -23 q-4.5 -13 -9.5 -25.5 q-5 -12.5 -9.5 -24.5 q-4.5 -12 -7.5 -21 l-731 0 l-28 27 q5 21 16 48 q11 27 20 46 l730 0 l27 -27 Z" /><glyph glyph-name="greater" unicode="&gt;" d="M851 628 q-3 -11 -6.5 -24.5 q-3.5 -13.5 -8 -28.5 q-4.5 -15 -9.5 -29 q-5 -14 -9 -26 l-732 -269 l-28 28 q3 10 7.5 24.5 q4.5 14.5 9 30 q4.5 15.5 9 30 q4.5 14.5 7.5 23.5 l543 200 l-556 205 l-20 40 q23 19 47 38.5 q24 19.5 45 35.5 l675 -248 l26 -30 Z" /><glyph glyph-name="question" unicode="?" d="M826 1165 q0 -75 -24 -135.5 q-24 -60.5 -61 -113 q-37 -52.5 -80.5 -100 q-43.5 -47.5 -81.5 -97.5 q-38 -50 -65 -104.5 q-27 -54.5 -32 -121.5 l-6 -96 q-19 -14 -37.5 -23.5 q-18.5 -9.5 -46.5 -17.5 l-27 23 l-8 114 q-3 57 16 113 q19 56 49.5 109.5 q30.5 53.5 66.5 106 q36 52.5 67.5 103 q31.5 50.5 52.5 99 q21 48.5 21 96.5 q0 124 -51 190.5 q-51 66.5 -145 66.5 q-32 0 -61.5 -15 q-29.5 -15 -52 -41.5 q-22.5 -26.5 -35.5 -61 q-13 -34.5 -13 -73.5 q0 -14 3.5 -30 q3.5 -16 8.5 -30 q-16 -8 -37.5 -15.5 q-21.5 -7.5 -45 -13.5 q-23.5 -6 -48 -10.5 q-24.5 -4.5 -46.5 -6.5 l-30 33 q-2 8 -2 19 l0 19 q0 70 35.5 130.5 q35.5 60.5 95.5 104.5 q60 44 139 69 q79 25 165 25 q76 0 135 -23 q59 -23 99.5 -64.5 q40.5 -41.5 61 -99.5 q20.5 -58 20.5 -128 ZM562 126 q0 -36 -12 -66.5 q-12 -30.5 -32.5 -52.5 q-20.5 -22 -48.5 -34.5 q-28 -12.5 -60 -12.5 q-55 0 -85 30 q-30 30 -30 90 q0 36 12.5 66 q12.5 30 33.5 52.5 q21 22.5 49 35 q28 12.5 59 12.5 q52 0 83 -30 q31 -30 31 -90 Z" /><glyph glyph-name="at" unicode="@" d="M1024 731 q-13 26 -26.5 46.5 q-13.5 20.5 -31 35 q-17.5 14.5 -39 22.5 q-21.5 8 -49.5 8 q-103 0 -164 -91.5 q-61 -91.5 -61 -278.5 q0 -85 18 -151 q18 -66 46.5 -111 q28.5 -45 63 -68 q34.5 -23 67.5 -23 q19 0 36.5 6.5 q17.5 6.5 37 22 q19.5 15.5 44 42.5 q24.5 27 58.5 69 l0 471 ZM1626 557 q0 -86 -20 -163 q-20 -77 -53.5 -142 q-33.5 -65 -78.5 -117.5 q-45 -52.5 -95 -89 q-50 -36.5 -102 -56 q-52 -19.5 -100 -19.5 q-26 0 -49.5 9.5 q-23.5 9.5 -42.5 31 q-19 21.5 -33 56.5 q-14 35 -22 85 q-41 -54 -72 -89 q-31 -35 -60.5 -56 q-29.5 -21 -60 -29 q-30.5 -8 -70.5 -8 q-51 0 -103.5 31 q-52.5 31 -94.5 91 q-42 60 -69 148 q-27 88 -27 202 q0 59 13.5 120.5 q13.5 61.5 39.5 119 q26 57.5 63.5 108.5 q37.5 51 85 88.5 q47.5 37.5 105.5 59.5 q58 22 124 22 q23 0 42.5 -3.5 q19.5 -3.5 38.5 -13.5 q19 -10 39.5 -28 q20.5 -18 46.5 -47 q36 17 67.5 39 q31.5 22 64.5 53 l31 -30 q-9 -30 -15 -65 q-6 -30 -10.5 -68.5 q-4.5 -38.5 -4.5 -80.5 l0 -431 q0 -80 24.5 -119 q24.5 -39 71.5 -39 q25 0 56.5 28.5 q31.5 28.5 59 79.5 q27.5 51 46.5 122 q19 71 19 155 q0 169 -42.5 299 q-42.5 130 -119 217.5 q-76.5 87.5 -183 132.5 q-106.5 45 -233.5 45 q-102 0 -190 -25.5 q-88 -25.5 -160.5 -71 q-72.5 -45.5 -129 -109 q-56.5 -63.5 -95 -139.5 q-38.5 -76 -58.5 -161.5 q-20 -85.5 -20 -175.5 q0 -123 25 -227.5 q25 -104.5 70 -190.5 q45 -86 107.5 -152.5 q62.5 -66.5 138 -111.5 q75.5 -45 161 -68.5 q85.5 -23.5 176.5 -23.5 q88 0 170 17.5 q82 17.5 151 43.5 q69 26 121.5 56 q52.5 30 82.5 56 l34 -66 q-36 -39 -93.5 -82 q-57.5 -43 -134 -79 q-76.5 -36 -172.5 -60 q-96 -24 -208 -24 q-177 0 -324.5 59.5 q-147.5 59.5 -254 170 q-106.5 110.5 -166 268.5 q-59.5 158 -59.5 355 q0 116 31 226 q31 110 87.5 207.5 q56.5 97.5 135.5 179 q79 81.5 175.5 140.5 q96.5 59 207 92 q110.5 33 230.5 33 q153 0 279 -50 q126 -50 216 -148.5 q90 -98.5 139.5 -245.5 q49.5 -147 49.5 -342 Z" /><glyph glyph-name="A" unicode="a" d="M754 540 l-172 498 l-164 -498 l336 0 ZM385 440 l-106 -319 q-10 -31 26 -45 q36 -14 118 -23 l0 -53 l-423 0 l0 53 q68 12 107 25 q39 13 49 43 l364 1106 q32 30 74.5 53 q42.5 23 77.5 37 l420 -1196 q5 -14 13.5 -25 q8.5 -11 23.5 -19 q15 -8 37.5 -14 q22.5 -6 54.5 -10 l0 -53 l-447 0 l0 53 q78 5 107 20 q29 15 18 48 l-110 319 l-404 0 Z" /><glyph glyph-name="B" unicode="b" d="M431 1199 q-12 0 -24.5 -0.5 q-12.5 -0.5 -26.5 -0.5 l0 -468 l29 0 q109 0 177 21.5 q68 21.5 105.5 56 q37.5 34.5 50.5 77.5 q13 43 13 86 q0 50 -16 92 q-16 42 -53.5 72 q-37.5 30 -99.5 47 q-62 17 -155 17 ZM535 646 q-48 0 -84.5 -4.5 q-36.5 -4.5 -70.5 -9.5 l0 -520 q0 -7 8 -14 q16 -6 36 -10 q20 -4 41.5 -6 q21.5 -2 43 -3 q21.5 -1 41.5 -1 q72 0 129 18 q57 18 96.5 50.5 q39.5 32.5 60.5 78.5 q21 46 21 102 q0 55 -17.5 112 q-17.5 57 -56.5 103 q-39 46 -100 75 q-61 29 -148 29 ZM1054 356 q0 -85 -34 -153.5 q-34 -68.5 -96.5 -116.5 q-62.5 -48 -150.5 -74 q-88 -26 -196 -26 q-22 0 -53.5 0.5 q-31.5 0.5 -67.5 1.5 q-36 1 -74.5 2 q-38.5 1 -75.5 3 q-87 3 -183 7 l-75 0 l0 53 q68 14 105 30.5 q37 16.5 37 30.5 l0 1068 q-38 -5 -74 -10 q-36 -5 -68 -11 l-11 69 q41 11 95.5 21.5 q54.5 10.5 115 19 q60.5 8.5 123 14 q62.5 5.5 118.5 5.5 q105 0 189.5 -18.5 q84.5 -18.5 143 -53.5 q58.5 -35 90 -85 q31.5 -50 31.5 -113 q0 -108 -53.5 -185 q-53.5 -77 -149.5 -112 q67 -12 124.5 -45 q57.5 -33 99.5 -81.5 q42 -48.5 66 -110 q24 -61.5 24 -130.5 Z" /><glyph glyph-name="C" unicode="c" d="M1036 211 q-64 -67 -123.5 -113 q-59.5 -46 -116.5 -74.5 q-57 -28.5 -111.5 -41 q-54.5 -12.5 -108.5 -12.5 q-95 0 -187 42 q-92 42 -164 121 q-72 79 -116 193.5 q-44 114.5 -44 259.5 q0 160 48.5 290 q48.5 130 132.5 222 q84 92 196 142 q112 50 239 50 q54 0 103.5 -8 q49.5 -8 92.5 -21.5 q43 -13.5 78.5 -31.5 q35.5 -18 61.5 -39 q6 -5 -4 -25 q-10 -20 -26.5 -44.5 q-16.5 -24.5 -34.5 -48 q-18 -23.5 -30 -35.5 l-45 9 q-51 60 -119.5 93.5 q-68.5 33.5 -155.5 33.5 q-34 0 -73.5 -12 q-39.5 -12 -78 -38.5 q-38.5 -26.5 -74.5 -69 q-36 -42.5 -63 -103.5 q-27 -61 -43.5 -142 q-16.5 -81 -16.5 -185 q0 -131 37 -228.5 q37 -97.5 95 -162 q58 -64.5 130 -96 q72 -31.5 141 -31.5 q27 0 63 8 q36 8 79 26.5 q43 18.5 92.5 49 q49.5 30.5 103.5 75.5 q5 -3 11 -10.5 q6 -7.5 12 -16 q6 -8.5 11 -16 q5 -7.5 8 -10.5 Z" /><glyph glyph-name="D" unicode="d" d="M471 1199 q-46 0 -91 -3 l0 -1032 q0 -22 8 -37 q13 -18 50 -26.5 q37 -8.5 114 -8.5 q65 0 136 32.5 q71 32.5 130 99.5 q59 67 97 169.5 q38 102.5 38 243.5 q0 133 -31.5 237.5 q-31.5 104.5 -93 176.5 q-61.5 72 -151 110 q-89.5 38 -206.5 38 ZM1156 676 q0 -125 -25.5 -223.5 q-25.5 -98.5 -69 -174 q-43.5 -75.5 -101 -128 q-57.5 -52.5 -121.5 -86 q-64 -33.5 -131 -49 q-67 -15.5 -129 -15.5 l-531 0 l0 53 q68 14 105 30.5 q37 16.5 37 30.5 l0 1064 q-39 -5 -75 -10 q-36 -5 -67 -10 l-11 72 q46 12 107 23 q61 11 128 19.5 q67 8.5 136 13 q69 4.5 130 4.5 q144 0 258.5 -41.5 q114.5 -41.5 194.5 -120.5 q80 -79 122.5 -193 q42.5 -114 42.5 -259 Z" /><glyph glyph-name="E" unicode="e" d="M979 264 q-4 -43 -9 -84 q-5 -41 -11 -76.5 q-6 -35.5 -11.5 -62 q-5.5 -26.5 -9.5 -41.5 l-890 0 l0 53 q68 14 105 30.5 q37 16.5 37 30.5 l0 1031 q0 12 -35 30 q-35 18 -107 32 l0 53 l831 0 l35 -27 q-2 -26 -6 -59.5 q-4 -33.5 -10 -68 q-6 -34.5 -12.5 -65.5 q-6.5 -31 -12.5 -50 l-55 0 q-5 92 -25 131 q-20 39 -57 39 l-356 0 l0 -425 l403 0 l28 -30 q-8 -14 -19.5 -31 q-11.5 -17 -24 -33 q-12.5 -16 -25 -30 q-12.5 -14 -23.5 -22 q-15 15 -32.5 25 q-17.5 10 -40 17 q-22.5 7 -53 10 q-30.5 3 -72.5 3 l-141 0 l0 -480 q0 -15 7 -26.5 q7 -11.5 29 -20 q22 -8.5 62 -13 q40 -4.5 106 -4.5 l119 0 q46 0 78.5 7 q32.5 7 57.5 27 q25 20 45.5 56 q20.5 36 41.5 95 l53 -21 Z" /><glyph glyph-name="F" unicode="f" d="M48 0 l0 53 q68 14 105 30.5 q37 16.5 37 30.5 l0 1031 q0 12 -35 30 q-35 18 -107 32 l0 53 l841 0 l33 -27 q-1 -26 -5 -59.5 q-4 -33.5 -9.5 -68 q-5.5 -34.5 -12 -65.5 q-6.5 -31 -12.5 -50 l-57 0 q-3 92 -23.5 131 q-20.5 39 -58.5 39 l-364 0 l0 -425 l372 0 l31 -30 q-9 -15 -21 -32 q-12 -17 -25 -33 q-13 -16 -25.5 -29.5 q-12.5 -13.5 -22.5 -21.5 q-15 15 -32 25 q-17 10 -39.5 17 q-22.5 7 -53 10 q-30.5 3 -72.5 3 l-112 0 l0 -530 q0 -6 8.5 -13 q8.5 -7 29 -14.5 q20.5 -7.5 53.5 -16 q33 -8.5 82 -17.5 l0 -53 l-505 0 Z" /><glyph glyph-name="G" unicode="g" d="M1060 1188 q7 -5 -3 -24.5 q-10 -19.5 -27.5 -42.5 q-17.5 -23 -37.5 -45.5 q-20 -22.5 -33 -34.5 l-43 9 q-33 37 -67.5 61 q-34.5 24 -72 38.5 q-37.5 14.5 -79.5 20 q-42 5.5 -89 5.5 q-25 0 -61 -11 q-36 -11 -75.5 -36 q-39.5 -25 -78.5 -66 q-39 -41 -70 -100.5 q-31 -59.5 -50.5 -140 q-19.5 -80.5 -19.5 -184.5 q0 -137 35 -237.5 q35 -100.5 92 -166.5 q57 -66 129 -98 q72 -32 146 -32 q68 0 123 13 q55 13 100 37 l0 327 q0 11 -7.5 21.5 q-7.5 10.5 -28.5 20.5 q-21 10 -58.5 20 q-37.5 10 -96.5 20 l0 53 l473 0 l0 -53 q-57 -14 -79.5 -36.5 q-22.5 -22.5 -22.5 -45.5 l0 -321 q-74 -61 -134.5 -98 q-60.5 -37 -112 -57.5 q-51.5 -20.5 -97.5 -27 q-46 -6.5 -91 -6.5 q-103 0 -203 37.5 q-100 37.5 -179 114 q-79 76.5 -127.5 191 q-48.5 114.5 -48.5 269.5 q0 166 53 297.5 q53 131.5 144.5 223 q91.5 91.5 215 139.5 q123.5 48 264.5 48 q33 0 74.5 -7 q41.5 -7 85 -20 q43.5 -13 85 -32 q41.5 -19 73.5 -43 Z" /><glyph glyph-name="H" unicode="h" d="M48 0 l0 53 q68 14 105 30.5 q37 16.5 37 30.5 l0 1031 q0 12 -35 30 q-35 18 -107 32 l0 53 l475 0 l0 -53 q-68 -14 -105.5 -31 q-37.5 -17 -37.5 -31 l0 -435 l580 0 l0 435 q0 12 -35 30 q-35 18 -107 32 l0 53 l475 0 l0 -53 q-68 -14 -105.5 -31 q-37.5 -17 -37.5 -31 l0 -1031 q0 -12 35.5 -29.5 q35.5 -17.5 107.5 -31.5 l0 -53 l-475 0 l0 53 q68 14 105 30.5 q37 16.5 37 30.5 l0 496 l-580 0 l0 -496 q0 -12 35 -29.5 q35 -17.5 108 -31.5 l0 -53 l-475 0 Z" /><glyph glyph-name="I" unicode="i" d="M68 0 l0 53 q68 14 105 30.5 q37 16.5 37 30.5 l0 1031 q0 12 -35 30 q-35 18 -107 32 l0 53 l475 0 l0 -53 q-68 -14 -105.5 -31 q-37.5 -17 -37.5 -31 l0 -1031 q0 -12 35.5 -29.5 q35.5 -17.5 107.5 -31.5 l0 -53 l-475 0 Z" /><glyph glyph-name="J" unicode="j" d="M578 1207 q-68 -14 -105.5 -31 q-37.5 -17 -37.5 -31 l0 -947 q0 -116 -18 -195.5 q-18 -79.5 -48 -135.5 q-30 -56 -68 -93.5 q-38 -37.5 -77 -69.5 q-27 -22 -60 -40 q-33 -18 -67 -30.5 q-34 -12.5 -66 -19.5 q-32 -7 -56 -7 q-35 0 -69 10 q-34 10 -61 23.5 q-27 13.5 -43.5 28 q-16.5 14.5 -16.5 23.5 q0 9 15.5 27 q15.5 18 37 37 q21.5 19 44 35 q22.5 16 36.5 21 q28 -20 50.5 -33 q22.5 -13 42.5 -20.5 q20 -7.5 38.5 -10.5 q18.5 -3 37.5 -3 q26 0 54 15.5 q28 15.5 51 57.5 q23 42 38 116 q15 74 15 192 l0 1019 q0 6 -7.5 13 q-7.5 7 -28.5 15 q-21 8 -58.5 16.5 q-37.5 8.5 -97.5 17.5 l0 53 l525 0 l0 -53 Z" /><glyph glyph-name="K" unicode="k" d="M48 0 l0 53 q68 14 105 30.5 q37 16.5 37 30.5 l0 1031 q0 12 -35 30 q-35 18 -107 32 l0 53 l475 0 l0 -53 q-68 -14 -105.5 -31 q-37.5 -17 -37.5 -31 l0 -494 l397 467 q23 27 30 43 q7 16 -1.5 25 q-8.5 9 -32.5 13.5 q-24 4.5 -63 7.5 l0 53 l430 0 l0 -53 q-32 -4 -56 -8 q-24 -4 -43 -10.5 q-19 -6.5 -35 -16.5 q-16 -10 -31 -27 l-435 -472 l483 -533 q34 -38 78 -44.5 q44 -6.5 96 -0.5 l7 -53 q-29 -9 -61 -19 q-32 -10 -63.5 -18.5 q-31.5 -8.5 -60.5 -13.5 q-29 -5 -53 -5 q-29 0 -51.5 9 q-22.5 9 -42.5 34 l-492 605 l0 -520 q0 -12 35 -29.5 q35 -17.5 108 -31.5 l0 -53 l-475 0 Z" /><glyph glyph-name="L" unicode="l" d="M969 264 q-4 -43 -9.5 -84 q-5.5 -41 -11 -76.5 q-5.5 -35.5 -11 -62 q-5.5 -26.5 -9.5 -41.5 l-880 0 l0 53 q68 14 105 30.5 q37 16.5 37 30.5 l0 1031 q0 12 -35 30 q-35 18 -107 32 l0 53 l475 0 l0 -53 q-68 -14 -105.5 -31 q-37.5 -17 -37.5 -31 l0 -971 q0 -18 8.5 -31.5 q8.5 -13.5 29.5 -23 q21 -9.5 57 -14.5 q36 -5 91 -5 l133 0 q46 0 77.5 7 q31.5 7 55.5 27 q24 20 43.5 56 q19.5 36 40.5 95 l53 -21 Z" /><glyph glyph-name="M" unicode="m" d="M1578 1207 q-27 0 -62 -9 q-35 -9 -71 -24 l10 -1060 q0 -12 36.5 -29.5 q36.5 -17.5 108.5 -31.5 l0 -53 l-477 0 l0 53 q68 14 110 30.5 q42 16.5 42 30.5 l-9 893 l-433 -1007 l-64 0 l-435 1003 l-9 -889 q0 -12 35.5 -29.5 q35.5 -17.5 107.5 -31.5 l0 -53 l-410 0 l0 53 q69 14 105.5 30.5 q36.5 16.5 36.5 30.5 l10 1055 q-37 21 -75 29.5 q-38 8.5 -67 8.5 l0 53 l306 0 q10 0 17 -3 q7 -3 14 -12 q7 -9 15 -25.5 q8 -16.5 20 -43.5 l388 -879 l380 879 q13 30 21.5 47 q8.5 17 15 25 q6.5 8 13.5 10 q7 2 16 2 l304 0 l0 -53 Z" /><glyph glyph-name="N" unicode="n" d="M48 0 l0 53 q74 9 108 28 q34 19 34 33 l0 1024 q-33 30 -68.5 46.5 q-35.5 16.5 -73.5 22.5 l0 53 l234 0 q15 0 24.5 -2.5 q9.5 -2.5 19.5 -10.5 q10 -8 21.5 -23.5 q11.5 -15.5 30.5 -41.5 l642 -887 l0 850 q0 6 -7 14.5 q-7 8.5 -23.5 17 q-16.5 8.5 -44 16.5 q-27.5 8 -67.5 14 l0 53 l415 0 l0 -53 q-72 -10 -107.5 -29 q-35.5 -19 -35.5 -33 l0 -1175 q-65 7 -103.5 26.5 q-38.5 19.5 -55.5 42.5 l-671 930 l0 -855 q0 -6 8 -14.5 q8 -8.5 25 -17 q17 -8.5 44 -16.5 q27 -8 66 -13 l0 -53 l-415 0 Z" /><glyph glyph-name="O" unicode="o" d="M971 629 q0 69 -12 136 q-12 67 -34.5 127 q-22.5 60 -54.5 111 q-32 51 -73 88 q-41 37 -89.5 58 q-48.5 21 -103.5 21 q-83 0 -148.5 -37 q-65.5 -37 -110.5 -105.5 q-45 -68.5 -68.5 -166.5 q-23.5 -98 -23.5 -220 q0 -112 29 -211.5 q29 -99.5 78.5 -173.5 q49.5 -74 116 -117.5 q66.5 -43.5 140.5 -43.5 q77 0 142 34 q65 34 112 101 q47 67 73.5 167 q26.5 100 26.5 232 ZM1158 647 q0 -136 -46 -258.5 q-46 -122.5 -125 -215.5 q-79 -93 -183 -148 q-104 -55 -221 -55 q-123 0 -219 53 q-96 53 -162.5 142 q-66.5 89 -101.5 205 q-35 116 -35 242 q0 136 44 259 q44 123 121.5 216 q77.5 93 182.5 148 q105 55 228 55 q126 0 223 -54.5 q97 -54.5 162 -144.5 q65 -90 98.5 -206 q33.5 -116 33.5 -238 Z" /><glyph glyph-name="P" unicode="p" d="M48 0 l0 53 q68 14 105 30.5 q37 16.5 37 30.5 l0 1066 q-38 -5 -73.5 -10.5 q-35.5 -5.5 -68.5 -11.5 l-11 72 q50 13 110 24 q60 11 124 19 q64 8 130 12.5 q66 4.5 129 4.5 q111 0 200.5 -23 q89.5 -23 153.5 -68 q64 -45 98.5 -111 q34.5 -66 34.5 -152 q0 -69 -19.5 -126 q-19.5 -57 -52 -102 q-32.5 -45 -74.5 -78.5 q-42 -33.5 -88 -55.5 q-46 -22 -92.5 -33 q-46.5 -11 -87.5 -11 q-46 0 -87.5 7.5 q-41.5 7.5 -75.5 22.5 l-26 85 q42 -19 78 -24.5 q36 -5.5 71 -5.5 q45 0 92.5 17.5 q47.5 17.5 86.5 52 q39 34.5 63.5 87 q24.5 52.5 24.5 123.5 q0 78 -27.5 135.5 q-27.5 57.5 -75.5 95 q-48 37.5 -113.5 55.5 q-65.5 18 -140.5 18 q-47 0 -93 -3 l0 -1082 q0 -6 7.5 -13 q7.5 -7 27 -15 q19.5 -8 53 -16 q33.5 -8 85.5 -17 l0 -53 l-505 0 Z" /><glyph glyph-name="Q" unicode="q" d="M971 629 q0 69 -12 136 q-12 67 -34.5 127 q-22.5 60 -54.5 111 q-32 51 -73 88 q-41 37 -89.5 58 q-48.5 21 -103.5 21 q-83 0 -148.5 -37 q-65.5 -37 -110.5 -105.5 q-45 -68.5 -68.5 -166.5 q-23.5 -98 -23.5 -220 q0 -112 29 -211.5 q29 -99.5 78.5 -173.5 q49.5 -74 116 -117.5 q66.5 -43.5 140.5 -43.5 q77 0 142 34 q65 34 112 101 q47 67 73.5 167 q26.5 100 26.5 232 ZM1327 -120 q-24 -44 -50 -79.5 q-26 -35.5 -51 -60.5 q-25 -25 -47 -39 q-22 -14 -37 -14 q-43 0 -85.5 14.5 q-42.5 14.5 -85 38.5 q-42.5 24 -85 54.5 q-42.5 30.5 -85 62.5 q-42.5 32 -85 62.5 q-42.5 30.5 -84.5 53.5 q-24 -3 -49 -3 q-115 0 -210 51.5 q-95 51.5 -163.5 139 q-68.5 87.5 -106.5 204 q-38 116.5 -38 247.5 q0 136 44 259 q44 123 121.5 216 q77.5 93 182.5 148 q105 55 228 55 q126 0 223 -54.5 q97 -54.5 162 -144.5 q65 -90 98.5 -206 q33.5 -116 33.5 -238 q0 -105 -28 -202 q-28 -97 -77.5 -179.5 q-49.5 -82.5 -117 -146.5 q-67.5 -64 -147.5 -102 q49 -23 96.5 -51.5 q47.5 -28.5 93 -54.5 q45.5 -26 88.5 -43.5 q43 -17.5 82 -17.5 q12 0 25.5 3.5 q13.5 3.5 30 12 q16.5 8.5 38 23 q21.5 14.5 51.5 36.5 l34 -45 Z" /><glyph glyph-name="R" unicode="r" d="M450 1199 q-17 0 -34.5 -0.5 q-17.5 -0.5 -35.5 -1.5 l0 -501 q27 -5 47 -6 q20 -1 42 -1 q151 0 228.5 69 q77.5 69 77.5 198 q0 52 -17.5 96.5 q-17.5 44.5 -56.5 77 q-39 32.5 -101 51 q-62 18.5 -150 18.5 ZM48 0 l0 53 q68 14 105 30.5 q37 16.5 37 30.5 l0 1064 q-36 -5 -71.5 -10 q-35.5 -5 -70.5 -10 l-11 72 q49 12 100 22.5 q51 10.5 106.5 19 q55.5 8.5 116.5 13.5 q61 5 129 5 q123 0 212 -23 q89 -23 147 -64 q58 -41 86 -96.5 q28 -55.5 28 -119.5 q0 -71 -20.5 -129 q-20.5 -58 -57.5 -104 q-37 -46 -89 -79 q-52 -33 -114 -52 l307 -469 q15 -21 31.5 -34 q16.5 -13 37 -19.5 q20.5 -6.5 46 -7.5 q25.5 -1 59.5 2 l12 -53 q-33 -11 -68 -21 q-35 -10 -67.5 -18 q-32.5 -8 -61 -12.5 q-28.5 -4.5 -47.5 -4.5 q-29 0 -56.5 16 q-27.5 16 -41.5 39 l-297 556 q-12 -1 -24.5 -1.5 q-12.5 -0.5 -24.5 -0.5 q-26 0 -52 2.5 q-26 2.5 -54 8.5 l0 -492 q0 -12 35 -29.5 q35 -17.5 108 -31.5 l0 -53 l-475 0 Z" /><glyph glyph-name="S" unicode="s" d="M913 377 q0 -45 -12.5 -92 q-12.5 -47 -38 -92.5 q-25.5 -45.5 -63.5 -86 q-38 -40.5 -89.5 -70.5 q-51.5 -30 -116 -48 q-64.5 -18 -143.5 -18 q-34 0 -75.5 7 q-41.5 7 -85 19.5 q-43.5 12.5 -86 30.5 q-42.5 18 -77.5 41 q-7 4 -10.5 36 q-3.5 32 -3.5 75 q0 43 4 88.5 q4 45.5 13 76.5 l51 -5 q23 -59 57 -104 q34 -45 75.5 -75.5 q41.5 -30.5 89.5 -46 q48 -15.5 99 -15.5 q45 0 89 16.5 q44 16.5 79.5 46 q35.5 29.5 57 70 q21.5 40.5 21.5 88.5 q0 61 -27 105 q-27 44 -71 78.5 q-44 34.5 -100 62 q-56 27.5 -115 54.5 q-59 27 -115 57.5 q-56 30.5 -100 70 q-44 39.5 -71 92.5 q-27 53 -27 126 q0 47 23 103.5 q23 56.5 73 106 q50 49.5 129.5 82.5 q79.5 33 193.5 33 q48 0 96 -7 q48 -7 89 -19 q41 -12 74 -29 q33 -17 51 -37 q7 -6 0 -26.5 q-7 -20.5 -21 -45 q-14 -24.5 -31 -47.5 q-17 -23 -29 -34 l-46 6 q-26 37 -56 63 q-30 26 -61 41.5 q-31 15.5 -62.5 22.5 q-31.5 7 -59.5 7 q-54 0 -92 -15.5 q-38 -15.5 -63 -40 q-25 -24.5 -36.5 -54.5 q-11.5 -30 -11.5 -58 q0 -47 27 -83.5 q27 -36.5 71.5 -67 q44.5 -30.5 101 -58.5 q56.5 -28 116 -57.5 q59.5 -29.5 116 -64 q56.5 -34.5 101 -78.5 q44.5 -44 71.5 -100.5 q27 -56.5 27 -130.5 Z" /><glyph glyph-name="T" unicode="t" d="M305 0 l0 53 q46 9 77 19 q31 10 49.5 19.5 q18.5 9.5 26.5 18 q8 8.5 8 15.5 l0 1035 l-284 0 q-15 0 -27.5 -7 q-12.5 -7 -26 -27.5 q-13.5 -20.5 -29.5 -57 q-16 -36.5 -38 -94.5 l-53 21 q2 29 6 64.5 q4 35.5 8.5 71 q4.5 35.5 10 69.5 q5.5 34 10.5 60 l1030 0 l33 -27 q-1 -26 -4 -56.5 q-3 -30.5 -7.5 -64 q-4.5 -33.5 -10 -67.5 q-5.5 -34 -11.5 -65 l-55 0 q-10 46 -17 80 q-7 34 -16 56.5 q-9 22.5 -22.5 33 q-13.5 10.5 -34.5 10.5 l-272 0 l0 -1035 q0 -6 8 -14.5 q8 -8.5 27 -18.5 q19 -10 50 -20 q31 -10 77 -19 l0 -53 l-513 0 Z" /><glyph glyph-name="U" unicode="u" d="M1288 1207 q-68 -14 -105.5 -31 q-37.5 -17 -37.5 -31 l0 -621 q0 -131 -33.5 -234 q-33.5 -103 -95.5 -174 q-62 -71 -149.5 -108.5 q-87.5 -37.5 -195.5 -37.5 q-103 0 -191 28.5 q-88 28.5 -152.5 87 q-64.5 58.5 -101 147.5 q-36.5 89 -36.5 211 l0 701 q0 12 -35 30 q-35 18 -107 32 l0 53 l475 0 l0 -53 q-68 -14 -105.5 -31 q-37.5 -17 -37.5 -31 l0 -646 q0 -192 83.5 -298 q83.5 -106 254.5 -106 q71 0 124 33.5 q53 33.5 88 88.5 q35 55 52.5 126 q17.5 71 17.5 145 l0 657 q0 12 -35 30 q-35 18 -107 32 l0 53 l430 0 l0 -53 Z" /><glyph glyph-name="V" unicode="v" d="M1303 1207 q-68 -13 -106.5 -25.5 q-38.5 -12.5 -48.5 -40.5 l-381 -1074 q-8 -22 -28.5 -38.5 q-20.5 -16.5 -45 -28.5 q-24.5 -12 -49.5 -19 q-25 -7 -42 -11 l-445 1171 q-10 26 -43 42 q-33 16 -96 24 l0 53 l460 0 l0 -53 q-80 -6 -108.5 -20.5 q-28.5 -14.5 -17.5 -43.5 l344 -912 l323 910 q11 29 -22 42.5 q-33 13.5 -115 23.5 l0 53 l421 0 l0 -53 Z" /><glyph glyph-name="W" unicode="w" d="M1712 1207 q-44 -9 -73 -17 q-29 -8 -46 -15.5 q-17 -7.5 -24.5 -14.5 q-7.5 -7 -8.5 -15 l-229 -1086 q-5 -21 -21.5 -36.5 q-16.5 -15.5 -38 -26 q-21.5 -10.5 -44 -17 q-22.5 -6.5 -37.5 -9.5 l-331 952 l-287 -863 q-7 -21 -24.5 -36 q-17.5 -15 -39.5 -25.5 q-22 -10.5 -46 -17 q-24 -6.5 -44 -10.5 l-260 1167 q-5 25 -36 41 q-31 16 -102 29 l0 53 l449 0 l0 -53 q-49 -5 -76.5 -12.5 q-27.5 -7.5 -41 -16.5 q-13.5 -9 -15.5 -19.5 q-2 -10.5 0 -21.5 l189 -842 l314 965 l70 0 l347 -965 l179 850 q2 12 -9 21 q-11 9 -32 16 q-21 7 -50 13 q-29 6 -63 12 l0 53 l431 0 l0 -53 Z" /><glyph glyph-name="X" unicode="x" d="M763 0 l0 53 q44 4 71 10.5 q27 6.5 39 16 q12 9.5 10.5 23.5 q-1.5 14 -15.5 34 l-264 386 l-244 -386 q-29 -44 -1 -61 q28 -17 120 -23 l0 -53 l-450 0 l0 53 q65 5 110.5 24 q45.5 19 71.5 60 l314 502 l-330 484 q-15 22 -29 36 q-14 14 -31.5 23 q-17.5 9 -40 14.5 q-22.5 5.5 -55.5 10.5 l0 53 l481 0 l0 -53 q-85 -8 -111 -24.5 q-26 -16.5 4 -59.5 l234 -343 l214 343 q14 23 13.5 37.5 q-0.5 14.5 -15.5 24 q-15 9.5 -44.5 14.5 q-29.5 5 -74.5 8 l0 53 l453 0 l0 -53 q-36 -4 -64.5 -9.5 q-28.5 -5.5 -50.5 -15 q-22 -9.5 -38.5 -24 q-16.5 -14.5 -29.5 -35.5 l-286 -456 l362 -530 q15 -21 30 -35.5 q15 -14.5 33.5 -24 q18.5 -9.5 41 -15 q22.5 -5.5 51.5 -9.5 l0 -53 l-479 0 Z" /><glyph glyph-name="Y" unicode="y" d="M355 0 l0 53 q91 19 126.5 38.5 q35.5 19.5 35.5 33.5 l0 410 q-37 81 -83 167.5 q-46 86.5 -94 168.5 q-48 82 -93.5 152 q-45.5 70 -80.5 118 q-9 11 -20 20.5 q-11 9.5 -28.5 17 q-17.5 7.5 -44.5 11.5 q-27 4 -69 4 l-4 53 q29 4 61.5 8 q32.5 4 64 7.5 q31.5 3.5 59.5 5.5 q28 2 49 2 q24 0 46.5 -10.5 q22.5 -10.5 39.5 -30.5 q37 -49 79 -114 q42 -65 84.5 -137.5 q42.5 -72.5 83 -149 q40.5 -76.5 75.5 -148.5 l257 461 q15 26 -9.5 41 q-24.5 15 -101.5 25 l0 53 l403 0 l0 -53 q-68 -13 -103.5 -27 q-35.5 -14 -49.5 -39 l-331 -605 l0 -411 q0 -6 8 -14.5 q8 -8.5 26.5 -18.5 q18.5 -10 50 -20 q31.5 -10 78.5 -19 l0 -53 l-515 0 Z" /><glyph glyph-name="Z" unicode="z" d="M1009 313 q-2 -32 -3.5 -74 q-1.5 -42 -3 -85.5 q-1.5 -43.5 -3 -84 q-1.5 -40.5 -2.5 -69.5 l-909 0 l-31 48 l698 1102 l-436 0 q-16 0 -35.5 -13 q-19.5 -13 -38 -39.5 q-18.5 -26.5 -35 -65.5 q-16.5 -39 -27.5 -91 l-67 14 l32 321 q27 -6 49.5 -9.5 q22.5 -3.5 44 -5 q21.5 -1.5 44.5 -1.5 l685 0 l28 -45 l-693 -1105 l501 0 q21 0 38 11.5 q17 11.5 32.5 37 q15.5 25.5 31.5 67.5 q16 42 35 104 l65 -17 Z" /><glyph glyph-name="bracketleft" unicode="[" d="M615 -242 q-2 -10 -6 -22 l-8 -25 q-4 -13 -8.5 -25 q-4.5 -12 -8.5 -21 l-449 0 l0 1935 l443 0 l35 -28 q-2 -12 -6 -26.5 q-4 -14.5 -8 -28 q-4 -13.5 -8 -25 q-4 -11.5 -7 -17.5 l-279 0 l0 -1685 l273 0 l37 -32 Z" /><glyph glyph-name="backslash" unicode="\" d="M873 -335 l-30 10 q-18 6 -36.5 13.5 q-18.5 7.5 -35 15 q-16.5 7.5 -25.5 14.5 l-696 1858 l40 24 q29 -8 63 -21 q34 -13 62 -30 l695 -1857 l-37 -27 Z" /><glyph glyph-name="bracketright" unicode="]" d="M73 -335 l-35 31 q1 12 4.5 25.5 q3.5 13.5 7.5 26.5 q4 13 8.5 24.5 q4.5 11.5 7.5 17.5 l279 0 l0 1685 l-272 0 l-37 29 q3 22 13 50.5 q10 28.5 17 45.5 l449 0 l0 -1935 l-442 0 Z" /><glyph glyph-name="asciicircum" unicode="^" d="M907 635 q-25 -23 -48.5 -38.5 q-23.5 -15.5 -57.5 -31.5 l-37 27 l-283 723 l-250 -680 q-11 -10 -25 -20.5 q-14 -10.5 -29 -20 q-15 -9.5 -29.5 -17 q-14.5 -7.5 -24.5 -12.5 l-23 27 l322 870 q12 12 29.5 24.5 q17.5 12.5 35.5 24.5 q18 12 36 22 q18 10 32 17 l352 -915 Z" /><glyph glyph-name="underscore" unicode="_" d="M910 -158 q-2 -11 -6 -24 q-4 -13 -9 -26.5 q-5 -13.5 -10 -26 q-5 -12.5 -9 -21.5 l-790 0 l-28 29 q5 20 16 48 q11 28 20 48 l790 0 l26 -27 Z" /><glyph glyph-name="grave" unicode="`" d="M443 1081 q-11 -9 -30 -20 q-19 -11 -36 -16 l-362 377 l24 46 q10 2 33 6.5 q23 4.5 49.5 9 q26.5 4.5 51.5 8.5 q25 4 37 5 l233 -416 Z" /><glyph glyph-name="a" unicode="a" d="M372 115 q52 0 113.5 27.5 q61.5 27.5 137.5 92.5 l0 246 q-76 -12 -126 -24 q-50 -12 -83 -24.5 q-33 -12.5 -52.5 -26 q-19.5 -13.5 -34.5 -29.5 q-26 -27 -42 -60 q-16 -33 -16 -78 q0 -38 11 -62 q11 -24 27 -38 q16 -14 34 -19 q18 -5 31 -5 ZM956 92 q-85 -59 -151.5 -90.5 q-66.5 -31.5 -97.5 -31.5 q-35 0 -57.5 45 q-22.5 45 -26.5 124 q-45 -46 -90 -78 q-45 -32 -87.5 -52.5 q-42.5 -20.5 -81.5 -29.5 q-39 -9 -71 -9 q-38 0 -76.5 12.5 q-38.5 12.5 -70 39.5 q-31.5 27 -51.5 69 q-20 42 -20 100 q0 73 26 123 q26 50 63 87 q24 24 55 46 q31 22 81.5 42 q50.5 20 128 38.5 q77.5 18.5 194.5 36.5 l0 133 q0 33 -7 61.5 q-7 28.5 -25 49 q-18 20.5 -48 32 q-30 11.5 -75 10.5 q-30 0 -58 -10 q-28 -10 -50 -27 q-22 -17 -34 -41.5 q-12 -24.5 -9 -54.5 q1 -6 -11.5 -14 q-12.5 -8 -32 -16 q-19.5 -8 -43 -15 q-23.5 -7 -46 -12 q-22.5 -5 -41 -7.5 q-18.5 -2.5 -26.5 -0.5 l-16 44 q23 53 72 101 q49 48 112 84 q63 36 135 57.5 q72 21.5 142 21.5 q119 0 180 -61 q61 -61 61 -164 l0 -537 q0 -42 11 -60 q11 -18 29 -18 q14 0 35 5 q21 5 61 22 l17 -55 Z" /><glyph glyph-name="b" unicode="b" d="M975 497 q0 -58 -17 -119.5 q-17 -61.5 -48.5 -120 q-31.5 -58.5 -76.5 -111 q-45 -52.5 -100 -91.5 q-55 -39 -119 -62 q-64 -23 -135 -23 q-22 0 -58 9 q-36 9 -81.5 25.5 q-45.5 16.5 -98 39.5 q-52.5 23 -106.5 52 l0 1190 q0 46 -4.5 71 q-4.5 25 -18 37.5 q-13.5 12.5 -38.5 16.5 q-25 4 -66 9 l0 50 q75 16 140 32.5 q65 16.5 128 47.5 l10 -10 q6 -6 13 -12 q7 -7 16 -14 l0 -762 q50 54 99.5 93.5 q49.5 39.5 94.5 65 q45 25.5 83.5 37.5 q38.5 12 67.5 12 q70 0 128 -32 q58 -32 99.5 -92 q41.5 -60 64.5 -145.5 q23 -85.5 23 -193.5 ZM811 411 q0 100 -19.5 175 q-19.5 75 -52.5 125.5 q-33 50.5 -76 76 q-43 25.5 -91 25.5 q-18 0 -45 -8.5 q-27 -8.5 -61 -29.5 q-34 -21 -72.5 -55.5 q-38.5 -34.5 -78.5 -86.5 l0 -425 q40 -27 79.5 -45 q39.5 -18 74.5 -29.5 q35 -11.5 63 -16 q28 -4.5 45 -4.5 q58 0 102 25 q44 25 73 66.5 q29 41.5 44 95 q15 53.5 15 111.5 Z" /><glyph glyph-name="c" unicode="c" d="M858 190 q-65 -76 -116.5 -119.5 q-51.5 -43.5 -96 -66 q-44.5 -22.5 -86.5 -28.5 q-42 -6 -89 -6 q-76 0 -147 32.5 q-71 32.5 -126 93.5 q-55 61 -88.5 149 q-33.5 88 -33.5 199 q0 108 39.5 202 q39.5 94 109 163.5 q69.5 69.5 165 110 q95.5 40.5 206.5 40.5 q33 0 70 -5.5 q37 -5.5 71.5 -16 q34.5 -10.5 63 -25 q28.5 -14.5 45.5 -32.5 q2 -12 -4 -39 q-6 -27 -16.5 -57.5 q-10.5 -30.5 -22.5 -58 q-12 -27.5 -21 -41.5 l-47 10 q-11 28 -29.5 55 q-18.5 27 -46 48 q-27.5 21 -64 34 q-36.5 13 -84.5 13 q-50 0 -96 -22 q-46 -22 -81 -68 q-35 -46 -56.5 -115.5 q-21.5 -69.5 -21.5 -164.5 q0 -83 24 -150 q24 -67 64 -114 q40 -47 93 -72.5 q53 -25.5 111 -25.5 q28 0 53 3 q25 3 54 15 q29 12 67 37.5 q38 25.5 93 70.5 l44 -49 Z" /><glyph glyph-name="d" unicode="d" d="M1081 94 q-93 -62 -156 -93 q-63 -31 -91 -31 q-35 0 -56.5 45 q-21.5 45 -29.5 146 q-41 -46 -78 -81.5 q-37 -35.5 -76 -60 q-39 -24.5 -81 -37 q-42 -12.5 -92 -12.5 q-59 0 -120.5 32.5 q-61.5 32.5 -111.5 93.5 q-50 61 -82 149 q-32 88 -32 199 q0 61 15.5 122.5 q15.5 61.5 45 119 q29.5 57.5 72 107.5 q42.5 50 95.5 87 q53 37 115.5 58.5 q62.5 21.5 132.5 21.5 q47 0 93.5 -11.5 q46.5 -11.5 100.5 -49.5 l0 365 q0 55 -2.5 87.5 q-2.5 32.5 -16 50 q-13.5 17.5 -42 24 q-28.5 6.5 -81.5 10.5 l0 49 q91 11 164 29.5 q73 18.5 125 35.5 l33 -32 l0 -1249 q0 -35 1.5 -59.5 q1.5 -24.5 4.5 -41 q3 -16.5 7 -26.5 q4 -10 10 -16 q5 -5 12.5 -6.5 q7.5 -1.5 21 1 q13.5 2.5 33 8.5 q19.5 6 48.5 18 l18 -53 ZM745 263 l0 459 q-34 58 -91.5 89.5 q-57.5 31.5 -128.5 31.5 q-59 0 -108.5 -22 q-49.5 -22 -85.5 -67 q-36 -45 -56 -112.5 q-20 -67.5 -20 -158.5 q0 -83 23 -150.5 q23 -67.5 59 -114.5 q36 -47 80 -72.5 q44 -25.5 85 -25.5 q32 0 62.5 11.5 q30.5 11.5 60.5 31 q30 19.5 60 45.5 q30 26 60 55 Z" /><glyph glyph-name="e" unicode="e" d="M501 850 q-50 0 -90.5 -19.5 q-40.5 -19.5 -70.5 -55 q-30 -35.5 -49.5 -85.5 q-19.5 -50 -27.5 -110 l396 0 q23 0 30.5 7.5 q7.5 7.5 7.5 28.5 q0 28 -8 68 q-8 40 -29.5 77 q-21.5 37 -59.5 63 q-38 26 -99 26 ZM886 555 q-18 -20 -53 -39.5 q-35 -19.5 -67 -32.5 l-508 0 q1 -76 21 -143.5 q20 -67.5 56 -117.5 q36 -50 87.5 -79.5 q51.5 -29.5 116.5 -29.5 q31 0 60.5 4 q29.5 4 63.5 17.5 q34 13.5 76 39.5 q42 26 99 70 q13 -7 25 -24 q12 -17 17 -25 q-68 -72 -120 -116 q-52 -44 -98.5 -68.5 q-46.5 -24.5 -92 -32.5 q-45.5 -8 -99.5 -8 q-80 0 -151.5 33.5 q-71.5 33.5 -125.5 94.5 q-54 61 -86 147 q-32 86 -32 192 q0 67 14.5 131 q14.5 64 42 120 q27.5 56 67.5 104 q40 48 92 84 q24 17 53 32 q29 15 60.5 26.5 q31.5 11.5 64.5 18.5 q33 7 63 7 q65 0 117 -17 q52 -17 91.5 -46.5 q39.5 -29.5 67 -69.5 q27.5 -40 45 -85 q17.5 -45 25.5 -93 q8 -48 8 -94 Z" /><glyph glyph-name="f" unicode="f" d="M842 1454 q0 -11 -16.5 -30 q-16.5 -19 -39 -39 q-22.5 -20 -46 -37.5 q-23.5 -17.5 -38.5 -24.5 q-48 48 -94.5 70 q-46.5 22 -75.5 22 q-26 0 -53.5 -17 q-27.5 -17 -50.5 -61.5 q-23 -44.5 -38 -122 q-15 -77.5 -15 -198.5 l0 -86 l255 0 l32 -31 q-9 -15 -22.5 -32 q-13.5 -17 -27 -32 q-13.5 -15 -26.5 -27 q-13 -12 -22 -18 q-23 12 -66 23.5 q-43 11.5 -123 11.5 l0 -713 q0 -6 10.5 -12 q10.5 -6 34.5 -12.5 q24 -6.5 63.5 -15 q39.5 -8.5 98.5 -19.5 l0 -53 l-524 0 l0 53 q69 12 103 29.5 q34 17.5 34 29.5 l0 713 l-129 0 l-23 31 l78 74 l74 0 l0 31 q0 106 14.5 182 q14.5 76 40 131 q25.5 55 60 95 q34.5 40 74.5 74 q30 26 65 46 q35 20 68.5 33.5 q33.5 13.5 64.5 20.5 q31 7 54 7 q36 0 72.5 -12 q36.5 -12 66 -27.5 q29.5 -15.5 48.5 -31.5 q19 -16 19 -25 Z" /><glyph glyph-name="g" unicode="g" d="M683 600 q0 52 -16 98.5 q-16 46.5 -48 81.5 q-32 35 -79 55 q-47 20 -109 20 q-25 0 -54 -12.5 q-29 -12.5 -54 -37 q-25 -24.5 -41.5 -61 q-16.5 -36.5 -16.5 -85.5 q0 -52 15 -98.5 q15 -46.5 46 -81 q31 -34.5 78.5 -54.5 q47.5 -20 112.5 -20 q29 0 58.5 12 q29.5 12 53.5 36.5 q24 24.5 39 61 q15 36.5 15 85.5 ZM531 -17 q-42 5 -77.5 11 q-35.5 6 -67.5 13 q-62 -36 -98 -65.5 q-36 -29.5 -54.5 -53 q-18.5 -23.5 -23.5 -42 q-5 -18.5 -5 -34.5 q0 -39 26.5 -74 q26.5 -35 72.5 -61 q46 -26 107 -41.5 q61 -15.5 129 -15.5 q64 0 115.5 17 q51.5 17 86.5 46 q35 29 54 69 q19 40 19 86 q0 25 -12 47 q-12 22 -43.5 40.5 q-31.5 18.5 -86.5 33 q-55 14.5 -142 24.5 ZM853 641 q0 -77 -34.5 -140.5 q-34.5 -63.5 -90.5 -109 q-56 -45.5 -129 -71 q-73 -25.5 -149 -25.5 l-6 0 q-44 -38 -59.5 -63 q-15.5 -25 -15.5 -31 q0 -11 9 -21.5 q9 -10.5 35.5 -20.5 q26.5 -10 75 -19.5 q48.5 -9.5 126.5 -19.5 q112 -13 185 -36.5 q73 -23.5 116 -54 q43 -30.5 60 -67.5 q17 -37 17 -77 q0 -52 -21 -101 q-21 -49 -58 -91.5 q-37 -42.5 -86.5 -77.5 q-49.5 -35 -106.5 -60 q-57 -25 -119 -39 q-62 -14 -122 -14 q-49 0 -101.5 6.5 q-52.5 6.5 -103 20.5 q-50.5 14 -96 35.5 q-45.5 21.5 -80 52 q-34.5 30.5 -54.5 69 q-20 38.5 -20 87.5 q0 26 10 53.5 q10 27.5 38.5 59 q28.5 31.5 79.5 68.5 q51 37 134 82 q-62 23 -88.5 50.5 q-26.5 27.5 -26.5 56.5 q0 9 6.5 24 q6.5 15 24 36 q17.5 21 48 47.5 q30.5 26.5 77.5 59.5 q-52 15 -95 41.5 q-43 26.5 -73.5 64 q-30.5 37.5 -47.5 84.5 q-17 47 -17 102 q0 73 34 138.5 q34 65.5 90 114 q56 48.5 128.5 77 q72.5 28.5 150.5 28.5 q63 0 117.5 -17.5 q54.5 -17.5 99.5 -48.5 q99 11 165.5 31 q66.5 20 108.5 35 l23 -32 q-11 -26 -23.5 -53 q-12.5 -27 -33.5 -52 q-36 -6 -72.5 -10.5 q-36.5 -4.5 -81.5 -6.5 q25 -36 38.5 -78 q13.5 -42 13.5 -87 Z" /><glyph glyph-name="h" unicode="h" d="M668 0 l0 53 q72 19 104.5 33 q32.5 14 32.5 28 l0 499 q0 61 -7 99.5 q-7 38.5 -22 61 q-15 22.5 -38.5 31 q-23.5 8.5 -55.5 8.5 q-66 0 -146.5 -59 q-80.5 -59 -165.5 -175 l0 -465 q0 -15 36.5 -31 q36.5 -16 101.5 -30 l0 -53 l-455 0 l0 53 q66 17 101.5 30.5 q35.5 13.5 35.5 30.5 l0 1174 q0 42 -3.5 65.5 q-3.5 23.5 -17 36.5 q-13.5 13 -41 18.5 q-27.5 5.5 -75.5 11.5 l0 50 q47 8 84.5 16 q37.5 8 70 17.5 q32.5 9.5 62 20.5 q29.5 11 61.5 26 l39 -36 l0 -797 q48 58 101 103.5 q53 45.5 105 76.5 q52 31 100.5 47 q48.5 16 87.5 16 q43 0 83 -13.5 q40 -13.5 70.5 -41.5 q30.5 -28 49 -71.5 q18.5 -43.5 18.5 -104.5 l0 -615 q0 -7 7 -13.5 q7 -6.5 23 -13.5 q16 -7 42.5 -15.5 q26.5 -8.5 65.5 -18.5 l0 -53 l-455 0 Z" /><glyph glyph-name="i" unicode="i" d="M68 0 l0 53 q68 14 102.5 30.5 q34.5 16.5 34.5 30.5 l0 549 q0 51 -1.5 82.5 q-1.5 31.5 -14 49 q-12.5 17.5 -40.5 25.5 q-28 8 -81 13 l0 50 q71 12 143.5 32 q72.5 20 129.5 45 l44 0 l0 -846 q0 -12 32.5 -29.5 q32.5 -17.5 105.5 -31.5 l0 -53 l-455 0 ZM418 1261 q0 -30 -10.5 -56 q-10.5 -26 -28.5 -45 q-18 -19 -42.5 -30 q-24.5 -11 -52.5 -11 q-48 0 -74.5 25.5 q-26.5 25.5 -26.5 75.5 q0 30 10.5 56 q10.5 26 28.5 45 q18 19 42 29.5 q24 10.5 51 10.5 q47 0 75 -24.5 q28 -24.5 28 -75.5 Z" /><glyph glyph-name="j" unicode="j" d="M380 102 q0 -116 -16.5 -196 q-16.5 -80 -44.5 -136 q-28 -56 -64.5 -94.5 q-36.5 -38.5 -76.5 -70.5 q-27 -21 -58 -40 q-31 -19 -62.5 -33 q-31.5 -14 -60.5 -22 q-29 -8 -51 -8 q-34 0 -67.5 8.5 q-33.5 8.5 -60.5 20.5 q-27 12 -44 25.5 q-17 13.5 -17 22.5 q0 10 16.5 29 q16.5 19 39.5 38.5 q23 19.5 47 36.5 q24 17 39 24 q33 -32 73 -44.5 q40 -12.5 78 -12.5 q28 0 55 17 q27 17 48 61 q21 44 34 120 q13 76 13 195 l0 620 q0 51 -2 82 q-2 31 -14.5 48.5 q-12.5 17.5 -40.5 25.5 q-28 8 -80 14 l0 50 q45 7 80 15.5 q35 8.5 66 17.5 q31 9 60.5 20 q29.5 11 63.5 24 l47 0 l0 -858 ZM414 1261 q0 -30 -10 -56 q-10 -26 -28 -45 q-18 -19 -42.5 -30 q-24.5 -11 -52.5 -11 q-48 0 -75 25.5 q-27 25.5 -27 75.5 q0 30 10.5 56 q10.5 26 28.5 45 q18 19 42 29.5 q24 10.5 51 10.5 q47 0 75 -24.5 q28 -24.5 28 -75.5 Z" /><glyph glyph-name="k" unicode="k" d="M53 0 l0 53 q66 17 101.5 30 q35.5 13 35.5 31 l0 1172 q0 46 -5 71 q-5 25 -20 37.5 q-15 12.5 -42 16.5 q-27 4 -70 9 l0 50 q78 14 149.5 32.5 q71.5 18.5 128.5 47.5 l39 -36 l0 -983 l293 258 q33 29 41 46.5 q8 17.5 -1 26.5 q-9 9 -30.5 12 q-21.5 3 -47.5 3 l0 53 l402 0 l0 -53 q-44 -5 -83.5 -18 q-39.5 -13 -81.5 -46 l-329 -259 l371 -430 q14 -16 28.5 -26.5 q14.5 -10.5 32 -16 q17.5 -5.5 40 -6.5 q22.5 -1 51.5 1 l6 -53 q-29 -7 -60.5 -13 q-31.5 -6 -59.5 -10.5 q-28 -4.5 -50 -7 q-22 -2.5 -32 -2.5 q-42 0 -68.5 12 q-26.5 12 -48.5 41 l-373 477 l0 -406 q0 -8 3.5 -14 q3.5 -6 14.5 -12.5 q11 -6.5 33 -14.5 q22 -8 59 -20 l0 -53 l-427 0 Z" /><glyph glyph-name="l" unicode="l" d="M58 0 l0 53 q43 7 71.5 14.5 q28.5 7.5 45 15 q16.5 7.5 23.5 15.5 q7 8 7 16 l0 1172 q0 45 -5.5 70 q-5.5 25 -21 37.5 q-15.5 12.5 -42 17 q-26.5 4.5 -68.5 9.5 l0 50 q40 7 76 14.5 q36 7.5 70 16.5 q34 9 66.5 21 q32.5 12 66.5 28 l38 -36 l0 -1400 q0 -15 33 -31 q33 -16 115 -30 l0 -53 l-475 0 Z" /><glyph glyph-name="m" unicode="m" d="M1194 0 l0 53 q72 19 101.5 33 q29.5 14 29.5 28 l0 509 q0 61 -6.5 100 q-6.5 39 -20 61.5 q-13.5 22.5 -34 30.5 q-20.5 8 -49.5 8 q-59 0 -132 -57.5 q-73 -57.5 -145 -162.5 l0 -489 q0 -7 6.5 -13.5 q6.5 -6.5 22 -13.5 q15.5 -7 42 -15.5 q26.5 -8.5 65.5 -18.5 l0 -53 l-448 0 l0 53 q72 19 102 33 q30 14 30 28 l0 509 q0 61 -6 100 q-6 39 -18.5 61.5 q-12.5 22.5 -33 30.5 q-20.5 8 -50.5 8 q-60 0 -129.5 -57 q-69.5 -57 -150.5 -163 l0 -489 q0 -15 35 -31 q35 -16 100 -30 l0 -53 l-452 0 l0 53 q66 17 101.5 30.5 q35.5 13.5 35.5 30.5 l0 590 q0 40 -3.5 63 q-3.5 23 -17 35.5 q-13.5 12.5 -41 18.5 q-27.5 6 -75.5 12 l0 50 q42 6 77.5 14 q35.5 8 67 17.5 q31.5 9.5 61 21 q29.5 11.5 59.5 24.5 l37 -37 l11 -194 q97 122 186 176.5 q89 54.5 161 54.5 q48 0 87.5 -11.5 q39.5 -11.5 68 -36.5 q28.5 -25 45 -64.5 q16.5 -39.5 18.5 -94.5 l1 -19 q94 117 182.5 171.5 q88.5 54.5 162.5 54.5 q48 0 89 -13.5 q41 -13.5 72 -41.5 q31 -28 48.5 -71.5 q17.5 -43.5 17.5 -104.5 l0 -615 q0 -14 31 -27.5 q31 -13.5 110 -33.5 l0 -53 l-452 0 Z" /><glyph glyph-name="n" unicode="n" d="M668 0 l0 53 q72 19 104.5 33 q32.5 14 32.5 28 l0 504 q0 59 -6 97 q-6 38 -20.5 59.5 q-14.5 21.5 -37.5 30 q-23 8.5 -56 8.5 q-29 0 -63.5 -12 q-34.5 -12 -74 -39.5 q-39.5 -27.5 -84.5 -72 q-45 -44.5 -93 -110.5 l0 -465 q0 -15 36.5 -31 q36.5 -16 101.5 -30 l0 -53 l-455 0 l0 53 q66 17 101.5 30.5 q35.5 13.5 35.5 30.5 l0 590 q0 39 -2.5 62 q-2.5 23 -15.5 36 q-13 13 -40.5 19 q-27.5 6 -78.5 12 l0 50 q77 11 140 30 q63 19 125 47 l37 -37 l11 -214 q49 61 102.5 108 q53.5 47 106 78.5 q52.5 31.5 101.5 48 q49 16.5 88 16.5 q43 0 83 -13.5 q40 -13.5 70.5 -41.5 q30.5 -28 49 -71.5 q18.5 -43.5 18.5 -104.5 l0 -615 q0 -7 7 -13.5 q7 -6.5 23 -13.5 q16 -7 42.5 -15.5 q26.5 -8.5 65.5 -18.5 l0 -53 l-455 0 Z" /><glyph glyph-name="o" unicode="o" d="M783 450 q0 79 -23 150.5 q-23 71.5 -60.5 126 q-37.5 54.5 -86 86.5 q-48.5 32 -99.5 32 q-72 0 -120 -28.5 q-48 -28.5 -77 -78.5 q-29 -50 -41.5 -118 q-12.5 -68 -12.5 -147 q0 -79 24.5 -149.5 q24.5 -70.5 63.5 -123.5 q39 -53 87 -84 q48 -31 94 -31 q67 0 114.5 25.5 q47.5 25.5 78 72.5 q30.5 47 44.5 115 q14 68 14 152 ZM970 485 q0 -100 -37.5 -193 q-37.5 -93 -101.5 -164.5 q-64 -71.5 -148.5 -114.5 q-84.5 -43 -178.5 -43 q-98 0 -177 36 q-79 36 -135 99 q-56 63 -86.5 150 q-30.5 87 -30.5 189 q0 66 16.5 130 q16.5 64 46.5 121.5 q30 57.5 72.5 106 q42.5 48.5 94.5 83.5 q52 35 112 55 q60 20 126 20 q97 0 175.5 -36 q78.5 -36 134.5 -99.5 q56 -63.5 86.5 -150.5 q30.5 -87 30.5 -189 Z" /><glyph glyph-name="p" unicode="p" d="M865 426 q0 90 -20.5 163 q-20.5 73 -54 124.5 q-33.5 51.5 -77.5 79 q-44 27.5 -90 27.5 q-18 0 -43.5 -8.5 q-25.5 -8.5 -57.5 -30 q-32 -21.5 -70 -57.5 q-38 -36 -82 -91 l0 -415 q48 -33 86.5 -53.5 q38.5 -20.5 71 -32 q32.5 -11.5 60 -15.5 q27.5 -4 53.5 -4 q49 0 90 20 q41 20 71 60 q30 40 46.5 98 q16.5 58 16.5 135 ZM1030 495 q0 -61 -15.5 -123 q-15.5 -62 -43 -120.5 q-27.5 -58.5 -64.5 -110 q-37 -51.5 -79.5 -89.5 q-42.5 -38 -89 -60 q-46.5 -22 -92.5 -22 q-59 0 -129 30.5 q-70 30.5 -147 92.5 l0 -458 q0 -16 37.5 -32 q37.5 -16 131.5 -30 l0 -53 l-486 0 l0 53 q66 16 101.5 30.5 q35.5 14.5 35.5 31.5 l0 1069 q0 37 -3.5 61 q-3.5 24 -17.5 38.5 q-14 14.5 -41 21 q-27 6.5 -75 8.5 l0 50 q42 7 76.5 15 q34.5 8 65.5 17 q31 9 61 20 q30 11 62 25 l37 -37 l9 -173 q52 56 101.5 96 q49.5 40 94 65.5 q44.5 25.5 82 37 q37.5 11.5 66.5 11.5 q68 0 127 -30.5 q59 -30.5 102.5 -90 q43.5 -59.5 68 -146 q24.5 -86.5 24.5 -198.5 Z" /><glyph glyph-name="q" unicode="q" d="M500 120 q32 0 62.5 11.5 q30.5 11.5 60.5 31.5 q30 20 60 46 q30 26 60 55 l0 456 q-17 28 -41 51 q-24 23 -52.5 39 q-28.5 16 -61 24.5 q-32.5 8.5 -65.5 8.5 q-53 0 -101.5 -22 q-48.5 -22 -85.5 -66 q-37 -44 -59 -111.5 q-22 -67.5 -22 -158.5 q0 -85 23 -152.5 q23 -67.5 58.5 -115 q35.5 -47.5 79 -72.5 q43.5 -25 84.5 -25 ZM573 -480 l0 53 q94 14 132 29.5 q38 15.5 38 32.5 l0 522 q-40 -45 -78 -80 q-38 -35 -77 -59 q-39 -24 -81.5 -36 q-42.5 -12 -92.5 -12 q-57 0 -117 32.5 q-60 32.5 -109.5 93.5 q-49.5 61 -81 149 q-31.5 88 -31.5 199 q0 88 26 160.5 q26 72.5 64.5 128.5 q38.5 56 82.5 95 q44 39 79 60 q57 32 117.5 52 q60.5 20 106.5 20 q28 0 55 -3.5 q27 -3.5 55.5 -14 q28.5 -10.5 59 -30 q30.5 -19.5 65.5 -50.5 q18 10 37.5 23.5 q19.5 13.5 38 27 q18.5 13.5 34 26 q15.5 12.5 24.5 21.5 l34 -32 q-9 -30 -16 -64 q-6 -29 -10.5 -69 q-4.5 -40 -4.5 -85 l0 -1075 q0 -8 7 -16 q7 -8 23 -16 q16 -8 42 -15.5 q26 -7.5 64 -14.5 l0 -53 l-486 0 Z" /><glyph glyph-name="r" unicode="r" d="M805 921 q9 -6 7 -39.5 q-2 -33.5 -10.5 -77.5 q-8.5 -44 -21.5 -88.5 q-13 -44.5 -25 -71.5 l-53 0 q-11 81 -40 121 q-29 40 -71 40 q-21 0 -48.5 -15 q-27.5 -15 -57.5 -48.5 q-30 -33.5 -59.5 -87.5 q-29.5 -54 -55.5 -133 l0 -407 q0 -15 39 -31 q39 -16 133 -30 l0 -53 l-489 0 l0 53 q66 15 101.5 29.5 q35.5 14.5 35.5 31.5 l0 565 q0 33 -2 55.5 q-2 22.5 -5 36.5 q-3 14 -7.5 22 q-4.5 8 -8.5 13 q-7 7 -15 11.5 q-8 4.5 -21 7.5 q-13 3 -31.5 4.5 q-18.5 1.5 -46.5 3.5 l0 50 q40 8 75 16 q35 8 67 17 q32 9 62.5 19.5 q30.5 10.5 60.5 24.5 l37 -37 l13 -200 q27 50 59.5 93 q32.5 43 69 75 q36.5 32 77 50.5 q40.5 18.5 83.5 18.5 q35 0 73 -9 q38 -9 75 -30 Z" /><glyph glyph-name="s" unicode="s" d="M727 283 q0 -71 -20.5 -121.5 q-20.5 -50.5 -53 -85.5 q-32.5 -35 -73 -56 q-40.5 -21 -81 -32 q-40.5 -11 -76 -14.5 q-35.5 -3.5 -57.5 -3.5 q-27 0 -59 4.5 q-32 4.5 -66.5 13.5 q-34.5 9 -70.5 23 q-36 14 -69 32 q-7 3 -9.5 33.5 q-2.5 30.5 -2 71 q0.5 40.5 5.5 83.5 q5 43 13 70 l55 -11 q5 -46 26 -84.5 q21 -38.5 54 -67 q33 -28.5 76 -44.5 q43 -16 92 -16 q72 0 114 37.5 q42 37.5 42 104.5 q0 40 -21 71 q-21 31 -55.5 57 q-34.5 26 -78.5 49 q-44 23 -90 47 q-42 21 -82 45.5 q-40 24.5 -71.5 55 q-31.5 30.5 -50.5 68 q-19 37.5 -19 85.5 q0 62 27 111 q27 49 71 82.5 q44 33.5 101.5 51 q57.5 17.5 117.5 17.5 q35 0 74.5 -5.5 q39.5 -5.5 77 -15.5 q37.5 -10 70 -24 q32.5 -14 53.5 -32 q6 -5 2 -28.5 q-4 -23.5 -13.5 -52 q-9.5 -28.5 -21 -55 q-11.5 -26.5 -19.5 -36.5 l-49 8 q-40 77 -90.5 111.5 q-50.5 34.5 -104.5 34.5 q-32 0 -57.5 -10 q-25.5 -10 -43 -25.5 q-17.5 -15.5 -26.5 -35.5 q-9 -20 -9 -41 q0 -32 18 -57.5 q18 -25.5 48.5 -48 q30.5 -22.5 71 -43.5 q40.5 -21 85.5 -45 q43 -22 87 -47 q44 -25 79 -57.5 q35 -32.5 57 -74 q22 -41.5 22 -97.5 Z" /><glyph glyph-name="t" unicode="t" d="M696 130 q-110 -81 -201 -120.5 q-91 -39.5 -144 -39.5 q-37 0 -71 14.5 q-34 14.5 -59.5 45.5 q-25.5 31 -40.5 80 q-15 49 -15 119 l0 596 l-126 0 l-24 31 l78 74 l72 0 l0 234 l147 119 l33 -28 l0 -325 l320 0 l31 -31 q-9 -15 -22.5 -32 q-13.5 -17 -27.5 -32 q-14 -15 -27.5 -27 q-13.5 -12 -23.5 -18 q-24 12 -72.5 23.5 q-48.5 11.5 -120.5 11.5 l-57 0 l0 -508 q0 -57 6 -95 q6 -38 18 -61.5 q12 -23.5 31 -33 q19 -9.5 45 -9.5 q35 0 86 14.5 q51 14.5 131 55.5 l34 -58 Z" /><glyph glyph-name="u" unicode="u" d="M1094 92 q-37 -24 -74.5 -46 q-37.5 -22 -70.5 -39 q-33 -17 -58.5 -27 q-25.5 -10 -37.5 -10 q-18 0 -33 10 q-15 10 -27 32 q-12 22 -20.5 57.5 q-8.5 35.5 -12.5 86.5 q-62 -60 -113 -96.5 q-51 -36.5 -93.5 -56.5 q-42.5 -20 -78 -26.5 q-35.5 -6.5 -67.5 -6.5 q-47 0 -90.5 13 q-43.5 13 -77.5 47.5 q-34 34.5 -54.5 94.5 q-20.5 60 -20.5 154 l0 425 q0 48 -2.5 74.5 q-2.5 26.5 -14.5 40 q-12 13.5 -37.5 18.5 q-25.5 5 -71.5 10 l0 50 q40 4 75 9.5 q35 5.5 67.5 13 q32.5 7.5 65 17.5 q32.5 10 68.5 23 l30 -41 l0 -582 q0 -68 9.5 -112 q9.5 -44 27.5 -70 q18 -26 44.5 -36.5 q26.5 -10.5 59.5 -10.5 q28 0 58.5 8 q30.5 8 64 26 q33.5 18 71 47.5 q37.5 29.5 80.5 72.5 l0 442 q0 45 -4 72 q-4 27 -18.5 42 q-14.5 15 -41.5 21 q-27 6 -73 8 l0 50 q81 9 152 26.5 q71 17.5 133 36.5 l32 -41 l0 -655 q0 -62 4.5 -96 q4.5 -34 18.5 -44 q12 -8 38.5 -3.5 q26.5 4.5 77.5 26.5 l15 -55 Z" /><glyph glyph-name="v" unicode="v" d="M1002 877 q-30 -7 -48.5 -13 q-18.5 -6 -30 -13.5 q-11.5 -7.5 -17.5 -17 q-6 -9.5 -12 -24.5 l-283 -742 q-9 -22 -26.5 -38.5 q-17.5 -16.5 -38.5 -28.5 q-21 -12 -43 -19 q-22 -7 -39 -11 l-338 839 q-10 28 -34 42.5 q-24 14.5 -74 25.5 l0 53 l408 0 l0 -53 q-39 -5 -63 -10 q-24 -5 -36 -12.5 q-12 -7.5 -13.5 -18.5 q-1.5 -11 4.5 -27 l236 -595 l221 595 q6 15 5 25.5 q-1 10.5 -11.5 18 q-10.5 7.5 -32 13 q-21.5 5.5 -57.5 11.5 l0 53 l323 0 l0 -53 Z" /><glyph glyph-name="w" unicode="w" d="M1435 877 q-30 -7 -48 -13.5 q-18 -6.5 -28.5 -13 q-10.5 -6.5 -15.5 -15 q-5 -8.5 -8 -20.5 l-221 -756 q-6 -22 -24 -37.5 q-18 -15.5 -39 -26 q-21 -10.5 -42 -16.5 q-21 -6 -34 -9 l-244 646 l-204 -557 q-8 -23 -25 -38.5 q-17 -15.5 -37.5 -26 q-20.5 -10.5 -40.5 -16 q-20 -5.5 -33 -8.5 l-264 845 q-11 40 -109 62 l0 53 l408 0 l0 -53 q-47 -5 -73 -11.5 q-26 -6.5 -37.5 -15 q-11.5 -8.5 -12 -17.5 q-0.5 -9 2.5 -18 l175 -581 l244 696 l72 0 l257 -696 l163 581 q7 23 -15.5 37 q-22.5 14 -91.5 25 l0 53 l325 0 l0 -53 Z" /><glyph glyph-name="x" unicode="x" d="M597 0 l0 53 q25 2 46.5 6 q21.5 4 33.5 13 q12 9 11.5 25 q-0.5 16 -20.5 43 l-180 246 l-179 -246 q-20 -27 -17 -43 q3 -16 19 -25 q16 -9 40 -13 q24 -4 48 -6 l0 -53 l-381 0 l0 53 q39 6 66 15.5 q27 9.5 46.5 21.5 q19.5 12 33 26.5 q13.5 14.5 24.5 29.5 l239 324 l-231 318 q-13 18 -26 33.5 q-13 15.5 -31 26.5 q-18 11 -44.5 18.5 q-26.5 7.5 -65.5 10.5 l0 53 l445 0 l0 -53 q-31 -3 -52.5 -8 q-21.5 -5 -31.5 -14.5 q-10 -9.5 -7.5 -25 q2.5 -15.5 20.5 -39.5 l144 -199 l144 199 q18 24 21 39.5 q3 15.5 -6 25 q-9 9.5 -30 14.5 q-21 5 -52 8 l0 53 l381 0 l0 -53 q-41 -3 -70.5 -10.5 q-29.5 -7.5 -52 -18.5 q-22.5 -11 -39 -26.5 q-16.5 -15.5 -29.5 -33.5 l-206 -281 l263 -361 q12 -15 25.5 -29.5 q13.5 -14.5 32 -27 q18.5 -12.5 43 -22.5 q24.5 -10 57.5 -14 l0 -53 l-432 0 Z" /><glyph glyph-name="y" unicode="y" d="M1002 877 q-30 -7 -49 -13 q-19 -6 -31 -13.5 q-12 -7.5 -18.5 -17 q-6.5 -9.5 -11.5 -24.5 l-334 -889 q-42 -110 -93.5 -189 q-51.5 -79 -107 -130 q-55.5 -51 -113 -75 q-57.5 -24 -112.5 -24 q-38 0 -71.5 5.5 q-33.5 5.5 -58.5 14 q-25 8.5 -39.5 19 q-14.5 10.5 -14.5 19.5 q0 7 14 27.5 q14 20.5 33.5 44.5 q19.5 24 41.5 46 q22 22 38 32 q48 -29 97 -33 q49 -4 86 10 q18 6 40.5 25.5 q22.5 19.5 46 48.5 q23.5 29 45.5 66.5 q22 37.5 40 80.5 l29 69 l-330 832 q-10 28 -35.5 42.5 q-25.5 14.5 -75.5 25.5 l0 53 l408 0 l0 -53 q-39 -5 -62.5 -10 q-23.5 -5 -35.5 -12.5 q-12 -7.5 -13 -18.5 q-1 -11 6 -27 l232 -592 l220 592 q5 15 3.5 25.5 q-1.5 10.5 -13 18 q-11.5 7.5 -34.5 13 q-23 5.5 -59 11.5 l0 53 l332 0 l0 -53 Z" /><glyph glyph-name="z" unicode="z" d="M847 276 q0 -32 -1 -72 q-1 -40 -2.5 -79.5 q-1.5 -39.5 -3.5 -73 q-2 -33.5 -5 -51.5 l-738 0 l-26 45 l546 785 l-317 0 q-18 0 -36 -8 q-18 -8 -34.5 -27.5 q-16.5 -19.5 -31 -52.5 q-14.5 -33 -25.5 -82 l-56 15 l20 271 q22 -6 40 -9.5 q18 -3.5 37.5 -5 q19.5 -1.5 42.5 -1.5 l571 0 l22 -43 l-549 -787 l396 0 q29 0 50 45.5 q21 45.5 45 142.5 l55 -12 Z" /><glyph glyph-name="braceleft" unicode="{" d="M664 1543 q-39 -24 -72.5 -54 q-33.5 -30 -57.5 -66 q-24 -36 -38 -77.5 q-14 -41.5 -14 -88.5 q0 -38 3 -66.5 q3 -28.5 7.5 -53.5 q4.5 -25 10 -47 q5.5 -22 10 -47 q4.5 -25 7.5 -54 q3 -29 3 -66 q0 -42 -13 -82.5 q-13 -40.5 -37.5 -76 q-24.5 -35.5 -58.5 -64.5 q-34 -29 -76 -47 q100 -18 142.5 -88 q42.5 -70 42.5 -180 q0 -58 -6.5 -101.5 q-6.5 -43.5 -14 -82 q-7.5 -38.5 -14 -77 q-6.5 -38.5 -6.5 -86.5 q0 -51 7 -90 q7 -39 26 -72 q19 -33 52.5 -62 q33.5 -29 86.5 -58 l-28 -71 q-87 34 -151 70.5 q-64 36.5 -106 81.5 q-42 45 -62.5 101.5 q-20.5 56.5 -20.5 128.5 q0 57 6.5 97 q6.5 40 14 77 q7.5 37 14 79 q6.5 42 6.5 102 q0 81 -38.5 120 q-38.5 39 -109.5 39 l-21 0 q-6 0 -11 -0.5 q-5 -0.5 -11.5 -2 q-6.5 -1.5 -21.5 -3.5 l-17 63 q115 31 172.5 90.5 q57.5 59.5 57.5 134.5 q0 39 -3 68.5 q-3 29.5 -7.5 53.5 q-4.5 24 -10 45.5 q-5.5 21.5 -10 46 q-4.5 24.5 -7.5 54 q-3 29.5 -3 69.5 q0 67 25 125.5 q25 58.5 71 108 q46 49.5 109.5 91 q63.5 41.5 141.5 75.5 l31 -57 Z" /><glyph glyph-name="bar" unicode="|" d="M325 -351 q-9 -8 -23 -16 q-14 -8 -29.5 -15 q-15.5 -7 -31.5 -13 q-16 -6 -28 -10 l-38 25 l0 1999 q28 17 55.5 30 q27.5 13 56.5 21 l38 -24 l0 -1997 Z" /><glyph glyph-name="braceright" unicode="}" d="M603 646 q-117 -31 -174 -89.5 q-57 -58.5 -57 -134.5 q0 -39 3 -68 q3 -29 7.5 -53.5 q4.5 -24.5 9.5 -46 q5 -21.5 9.5 -45.5 q4.5 -24 7.5 -53.5 q3 -29.5 3 -69.5 q0 -68 -25 -126 q-25 -58 -70.5 -108 q-45.5 -50 -109.5 -91.5 q-64 -41.5 -141 -75.5 l-32 58 q39 24 72.5 54 q33.5 30 57.5 66 q24 36 38 77.5 q14 41.5 14 88.5 q0 56 -6.5 94 q-6.5 38 -14 72.5 q-7.5 34.5 -13.5 73 q-6 38.5 -6 95.5 q0 41 13 81 q13 40 37 75.5 q24 35.5 58.5 64 q34.5 28.5 77.5 46.5 q-101 19 -143.5 89 q-42.5 70 -42.5 181 q0 58 6 101.5 q6 43.5 13.5 82 q7.5 38.5 14 76.5 q6.5 38 6.5 86 q0 51 -7 91 q-7 40 -26.5 72.5 q-19.5 32.5 -53 61 q-33.5 28.5 -85.5 57.5 l28 71 q87 -33 151 -70 q64 -37 106 -82 q42 -45 62.5 -101 q20.5 -56 20.5 -128 q0 -57 -6.5 -97 q-6.5 -40 -14 -77.5 q-7.5 -37.5 -13.5 -79 q-6 -41.5 -6 -101.5 q0 -81 38.5 -120 q38.5 -39 110.5 -39 l30 0 q5 0 12 1 l23 5 l17 -65 Z" /><glyph glyph-name="asciitilde" unicode="~" d="M950 774 q-21 -49 -53 -101.5 q-32 -52.5 -71.5 -96 q-39.5 -43.5 -85 -71.5 q-45.5 -28 -93.5 -28 q-42 0 -89 25 q-47 25 -95.5 55 q-48.5 30 -96 55 q-47.5 25 -90.5 25 q-49 0 -90.5 -39 q-41.5 -39 -83.5 -123 l-53 27 q21 49 53.5 101.5 q32.5 52.5 72 96 q39.5 43.5 84.5 71.5 q45 28 93 28 q46 0 94.5 -25 q48.5 -25 96 -55 q47.5 -30 93 -55 q45.5 -25 85.5 -25 q48 0 91 39 q43 39 85 121 l53 -25 Z" /><glyph glyph-name="nonbreakingspace" unicode="" d="" /><glyph glyph-name="exclamdown" unicode="" d="M399 -472 q-20 -12 -44.5 -25.5 q-24.5 -13.5 -49.5 -26.5 q-25 -13 -48.5 -23.5 q-23.5 -10.5 -41.5 -16.5 l-45 25 l57 1062 q20 15 40 23 q20 8 46 16 l27 -19 l59 -1015 ZM419 841 q0 -36 -12.5 -66.5 q-12.5 -30.5 -33.5 -53 q-21 -22.5 -48.5 -35 q-27.5 -12.5 -58.5 -12.5 q-53 0 -83.5 30.5 q-30.5 30.5 -30.5 91.5 q0 36 11.5 66.5 q11.5 30.5 32 52 q20.5 21.5 48.5 34 q28 12.5 61 12.5 q54 0 84 -30 q30 -30 30 -90 Z" /><glyph glyph-name="cent" unicode="" d="M274 616 q0 -69 16 -125 q16 -56 44 -98 q28 -42 66 -70 q38 -28 83 -42 l0 677 q-42 -9 -80 -33.5 q-38 -24.5 -66.5 -66.5 q-28.5 -42 -45.5 -102 q-17 -60 -17 -140 ZM583 -3 q-18 -16 -33.5 -23 q-15.5 -7 -39.5 -15 l-27 27 l0 143 q-70 4 -139 35 q-69 31 -123.5 89 q-54.5 58 -88 141.5 q-33.5 83.5 -33.5 191.5 q0 88 28 166 q28 78 79 140 q51 62 121.5 105.5 q70.5 43.5 155.5 64.5 l0 147 q14 9 21 14 q7 5 13 9 q6 4 14 6.5 q8 2.5 23 6.5 l29 -24 l0 -144 q11 1 22 1.5 q11 0.5 22 0.5 q33 0 70.5 -5.5 q37.5 -5.5 72.5 -16 q35 -10.5 64 -25 q29 -14.5 46 -33.5 q2 -11 -4 -35.5 q-6 -24.5 -16.5 -52 q-10.5 -27.5 -22.5 -52.5 q-12 -25 -21 -38 l-45 12 q-8 15 -23.5 35 q-15.5 20 -38.5 38.5 q-23 18.5 -54.5 33.5 q-31.5 15 -71.5 21 l0 -694 q28 0 53 4.5 q25 4.5 54.5 18.5 q29.5 14 66.5 41 q37 27 88 73 l47 -51 q-51 -59 -93 -99 q-42 -40 -78.5 -65 q-36.5 -25 -70 -37.5 q-33.5 -12.5 -67.5 -17.5 l0 -137 Z" /><glyph glyph-name="sterling" unicode="" d="M650 531 l-250 0 q5 -131 -26.5 -237 q-31.5 -106 -85.5 -180 q45 4 79.5 5 q34.5 1 62 0.5 q27.5 -0.5 51.5 -1.5 q24 -1 49 -2.5 q25 -1.5 53.5 -2 q28.5 -0.5 65.5 0.5 q46 1 79 7 q33 6 58.5 24.5 q25.5 18.5 46.5 53 q21 34.5 42 93.5 l53 -20 q-4 -43 -9.5 -85.5 q-5.5 -42.5 -12 -79 q-6.5 -36.5 -12 -64.5 q-5.5 -28 -9.5 -43 q-45 -25 -108 -28 q-63 -3 -135 4 q-72 7 -149.5 18.5 q-77.5 11.5 -151.5 16.5 q-74 5 -139.5 -2.5 q-65.5 -7.5 -114.5 -38.5 l-28 57 q30 25 54 47 q24 22 41 48 q17 26 28 59 q11 33 16 80.5 q5 47.5 4 113.5 q-1 66 -7 156 l-114 0 l-24 28 q5 15 13 36 q8 21 14 37 l105 0 q-5 138 20 249.5 q25 111.5 80 190 q55 78.5 139.5 121 q84.5 42.5 198.5 42.5 q26 0 53 -2 q27 -2 58.5 -9.5 q31.5 -7.5 68.5 -21 q37 -13.5 84 -37.5 q-1 -26 -5 -66 q-4 -40 -9.5 -81.5 q-5.5 -41.5 -12 -78.5 q-6.5 -37 -12.5 -56 l-57 0 q-14 125 -72 185.5 q-58 60.5 -155 60.5 q-25 0 -50.5 -5 q-25.5 -5 -49 -22 q-23.5 -17 -43 -49.5 q-19.5 -32.5 -30.5 -87.5 q-11 -55 -13 -136.5 q-2 -81.5 10 -196.5 l261 0 l27 -25 l-30 -76 Z" /><glyph glyph-name="currency" unicode="" d="M364 733 q-27 -27 -41 -62 q-14 -35 -14 -70 q0 -35 13.5 -68.5 q13.5 -33.5 40.5 -60.5 q28 -28 62 -41.5 q34 -13.5 70 -13.5 q35 0 69 13.5 q34 13.5 61 40.5 q26 28 40 62 q14 34 14 69 q0 35 -14 69.5 q-14 34.5 -41 61.5 q-27 27 -60.5 40.5 q-33.5 13.5 -68.5 13.5 q-36 0 -70 -13.5 q-34 -13.5 -61 -40.5 ZM776 248 l-116 115 q-37 -26 -79 -38 q-42 -12 -86 -12 q-45 0 -87.5 12.5 q-42.5 12.5 -80.5 38.5 l-118 -117 l-36 2 q-8 15 -17.5 33 q-9.5 18 -16.5 35 l117 118 q-26 37 -38.5 78.5 q-12.5 41.5 -12.5 86.5 q0 45 13 87.5 q13 42.5 39 80.5 l-117 118 l2 36 q15 8 33 17 q18 9 35 17 l117 -118 q78 55 168 55 q88 0 165 -54 l116 116 l37 1 l33 -72 l-116 -116 q54 -77 54 -168 q0 -90 -53 -166 l116 -116 l1 -37 l-72 -33 Z" /><glyph glyph-name="yen" unicode="" d="M234 0 l0 53 q45 9 76 19 q31 10 50 19.5 q19 9.5 27 18 q8 8.5 8 15.5 l0 295 l-277 0 l-22 25 l12 37 q8 23 14 39 l273 0 l0 42 q-35 75 -73.5 149 q-38.5 74 -77.5 142.5 q-39 68.5 -77.5 127.5 q-38.5 59 -72.5 103 q-9 11 -20 21 q-11 10 -28.5 17 q-17.5 7 -44.5 11 q-27 4 -69 4 l-4 53 q29 4 62 8 q33 4 65 7.5 q32 3.5 60.5 5.5 q28.5 2 49.5 2 q23 0 46 -10.5 q23 -10.5 39 -30.5 q37 -49 71.5 -100.5 q34.5 -51.5 67.5 -108 q33 -56.5 65.5 -119.5 q32.5 -63 67.5 -135 l207 375 q15 26 -9.5 41 q-24.5 15 -101.5 25 l0 53 l403 0 l0 -53 q-68 -13 -103.5 -26.5 q-35.5 -13.5 -49.5 -39.5 l-283 -524 l0 -40 l270 0 l25 -23 l-29 -78 l-266 0 l0 -295 q0 -6 8 -14.5 q8 -8.5 27 -18.5 q19 -10 50.5 -20 q31.5 -10 78.5 -19 l0 -53 l-515 0 Z" /><glyph glyph-name="brokenbar" unicode="" d="M331 -352 q-10 -8 -26 -16 q-16 -8 -33 -15 q-17 -7 -34 -13 q-17 -6 -29 -10 l-40 25 l0 868 q29 17 60.5 30.5 q31.5 13.5 62.5 23.5 l39 -27 l0 -866 ZM331 770 q-10 -8 -26 -16 q-16 -8 -33 -15 q-17 -7 -34 -13 q-17 -6 -29 -10 l-40 25 l0 878 q29 17 60.5 30 q31.5 13 62.5 21 l39 -24 l0 -876 Z" /><glyph glyph-name="section" unicode="" d="M554 539 q25 -13 51 -26.5 q26 -13.5 52 -28.5 q25 21 39 50.5 q14 29.5 14 62.5 q0 48 -18 85.5 q-18 37.5 -54.5 72 q-36.5 34.5 -92.5 69 q-56 34.5 -132 75.5 q-21 11 -41 23 q-20 12 -40 26 q-14 -10 -25 -25 q-11 -15 -18.5 -32 q-7.5 -17 -11.5 -34.5 q-4 -17.5 -4 -32.5 q0 -45 16.5 -79.5 q16.5 -34.5 51 -66.5 q34.5 -32 87.5 -65 q53 -33 126 -74 ZM868 660 q0 -44 -9 -81.5 q-9 -37.5 -25 -69 q-16 -31.5 -36.5 -57 q-20.5 -25.5 -43.5 -44.5 q25 -28 40 -62 q15 -34 15 -78 q0 -71 -20.5 -120.5 q-20.5 -49.5 -53 -82.5 q-32.5 -33 -73 -52 q-40.5 -19 -81 -28.5 q-40.5 -9.5 -76 -12 q-35.5 -2.5 -58.5 -2.5 q-26 0 -58.5 6 q-32.5 6 -67 16.5 q-34.5 10.5 -70.5 25.5 q-36 15 -69 33 q-7 3 -9.5 33.5 q-2.5 30.5 -1.5 71 q1 40.5 5.5 83 q4.5 42.5 12.5 69.5 l56 -11 q5 -46 26 -86 q21 -40 54 -70 q33 -30 75.5 -47.5 q42.5 -17.5 91.5 -17.5 q72 0 114.5 31 q42.5 31 42.5 98 q0 40 -22.5 69.5 q-22.5 29.5 -58.5 54 q-36 24.5 -81.5 46.5 q-45.5 22 -90.5 47 q-60 33 -112 67.5 q-52 34.5 -89.5 76.5 q-37.5 42 -59 93.5 q-21.5 51.5 -21.5 116.5 q0 37 11.5 71.5 q11.5 34.5 31 65.5 q19.5 31 45 56.5 q25.5 25.5 54.5 43.5 q-35 38 -55.5 82 q-20.5 44 -20.5 98 q0 62 27 108.5 q27 46.5 71 77 q44 30.5 101.5 46 q57.5 15.5 117.5 15.5 q35 0 74.5 -6.5 q39.5 -6.5 77 -18 q37.5 -11.5 70.5 -26.5 q33 -15 54 -33 q6 -6 1.5 -29.5 q-4.5 -23.5 -14 -52 q-9.5 -28.5 -21 -54.5 q-11.5 -26 -19.5 -37 l-49 8 q-40 78 -90 116 q-50 38 -105 38 q-64 0 -100 -27.5 q-36 -27.5 -36 -77.5 q0 -34 15.5 -61.5 q15.5 -27.5 45 -53 q29.5 -25.5 72.5 -51.5 q43 -26 98 -57 q61 -35 115 -68 q54 -33 94.5 -73.5 q40.5 -40.5 64 -92.5 q23.5 -52 23.5 -123 Z" /><glyph glyph-name="dieresis" unicode="" d="M716 1263 q0 -31 -10 -58 q-10 -27 -27.5 -47.5 q-17.5 -20.5 -41 -32.5 q-23.5 -12 -50.5 -12 q-49 0 -72.5 27 q-23.5 27 -23.5 78 q0 31 10.5 58 q10.5 27 28 47.5 q17.5 20.5 41 32 q23.5 11.5 49.5 11.5 q96 0 96 -104 ZM309 1263 q0 -31 -10 -58 q-10 -27 -27.5 -47.5 q-17.5 -20.5 -41.5 -32.5 q-24 -12 -51 -12 q-49 0 -72 27 q-23 27 -23 78 q0 31 10.5 58 q10.5 27 28 47.5 q17.5 20.5 41 32 q23.5 11.5 49.5 11.5 q47 0 71.5 -26 q24.5 -26 24.5 -78 Z" /><glyph glyph-name="copyright" unicode="" d="M1035 383 q-48 -48 -90 -79 q-42 -31 -81.5 -49 q-39.5 -18 -76.5 -25 q-37 -7 -74 -7 q-66 0 -130 27 q-64 27 -113.5 77 q-49.5 50 -80 122.5 q-30.5 72.5 -30.5 164.5 q0 98 34 180 q34 82 93 141 q59 59 138.5 92 q79.5 33 170.5 33 q72 0 132 -20 q60 -20 95 -47 q3 -5 -3.5 -23.5 q-6.5 -18.5 -17.5 -41 q-11 -22.5 -23.5 -43 q-12.5 -20.5 -21.5 -28.5 l-34 5 q-15 21 -33 40.5 q-18 19.5 -39.5 34.5 q-21.5 15 -48 24.5 q-26.5 9.5 -58.5 9.5 q-35 0 -75.5 -16.5 q-40.5 -16.5 -75 -55 q-34.5 -38.5 -57 -102 q-22.5 -63.5 -22.5 -156.5 q0 -76 27 -134.5 q27 -58.5 68 -98.5 q41 -40 89 -60.5 q48 -20.5 91 -20.5 q22 0 43.5 3.5 q21.5 3.5 46 14 q24.5 10.5 54.5 28.5 q30 18 70 47 q3 -1 7.5 -6.5 q4.5 -5.5 9.5 -12 q5 -6.5 9.5 -12 q4.5 -5.5 6.5 -6.5 ZM1280 643 q0 118 -40.5 222.5 q-40.5 104.5 -113 182.5 q-72.5 78 -172.5 123 q-100 45 -219 45 q-118 0 -217.5 -45 q-99.5 -45 -172 -123 q-72.5 -78 -113 -182.5 q-40.5 -104.5 -40.5 -222.5 q0 -119 40.5 -224 q40.5 -105 113 -183 q72.5 -78 172 -123 q99.5 -45 217.5 -45 q119 0 219 45 q100 45 172.5 123 q72.5 78 113 183 q40.5 105 40.5 224 ZM1377 643 q0 -93 -22 -179 q-22 -86 -62 -161 q-40 -75 -97.5 -136 q-57.5 -61 -129 -105 q-71.5 -44 -155 -68 q-83.5 -24 -176.5 -24 q-93 0 -176 24 q-83 24 -154 68 q-71 44 -128.5 105 q-57.5 61 -98 136 q-40.5 75 -62 161 q-21.5 86 -21.5 179 q0 139 48 261 q48 122 133.5 213 q85.5 91 202.5 143.5 q117 52.5 256 52.5 q139 0 257 -52.5 q118 -52.5 203.5 -143.5 q85.5 -91 133.5 -213 q48 -122 48 -261 Z" /><glyph glyph-name="ordfeminine" unicode="" d="M526 779 q-46 -31 -81 -47 q-35 -16 -56 -16 q-14 0 -28 19 q-14 19 -20 65 q-49 -47 -95 -65.5 q-46 -18.5 -81 -18.5 q-20 0 -41 6 q-21 6 -38 19.5 q-17 13.5 -28 35 q-11 21.5 -11 53.5 q0 31 11.5 59 q11.5 28 35 52.5 q23.5 24.5 60.5 43.5 q37 19 88 32 l96 23 l0 16 q0 31 -3 54.5 q-3 23.5 -11.5 39.5 q-8.5 16 -24 24.5 q-15.5 8.5 -41.5 8.5 q-15 0 -30 -6 q-15 -6 -26.5 -17.5 q-11.5 -11.5 -16 -27.5 q-4.5 -16 1.5 -36 q1 -5 -14 -11 q-15 -6 -35.5 -11 q-20.5 -5 -40 -8.5 q-19.5 -3.5 -26.5 -1.5 l-9 22 q7 32 34.5 61 q27.5 29 64 50.5 q36.5 21.5 76 34 q39.5 12.5 70.5 12.5 q36 0 61.5 -9.5 q25.5 -9.5 42 -31.5 q16.5 -22 24.5 -58.5 q8 -36.5 8 -91.5 l0 -196 q0 -28 4 -40.5 q4 -12.5 10 -19.5 q5 -3 19 -1 q14 2 42 13 l8 -30 ZM49 586 l0 78 l449 0 l0 -78 l-449 0 ZM338 850 l0 145 l-46 -11 q-75 -20 -104.5 -51.5 q-29.5 -31.5 -29.5 -74.5 q0 -20 5 -32.5 q5 -12.5 12.5 -19.5 q7.5 -7 16.5 -10 q9 -3 16 -3 q28 0 60 13 q32 13 70 44 Z" /><glyph glyph-name="guillemotleft" unicode="" d="M75 430 l0 35 q0 14 0.5 25 q0.5 11 1.5 13 l372 415 l47 -35 l-10 -18 q-9 -18 -24.5 -47.5 q-15.5 -29.5 -35.5 -67 q-20 -37.5 -41 -76.5 q-21 -39 -40.5 -76.5 q-19.5 -37.5 -35 -66.5 q-15.5 -29 -25 -46.5 q-9.5 -17.5 -8.5 -17.5 l221 -420 l-48 -35 l-374 418 ZM458 430 l0 35 q0 14 0.5 25 q0.5 11 1.5 13 l371 415 l47 -35 l-10 -18 q-9 -18 -24.5 -47.5 q-15.5 -29.5 -35.5 -67 q-20 -37.5 -41 -76.5 q-21 -39 -40.5 -76.5 q-19.5 -37.5 -35 -66.5 q-15.5 -29 -25 -46.5 q-9.5 -17.5 -8.5 -17.5 l221 -420 l-48 -35 l-373 418 Z" /><glyph glyph-name="logicalnot" unicode="" d="M911 233 q-20 -15 -45.5 -31.5 q-25.5 -16.5 -50.5 -24.5 l-27 28 l0 296 l-695 0 l-27 27 q3 10 7 22.5 q4 12.5 9 25.5 q5 13 10 25 q5 12 10 22 l778 0 l31 -24 l0 -366 Z" /><glyph glyph-name="registered" unicode="" d="M701 1084 q0 -72 -25 -136 q-25 -64 -70 -112 q-45 -48 -107 -75.5 q-62 -27.5 -135 -27.5 q-72 0 -133.5 27.5 q-61.5 27.5 -106 75.5 q-44.5 48 -69.5 112 q-25 64 -25 136 q0 73 25 137 q25 64 69.5 111.5 q44.5 47.5 106 75 q61.5 27.5 133.5 27.5 q73 0 135 -27.5 q62 -27.5 107 -75 q45 -47.5 70 -111.5 q25 -64 25 -137 ZM637 1084 q0 59 -20.5 111.5 q-20.5 52.5 -56.5 91.5 q-36 39 -86 61.5 q-50 22.5 -110 22.5 q-59 0 -108.5 -22.5 q-49.5 -22.5 -85.5 -61.5 q-36 -39 -56.5 -91.5 q-20.5 -52.5 -20.5 -111.5 q0 -60 20.5 -112 q20.5 -52 56.5 -91 q36 -39 85.5 -61.5 q49.5 -22.5 108.5 -22.5 q60 0 110 22.5 q50 22.5 86 61.5 q36 39 56.5 91 q20.5 52 20.5 112 ZM212 886 l0 20 q42 9 42 18 l0 325 q-11 -1 -21 -2 q-10 -1 -21 -3 l-2 31 q29 7 63 12 q34 5 76 5 q79 0 117 -27.5 q38 -27.5 38 -68.5 q0 -47 -27 -77 q-27 -30 -72 -43 l100 -140 q7 -11 17.5 -14.5 q10.5 -3.5 32.5 -1.5 l2 -21 q-20 -6 -44 -12 q-24 -6 -35 -6 q-9 0 -17.5 5.5 q-8.5 5.5 -12.5 11.5 l-100 171 l-4 0 q-14 0 -29 3 l0 -148 q0 -4 9 -8.5 q9 -4.5 32 -9.5 l0 -20 l-144 0 ZM338 1256 l-12 0 q-5 0 -11 -1 l0 -145 q7 -2 12 -2 l13 0 q51 0 73.5 20.5 q22.5 20.5 22.5 58.5 q0 29 -22 49 q-22 20 -76 20 Z" /><glyph glyph-name="macron" unicode="" d="M872 1290 q-2 -11 -8 -27 q-6 -16 -12.5 -32.5 q-6.5 -16.5 -13 -31.5 q-6.5 -15 -10.5 -24 l-665 0 l-25 27 q2 11 8 26.5 q6 15.5 12.5 31.5 q6.5 16 13.5 31 q7 15 12 25 l663 0 l25 -26 Z" /><glyph glyph-name="degree" unicode="" d="M478 995 q0 28 -7 53 q-7 25 -20 44.5 q-13 19.5 -31.5 31 q-18.5 11.5 -41.5 11.5 q-24 0 -46 -9.5 q-22 -9.5 -39 -27.5 q-17 -18 -27 -43.5 q-10 -25.5 -10 -56.5 q0 -27 7 -52 q7 -25 19.5 -44.5 q12.5 -19.5 31 -31.5 q18.5 -12 42.5 -12 q23 0 45 9 q22 9 39 26.5 q17 17.5 27.5 43 q10.5 25.5 10.5 58.5 ZM602 1047 q0 -64 -25 -118.5 q-25 -54.5 -64.5 -94 q-39.5 -39.5 -88 -62 q-48.5 -22.5 -96.5 -22.5 q-43 0 -79 15.5 q-36 15.5 -62 42.5 q-26 27 -40.5 62.5 q-14.5 35.5 -14.5 75.5 q0 65 24.5 119.5 q24.5 54.5 63.5 94.5 q39 40 88 62 q49 22 98 22 q40 0 75.5 -16 q35.5 -16 62.5 -43 q27 -27 42.5 -62.5 q15.5 -35.5 15.5 -75.5 Z" /><glyph glyph-name="plusminus" unicode="" d="M789 219 q-3 -11 -7.5 -24 q-4.5 -13 -9.5 -26 q-5 -13 -10 -25 q-5 -12 -9 -20 l-667 0 l-28 26 q5 21 16 48 q11 27 20 47 l668 0 l27 -26 ZM487 362 q-20 -10 -48 -19 q-28 -9 -50 -14 l-27 24 l0 279 l-276 0 l-28 26 q5 21 16 48 q11 27 20 47 l268 0 l0 272 q19 6 47.5 16 q28.5 10 50.5 15 l27 -26 l0 -277 l275 0 l27 -27 q-3 -10 -7.5 -23 q-4.5 -13 -9.5 -26 q-5 -13 -10 -25 q-5 -12 -9 -20 l-266 0 l0 -270 Z" /><glyph glyph-name="twosuperior" unicode="" d="M604 620 l-526 0 l-20 44 q83 83 144.5 146.5 q61.5 63.5 105.5 113 q44 49.5 72 86.5 q28 37 44.5 66 q16.5 29 23 52.5 q6.5 23.5 6.5 45.5 q0 54 -26.5 85.5 q-26.5 31.5 -91.5 31.5 q-26 0 -46.5 -9.5 q-20.5 -9.5 -34.5 -25.5 q-14 -16 -21 -36.5 q-7 -20.5 -5 -42.5 q-12 -6 -28 -11 q-16 -5 -34 -9 q-18 -4 -36 -7.5 q-18 -3.5 -34 -4.5 l-20 26 q0 31 25 64.5 q25 33.5 67.5 61.5 q42.5 28 98 46 q55.5 18 116.5 18 q49 0 89.5 -10 q40.5 -10 69.5 -30.5 q29 -20.5 45 -51 q16 -30.5 16 -72.5 q0 -40 -18 -80.5 q-18 -40.5 -61.5 -94 q-43.5 -53.5 -116 -127.5 q-72.5 -74 -181.5 -181 l266 0 q23 0 37 15.5 q14 15.5 22 35.5 q9 23 12 52 l50 -9 l-10 -188 Z" /><glyph glyph-name="threesuperior" unicode="" d="M606 849 q0 -51 -21.5 -95.5 q-21.5 -44.5 -60.5 -78.5 q-39 -34 -95 -53.5 q-56 -19.5 -125 -19.5 q-61 0 -130 24 q-69 24 -132 76 l25 52 q64 -41 114 -56.5 q50 -15.5 103 -15.5 q75 0 121.5 38 q46.5 38 46.5 112 q0 43 -14.5 72.5 q-14.5 29.5 -37.5 46.5 q-23 17 -51 24.5 q-28 7.5 -55 7.5 l-15 0 q-5 0 -9.5 -0.5 q-4.5 -0.5 -10 -1.5 q-5.5 -1 -16.5 -2 l-10 52 q61 15 96.5 33.5 q35.5 18.5 54 39 q18.5 20.5 23.5 41.5 q5 21 5 39 q0 21 -5.5 40 q-5.5 19 -18.5 34 q-13 15 -33 24 q-20 9 -48 9 q-24 0 -42.5 -7 q-18.5 -7 -30.5 -19 q-12 -12 -16.5 -29 q-4.5 -17 0.5 -37 q-26 -12 -62.5 -20 q-36.5 -8 -69.5 -10 l-20 25 q0 25 22 54.5 q22 29.5 60.5 54.5 q38.5 25 89.5 41.5 q51 16.5 109 16.5 q57 0 98.5 -14.5 q41.5 -14.5 68 -38 q26.5 -23.5 39 -53.5 q12.5 -30 12.5 -60 q0 -23 -10 -46 q-10 -23 -29 -44 q-19 -21 -45.5 -38.5 q-26.5 -17.5 -60.5 -27.5 q41 -4 75 -20.5 q34 -16.5 59 -42 q25 -25.5 38.5 -58.5 q13.5 -33 13.5 -69 Z" /><glyph glyph-name="acute" unicode="" d="M279 1045 q-18 3 -36.5 13.5 q-18.5 10.5 -30.5 19.5 l227 419 q12 -1 36 -4 q24 -3 50.5 -7.5 q26.5 -4.5 50.5 -9 q24 -4.5 35 -7.5 l26 -44 l-358 -380 Z" /><glyph glyph-name="mu" unicode="" d="M1110 87 q-30 -20 -64 -40.5 q-34 -20.5 -67 -38 q-33 -17.5 -62 -28.5 q-29 -11 -49 -11 q-23 0 -39.5 16.5 q-16.5 16.5 -28 44 q-11.5 27.5 -18 64.5 q-6.5 37 -8.5 79 q-80 -103 -150.5 -153.5 q-70.5 -50.5 -130.5 -50.5 q-53 0 -109.5 38.5 q-56.5 38.5 -102.5 107.5 l0 -9 q-1 -105 11.5 -188 q12.5 -83 33.5 -147.5 q21 -64.5 48 -111.5 q27 -47 55 -78 q-15 -5 -44 -16 q-29 -11 -61 -23.5 q-32 -12.5 -60 -24 q-28 -11.5 -40 -17.5 l-41 31 l0 1188 q0 39 -2 61.5 q-2 22.5 -14 35 q-12 12.5 -38 18 q-26 5.5 -73 10.5 l0 50 q41 6 76.5 12 q35.5 6 67.5 13.5 q32 7.5 62 17 q30 9.5 60 23.5 l5 -5 q5 -5 11.5 -12 q6.5 -7 13.5 -15 q7 -8 11 -13 l0 -544 q0 -38 13.5 -78 q13.5 -40 37 -73 q23.5 -33 55 -54.5 q31.5 -21.5 67.5 -21.5 q24 0 49.5 4.5 q25.5 4.5 54.5 20.5 q29 16 62 45 q33 29 71 79 l0 455 q0 16 -3.5 38.5 q-3.5 22.5 -9 44.5 q-5.5 22 -12 41 q-6.5 19 -13.5 28 q48 11 102.5 27 q54.5 16 100.5 33 l31 -41 q-4 -26 -9 -61.5 q-5 -35.5 -7 -98.5 l0 -481 q0 -93 9 -128.5 q9 -35.5 30 -35.5 q22 0 46 7 q24 7 57 21 l15 -55 Z" /><glyph glyph-name="paragraph" unicode="" d="M457 -250 l0 53 q69 14 106 31 q37 17 37 31 l1 665 q-18 -3 -39 -4.5 q-21 -1.5 -48 -1.5 q-98 0 -183.5 24 q-85.5 24 -149 71.5 q-63.5 47.5 -100.5 118.5 q-37 71 -37 165 q0 85 34.5 156 q34.5 71 97 122.5 q62.5 51.5 149.5 80 q87 28.5 193 28.5 q22 0 55 -1.5 q33 -1.5 72.5 -3.5 q39.5 -2 83 -4.5 q43.5 -2.5 85.5 -5.5 q99 -7 209 -15 l70 0 l0 -53 q-68 -14 -106 -31 q-38 -17 -38 -31 l0 -1280 q0 -13 35.5 -30.5 q35.5 -17.5 108.5 -31.5 l0 -53 l-636 0 ZM601 618 l1 574 q-27 2 -50 3 q-23 1 -40 1 q-56 0 -105 -19.5 q-49 -19.5 -85.5 -54 q-36.5 -34.5 -57.5 -81.5 q-21 -47 -21 -103 q0 -54 18 -111 q18 -57 56 -103.5 q38 -46.5 97.5 -76 q59.5 -29.5 142.5 -29.5 l44 0 ZM816 1155 l-40 10 q-20 5 -40 9 l0 -1309 q0 -11 14.5 -19.5 q14.5 -8.5 24.5 -11.5 q12 3 26.5 11.5 q14.5 8.5 14.5 19.5 l0 1290 Z" /><glyph glyph-name="cedilla" unicode="" d="M423 -229 q0 -37 -20.5 -71 q-20.5 -34 -61.5 -62.5 q-41 -28.5 -101.5 -49.5 q-60.5 -21 -141.5 -32 l-27 56 q49 8 83.5 21 q34.5 13 56.5 28 q22 15 32 32 q10 17 10 33 q0 34 -25 48 q-25 14 -82 19 q2 3 11 27 q7 20 22.5 65 q15.5 45 42.5 129 l93 -2 l-39 -111 q30 -6 57 -16.5 q27 -10.5 47 -26.5 q20 -16 31.5 -37.5 q11.5 -21.5 11.5 -49.5 Z" /><glyph glyph-name="onesuperior" unicode="" d="M116 620 l0 48 q55 6 89.5 12.5 q34.5 6.5 54.5 13.5 q20 7 27.5 14.5 q7.5 7.5 7.5 13.5 l0 446 q0 24 -2 37.5 q-2 13.5 -11 21.5 q-4 4 -14 6 q-10 2 -30 1.5 q-20 -0.5 -51 -4 q-31 -3.5 -77 -12.5 l-16 47 q29 7 74 19.5 q45 12.5 91.5 27.5 q46.5 15 88 29.5 q41.5 14.5 65.5 25.5 l28 -22 l0 -623 q0 -6 6 -13 q6 -7 23.5 -14.5 q17.5 -7.5 50 -14 q32.5 -6.5 85.5 -12.5 l0 -48 l-490 0 Z" /><glyph glyph-name="ordmasculine" unicode="" d="M424 971 q0 42 -11.5 80.5 q-11.5 38.5 -31.5 67.5 q-20 29 -47 46.5 q-27 17.5 -59 17.5 q-30 0 -52.5 -15 q-22.5 -15 -38.5 -41 q-16 -26 -24 -62.5 q-8 -36.5 -8 -78.5 q0 -42 12.5 -80.5 q12.5 -38.5 33.5 -67 q21 -28.5 48 -45.5 q27 -17 56 -17 q28 0 50.5 14.5 q22.5 14.5 38.5 40.5 q16 26 24.5 62 q8.5 36 8.5 78 ZM56 586 l0 78 l465 0 l0 -78 l-465 0 ZM532 990 q0 -51 -22 -100.5 q-22 -49.5 -58.5 -88 q-36.5 -38.5 -83 -62 q-46.5 -23.5 -95.5 -23.5 q-52 0 -94 19 q-42 19 -72 52.5 q-30 33.5 -46.5 80 q-16.5 46.5 -16.5 101.5 q0 52 20 101.5 q20 49.5 55 88 q35 38.5 82 62 q47 23.5 102 23.5 q50 0 92 -19.5 q42 -19.5 72.5 -53.5 q30.5 -34 47.5 -80.5 q17 -46.5 17 -100.5 Z" /><glyph glyph-name="guillemotright" unicode="" d="M939 429 l-373 -417 l-48 35 l221 419 l-221 417 l48 35 l372 -416 l1 -73 ZM556 429 l-373 -417 l-48 35 l221 419 l-220 417 l47 35 l372 -416 l1 -73 Z" /><glyph glyph-name="onequarter" unicode="" d="M966 484 l-194 -257 l194 0 l0 257 ZM1153 212 q-12 -16 -24 -28.5 q-12 -12.5 -25 -20.5 l-31 0 l0 -102 q0 -4 2.5 -7 q2.5 -3 10 -6.5 q7.5 -3.5 22 -7.5 q14.5 -4 37.5 -8 l0 -32 l-292 0 l0 32 q37 5 59 9.5 q22 4.5 34 8.5 q12 4 16 8 q4 4 4 8 l0 97 l-275 0 l-21 17 l278 382 q25 9 54 18.5 q29 9.5 49 17.5 l22 -18 l0 -353 l65 0 l15 -15 ZM94 637 l0 37 q44 4 72.5 9.5 q28.5 5.5 45 11 q16.5 5.5 22.5 11.5 q6 6 6 11 l0 360 q0 20 -1 30.5 q-1 10.5 -9 16.5 q-3 3 -11.5 5 q-8.5 2 -24.5 1.5 q-16 -0.5 -41.5 -3.5 q-25.5 -3 -62.5 -10 l-13 36 q24 5 59.5 15.5 q35.5 10.5 72.5 22.5 q37 12 70.5 23.5 q33.5 11.5 52.5 20.5 l21 -18 l0 -500 q0 -5 5 -10.5 q5 -5.5 20 -11.5 q15 -6 41.5 -11.5 q26.5 -5.5 68.5 -9.5 l0 -37 l-394 0 ZM314 3 q-23 -11 -51 -18.5 q-28 -7.5 -55 -14.5 l-25 30 l805 1203 q20 8 49.5 17.5 q29.5 9.5 51.5 14.5 l25 -28 l-800 -1204 Z" /><glyph glyph-name="onehalf" unicode="" d="M94 637 l0 37 q44 4 72.5 9.5 q28.5 5.5 45 11 q16.5 5.5 22.5 11.5 q6 6 6 11 l0 360 q0 20 -1 30.5 q-1 10.5 -9 16.5 q-3 3 -11.5 5 q-8.5 2 -24.5 1.5 q-16 -0.5 -41.5 -3.5 q-25.5 -3 -62.5 -10 l-13 36 q24 5 59.5 15.5 q35.5 10.5 72.5 22.5 q37 12 70.5 23.5 q33.5 11.5 52.5 20.5 l21 -18 l0 -500 q0 -5 5 -10.5 q5 -5.5 20 -11.5 q15 -6 41.5 -11.5 q26.5 -5.5 68.5 -9.5 l0 -37 l-394 0 ZM314 3 q-23 -11 -51 -18.5 q-28 -7.5 -55 -14.5 l-25 30 l805 1203 q20 8 49.5 17.5 q29.5 9.5 51.5 14.5 l25 -28 l-800 -1204 ZM1141 0 l-423 0 l-16 35 q100 99 162.5 165.5 q62.5 66.5 98 111.5 q35.5 45 48.5 74.5 q13 29.5 13 56.5 q0 44 -22 69.5 q-22 25.5 -76 25.5 q-22 0 -39 -8 q-17 -8 -29 -21 q-12 -13 -17.5 -29.5 q-5.5 -16.5 -4.5 -33.5 q-20 -9 -48 -16.5 q-28 -7.5 -54 -9.5 l-17 20 q0 25 20.5 52 q20.5 27 54.5 49.5 q34 22.5 78.5 37 q44.5 14.5 93.5 14.5 q79 0 128 -32 q49 -32 49 -99 q0 -32 -15.5 -64.5 q-15.5 -32.5 -51.5 -76 q-36 -43.5 -95 -103 q-59 -59.5 -147 -145.5 l220 0 q19 0 30.5 12.5 q11.5 12.5 17.5 28.5 q7 18 9 41 l40 -6 l-8 -149 Z" /><glyph glyph-name="threequarters" unicode="" d="M314 3 q-23 -11 -51 -18.5 q-28 -7.5 -55 -14.5 l-25 30 l805 1203 q20 8 49.5 17.5 q29.5 9.5 51.5 14.5 l25 -28 l-800 -1204 ZM1153 212 q-12 -16 -24 -28.5 q-12 -12.5 -25 -20.5 l-31 0 l0 -102 q0 -4 2.5 -7 q2.5 -3 10 -6.5 q7.5 -3.5 22 -7.5 q14.5 -4 37.5 -8 l0 -32 l-292 0 l0 32 q37 5 59 9.5 q22 4.5 34 8.5 q12 4 16 8 q4 4 4 8 l0 97 l-275 0 l-21 17 l278 382 q25 9 54 18.5 q29 9.5 49 17.5 l22 -18 l0 -353 l65 0 l15 -15 ZM525 824 q0 -41 -17 -76.5 q-17 -35.5 -49 -62.5 q-32 -27 -77 -42.5 q-45 -15.5 -100 -15.5 q-49 0 -104.5 18.5 q-55.5 18.5 -106.5 60.5 l21 38 q51 -33 91.5 -45 q40.5 -12 82.5 -12 q61 0 100 30.5 q39 30.5 39 91.5 q0 35 -12.5 59 q-12.5 24 -31.5 38.5 q-19 14.5 -42 20.5 q-23 6 -45 6 l-12 0 q-4 0 -8 -0.5 q-4 -0.5 -9 -1.5 l-13 -1 l-7 40 q49 12 78.5 27 q29.5 15 45 31 q15.5 16 20 32.5 q4.5 16.5 4.5 31.5 q0 33 -20.5 60 q-20.5 27 -68.5 27 q-38 0 -59 -20.5 q-21 -20.5 -13 -53.5 q-20 -9 -49 -15 q-29 -6 -56 -8 l-17 20 q0 20 18 43 q18 23 48.5 43 q30.5 20 71.5 33 q41 13 88 13 q46 0 79.5 -11.5 q33.5 -11.5 55 -30.5 q21.5 -19 31.5 -43 q10 -24 10 -48 q0 -18 -8.5 -36.5 q-8.5 -18.5 -24 -35.5 q-15.5 -17 -37.5 -31 q-22 -14 -49 -22 q33 -3 61 -16.5 q28 -13.5 48 -33.5 q20 -20 31.5 -46.5 q11.5 -26.5 11.5 -55.5 ZM966 484 l-194 -257 l194 0 l0 257 Z" /><glyph glyph-name="questiondown" unicode="" d="M427 523 q17 15 36 24 q19 9 46 17 l28 -23 l6 -114 q4 -57 -14.5 -112.5 q-18.5 -55.5 -48.5 -109.5 q-30 -54 -66 -106 q-36 -52 -67 -103 q-31 -51 -52 -100 q-21 -49 -21 -97 q0 -124 50.5 -190 q50.5 -66 143.5 -66 q32 0 61.5 15 q29.5 15 52 41 q22.5 26 36 61 q13.5 35 13.5 74 q0 15 -4 30.5 q-4 15.5 -10 29.5 q17 9 38.5 16.5 q21.5 7.5 45.5 13.5 q24 6 48.5 10 q24.5 4 46.5 6 l29 -33 q2 -8 2 -19 l0 -19 q0 -71 -35.5 -131 q-35.5 -60 -95.5 -103.5 q-60 -43.5 -138.5 -68.5 q-78.5 -25 -164.5 -25 q-77 0 -136 23 q-59 23 -99.5 64 q-40.5 41 -61.5 99 q-21 58 -21 127 q0 75 24 136 q24 61 61 113.5 q37 52.5 80.5 100.5 q43.5 48 82 97.5 q38.5 49.5 66 104.5 q27.5 55 32.5 121 l6 96 ZM608 841 q0 -36 -12.5 -66.5 q-12.5 -30.5 -33.5 -53 q-21 -22.5 -49.5 -35 q-28.5 -12.5 -59.5 -12.5 q-52 0 -82.5 30.5 q-30.5 30.5 -30.5 91.5 q0 36 12 66 q12 30 32.5 52 q20.5 22 48 34 q27.5 12 59.5 12 q55 0 85.5 -29.5 q30.5 -29.5 30.5 -89.5 Z" /><glyph glyph-name="AE" unicode="" d="M769 1138 q0 11 -8.5 16 q-8.5 5 -20.5 3.5 q-12 -1.5 -24.5 -10.5 q-12.5 -9 -19.5 -26 l-154 -386 l227 0 l0 403 ZM1560 264 q-5 -43 -10.5 -84 q-5.5 -41 -11.5 -76.5 q-6 -35.5 -11 -62 q-5 -26.5 -9 -41.5 l-889 0 l0 53 q68 14 104 30.5 q36 16.5 36 30.5 l0 528 l-264 0 l-212 -521 q-13 -29 15.5 -44 q28.5 -15 107.5 -24 l0 -53 l-416 0 l0 53 q66 11 103.5 25 q37.5 14 50.5 43 l405 1002 q7 17 -1.5 28.5 q-8.5 11.5 -31.5 21 q-23 9.5 -59.5 17.5 q-36.5 8 -85.5 17 l0 53 l1080 0 l32 -27 q-2 -26 -5.5 -59.5 q-3.5 -33.5 -9 -68 q-5.5 -34.5 -12.5 -65.5 q-7 -31 -14 -50 l-55 0 q-5 92 -24 131 q-19 39 -58 39 l-356 0 l0 -425 l403 0 l29 -30 q-9 -14 -20.5 -31 q-11.5 -17 -24 -33.5 q-12.5 -16.5 -25 -31 q-12.5 -14.5 -22.5 -22.5 q-29 29 -72 42 q-43 13 -102 13 l-166 0 l0 -478 q0 -15 7.5 -26.5 q7.5 -11.5 30 -20 q22.5 -8.5 63 -13 q40.5 -4.5 106.5 -4.5 l118 0 q46 0 78.5 7 q32.5 7 57 27 q24.5 20 45 56 q20.5 36 41.5 95 l54 -21 Z" /><glyph glyph-name="Ccedilla" unicode="" d="M767 -229 q0 -37 -20.5 -71 q-20.5 -34 -61.5 -62.5 q-41 -28.5 -102 -49.5 q-61 -21 -142 -32 l-27 56 q49 8 84 21 q35 13 56.5 28 q21.5 15 31.5 32 q10 17 10 33 q0 34 -25 48 q-25 14 -81 19 q2 3 11 27 q7 20 22 65 q11 33 28 86 q-82 5 -162 41 q-92 42 -164 121 q-72 79 -116 193.5 q-44 114.5 -44 259.5 q0 160 48.5 290 q48.5 130 132.5 222 q84 92 196 142 q112 50 239 50 q54 0 103.5 -8 q49.5 -8 92.5 -21.5 q43 -13.5 78.5 -31.5 q35.5 -18 61.5 -39 q6 -5 -4 -25 q-10 -20 -26.5 -44.5 q-16.5 -24.5 -34.5 -48 q-18 -23.5 -30 -35.5 l-45 9 q-51 60 -119.5 93.5 q-68.5 33.5 -155.5 33.5 q-34 0 -73.5 -12 q-39.5 -12 -78 -38.5 q-38.5 -26.5 -74.5 -69 q-36 -42.5 -63 -103.5 q-27 -61 -43.5 -142 q-16.5 -81 -16.5 -185 q0 -131 37 -228.5 q37 -97.5 95 -162 q58 -64.5 130 -96 q72 -31.5 141 -31.5 q27 0 63 8 q36 8 79 26.5 q43 18.5 92.5 49 q49.5 30.5 103.5 75.5 q5 -3 11 -10.5 q6 -7.5 12 -16 q6 -8.5 11 -16 q5 -7.5 8 -10.5 q-64 -67 -123.5 -113 q-59.5 -46 -116.5 -74.5 q-57 -28.5 -112 -40.5 q-20 -5 -39 -8 l-26 -74 q30 -6 57 -16.5 q27 -10.5 47.5 -26.5 q20.5 -16 32 -37.5 q11.5 -21.5 11.5 -49.5 Z" /><glyph glyph-name="Eth" unicode="" d="M1156 676 q0 -125 -25.5 -223.5 q-25.5 -98.5 -69 -174 q-43.5 -75.5 -101 -128 q-57.5 -52.5 -121.5 -86 q-64 -33.5 -131 -49 q-67 -15.5 -129 -15.5 l-531 0 l0 53 q68 14 105 30.5 q37 16.5 37 30.5 l0 501 l-141 0 l-22 25 q5 15 12.5 37 q7.5 22 13.5 38 l137 0 l0 463 q-39 -5 -75 -10 q-36 -5 -67 -10 l-11 72 q46 12 107 23 q61 11 128 19.5 q67 8.5 136 13 q69 4.5 130 4.5 q144 0 258.5 -41.5 q114.5 -41.5 194.5 -120.5 q80 -79 122.5 -193 q42.5 -114 42.5 -259 ZM471 1199 q-46 0 -91 -3 l0 -481 l253 0 l25 -23 l-29 -77 l-249 0 l0 -451 q0 -22 8 -37 q13 -18 50 -26.5 q37 -8.5 114 -8.5 q65 0 136 32.5 q71 32.5 130 99.5 q59 67 97 169.5 q38 102.5 38 243.5 q0 133 -31.5 237.5 q-31.5 104.5 -93 176.5 q-61.5 72 -151 110 q-89.5 38 -206.5 38 Z" /><glyph glyph-name="multiply" unicode="" d="M90 314 l247 248 l-246 247 l0 34 q20 9 50 20 q30 11 52 16 l230 -231 l230 231 q22 -5 52.5 -16 q30.5 -11 50.5 -20 l0 -34 l-247 -247 l248 -248 l0 -34 q-10 -4 -24 -9.5 q-14 -5.5 -28 -10.5 q-14 -5 -27.5 -9.5 q-13.5 -4.5 -22.5 -6.5 l-232 232 l-231 -232 q-9 2 -22.5 6.5 q-13.5 4.5 -28 9.5 q-14.5 5 -28 10.5 q-13.5 5.5 -23.5 9.5 l0 34 Z" /><glyph glyph-name="Oslash" unicode="" d="M971 629 q0 82 -16.5 160 q-16.5 78 -48.5 146 l-513 -723 q47 -55 104 -86 q57 -31 120 -31 q77 0 142 34 q65 34 112 101 q47 67 73.5 167 q26.5 100 26.5 232 ZM253 641 q0 -87 17.5 -166 q17.5 -79 48.5 -145 l514 723 q-46 54 -103.5 85.5 q-57.5 31.5 -125.5 31.5 q-83 0 -148.5 -37 q-65.5 -37 -110.5 -105.5 q-45 -68.5 -68.5 -166.5 q-23.5 -98 -23.5 -220 ZM1021 1097 q68 -91 102.5 -208 q34.5 -117 34.5 -242 q0 -136 -46 -258.5 q-46 -122.5 -125 -215.5 q-79 -93 -183 -148 q-104 -55 -221 -55 q-86 0 -158.5 26 q-72.5 26 -131.5 74 l-51 -72 q-9 -8 -27.5 -16 q-18.5 -8 -39.5 -14.5 q-21 -6.5 -41.5 -12 q-20.5 -5.5 -32.5 -8.5 l-29 34 l130 183 q-67 90 -102 205 q-35 115 -35 243 q0 136 44 259 q44 123 121.5 216 q77.5 93 182.5 148 q105 55 228 55 q87 0 159 -26 q72 -26 130 -73 l52 73 q28 17 67.5 30 q39.5 13 70.5 19 l30 -34 l-129 -182 Z" /><glyph glyph-name="Thorn" unicode="" d="M47 0 l0 53 q68 14 105.5 30.5 q37.5 16.5 37.5 30.5 l0 1031 q0 12 -35.5 30 q-35.5 18 -107.5 32 l0 53 l506 0 l0 -53 q-51 -9 -84.5 -17 q-33.5 -8 -53 -15.5 q-19.5 -7.5 -27.5 -15 q-8 -7.5 -8 -14.5 l0 -127 q33 2 70 3.5 q37 1.5 80 1.5 q111 0 200.5 -23 q89.5 -23 153.5 -68 q64 -45 98.5 -111 q34.5 -66 34.5 -152 q0 -69 -19.5 -126 q-19.5 -57 -52 -102.5 q-32.5 -45.5 -74.5 -79 q-42 -33.5 -88 -55.5 q-46 -22 -92.5 -32.5 q-46.5 -10.5 -87.5 -10.5 q-46 0 -87.5 7.5 q-41.5 7.5 -75.5 24.5 l-26 82 q42 -19 78 -24 q36 -5 71 -5 q45 0 92.5 17 q47.5 17 86.5 52 q39 35 63.5 87.5 q24.5 52.5 24.5 123.5 q0 79 -27.5 136 q-27.5 57 -75.5 94 q-48 37 -113.5 55 q-65.5 18 -140.5 18 q-47 0 -93 -3 l0 -814 q0 -6 7.5 -13 q7.5 -7 27 -15 q19.5 -8 53 -16 q33.5 -8 85.5 -17 l0 -53 l-506 0 Z" /><glyph glyph-name="germandbls" unicode="" d="M1123 283 q0 -60 -21 -116.5 q-21 -56.5 -64.5 -100 q-43.5 -43.5 -110.5 -70 q-67 -26.5 -160 -26.5 q-32 0 -75 7.5 q-43 7.5 -83.5 19 q-40.5 11.5 -71.5 24.5 q-31 13 -38 25 q-4 5 -6 24 q-2 19 -2 45.5 q0 26.5 1 56 q1 29.5 3.5 56 q2.5 26.5 6.5 46.5 q4 20 9 27 l52 -13 q9 -55 33 -95 q24 -40 57.5 -65.5 q33.5 -25.5 72.5 -37.5 q39 -12 77 -12 q34 0 63.5 9.5 q29.5 9.5 51 27 q21.5 17.5 33.5 43 q12 25.5 12 57.5 q0 67 -33.5 112 q-33.5 45 -84.5 78.5 q-51 33.5 -109.5 62 q-58.5 28.5 -109.5 63.5 q-51 35 -84.5 81.5 q-33.5 46.5 -33.5 116.5 q0 66 24.5 107 q24.5 41 61 69 q36.5 28 79.5 47 q43 19 79.5 41 q36.5 22 61 51.5 q24.5 29.5 24.5 77.5 q0 54 -15 107 q-15 53 -46.5 95 q-31.5 42 -79 68 q-47.5 26 -112.5 26 q-47 0 -86 -17 q-39 -17 -68 -62.5 q-29 -45.5 -45 -124.5 q-16 -79 -16 -203 l0 -1011 l-317 0 l0 53 q68 12 102.5 29.5 q34.5 17.5 34.5 29.5 l0 844 q0 120 18.5 202.5 q18.5 82.5 49 138.5 q30.5 56 68.5 93.5 q38 37.5 77 67.5 q56 42 126.5 67 q70.5 25 146.5 25 q89 0 154 -34.5 q65 -34.5 107 -87.5 q42 -53 62.5 -116.5 q20.5 -63.5 20.5 -121.5 q0 -82 -25.5 -134 q-25.5 -52 -63.5 -85 q-38 -33 -83 -54 q-45 -21 -83 -40 q-38 -19 -63.5 -43 q-25.5 -24 -25.5 -64 q0 -33 19 -58.5 q19 -25.5 50.5 -47 q31.5 -21.5 72 -41 q40.5 -19.5 82 -41.5 q41.5 -22 82 -48.5 q40.5 -26.5 72 -61.5 q31.5 -35 50.5 -81.5 q19 -46.5 19 -107.5 Z" /><glyph glyph-name="ae" unicode="" d="M1370 555 q-20 -20 -53.5 -40 q-33.5 -20 -65.5 -33 l-448 0 q-1 -13 -1 -28 l0 -28 q0 -54 15.5 -109.5 q15.5 -55.5 45.5 -100 q30 -44.5 73.5 -73 q43.5 -28.5 99.5 -28.5 q31 0 60.5 4.5 q29.5 4.5 62 18 q32.5 13.5 71.5 39 q39 25.5 90 67.5 q13 -7 25 -24 q12 -17 17 -25 q-60 -70 -110.5 -114 q-50.5 -44 -97 -68.5 q-46.5 -24.5 -92.5 -33.5 q-46 -9 -97 -9 q-44 0 -87.5 14 q-43.5 14 -83 41 q-39.5 27 -73 66 q-33.5 39 -56.5 89 q-44 -53 -94 -92.5 q-50 -39.5 -99.5 -65.5 q-49.5 -26 -96 -39 q-46.5 -13 -82.5 -13 q-36 0 -74.5 12 q-38.5 12 -70.5 38.5 q-32 26.5 -52.5 68.5 q-20.5 42 -20.5 102 q0 59 23 113.5 q23 54.5 70.5 101 q47.5 46.5 120.5 84.5 q73 38 172 65 q31 8 75 13 q44 5 90 8 l0 84 q0 41 -6.5 75.5 q-6.5 34.5 -23 60 q-16.5 25.5 -45 40 q-28.5 14.5 -71.5 14.5 q-30 0 -64 -13 q-34 -13 -60.5 -36 q-26.5 -23 -39.5 -53.5 q-13 -30.5 0 -66.5 q2 -6 -10 -14 q-12 -8 -31.5 -15.5 q-19.5 -7.5 -43 -14.5 q-23.5 -7 -46.5 -12 q-23 -5 -41.5 -7 q-18.5 -2 -26.5 0 l-16 41 q10 44 38 83.5 q28 39.5 66.5 73 q38.5 33.5 84.5 60 q46 26.5 93 45.5 q47 19 91.5 29 q44.5 10 78.5 10 q84 0 136.5 -32 q52.5 -32 78.5 -99 q33 37 68.5 62 q35.5 25 71.5 40.5 q36 15.5 70.5 22 q34.5 6.5 63.5 6.5 q91 0 153.5 -36.5 q62.5 -36.5 101.5 -94.5 q39 -58 56 -130.5 q17 -72.5 17 -143.5 ZM640 250 q-14 56 -14 115 l0 113 q-34 -2 -61.5 -4.5 q-27.5 -2.5 -38.5 -6.5 q-71 -17 -120.5 -41 q-49.5 -24 -80 -53 q-30.5 -29 -44.5 -63 q-14 -34 -14 -71 q0 -37 11 -61 q11 -24 27.5 -38 q16.5 -14 34.5 -19.5 q18 -5.5 32 -5.5 q52 0 124 32 q72 32 144 103 ZM1013 855 q-23 0 -52.5 -10 q-29.5 -10 -58.5 -40 q-29 -30 -53.5 -84 q-24.5 -54 -36.5 -141 l334 0 q21 0 29.5 7.5 q8.5 7.5 8.5 28.5 q0 49 -10.5 93 q-10.5 44 -32 76 q-21.5 32 -53.5 51 q-32 19 -75 19 Z" /><glyph glyph-name="ccedilla" unicode="" d="M673 -229 q0 -37 -20.5 -71 q-20.5 -34 -61.5 -62.5 q-41 -28.5 -102 -49.5 q-61 -21 -142 -32 l-27 56 q49 8 84 21 q35 13 56.5 28 q21.5 15 31.5 32 q10 17 10 33 q0 34 -25 48 q-25 14 -81 19 q2 3 11 27 q7 20 22 65 q11 33 28 85 q-69 3 -134 32 q-71 33 -126 94 q-55 61 -88.5 149 q-33.5 88 -33.5 199 q0 108 39.5 202 q39.5 94 109 163.5 q69.5 69.5 165 110 q95.5 40.5 206.5 40.5 q33 0 70 -5.5 q37 -5.5 71.5 -16 q34.5 -10.5 63 -25 q28.5 -14.5 45.5 -32.5 q2 -12 -4 -39 q-6 -27 -16.5 -57.5 q-10.5 -30.5 -22.5 -58 q-12 -27.5 -21 -41.5 l-47 10 q-11 28 -29.5 55 q-18.5 27 -46 48 q-27.5 21 -64 34 q-36.5 13 -84.5 13 q-50 0 -96 -22 q-46 -22 -81 -68 q-35 -46 -56.5 -115.5 q-21.5 -69.5 -21.5 -164.5 q0 -83 24 -150 q24 -67 64 -114 q40 -47 93 -72.5 q53 -25.5 111 -25.5 q28 0 53 3 q25 3 54 15 q29 12 67 37.5 q38 25.5 93 70.5 l44 -49 q-65 -76 -116.5 -119.5 q-51.5 -43.5 -96 -66 q-44.5 -22.5 -86.5 -28.5 l-8 -1 l-26 -74 q30 -6 57 -16.5 q27 -10.5 47.5 -26.5 q20.5 -16 32 -37.5 q11.5 -21.5 11.5 -49.5 Z" /><glyph glyph-name="eth" unicode="" d="M770 595 q-18 56 -50.5 101.5 q-32.5 45.5 -72.5 78 q-40 32.5 -83.5 50.5 q-43.5 18 -83.5 18 q-54 0 -95.5 -27 q-41.5 -27 -69 -75.5 q-27.5 -48.5 -41.5 -115.5 q-14 -67 -14 -147 q0 -79 23.5 -150.5 q23.5 -71.5 60.5 -125.5 q37 -54 82 -85.5 q45 -31.5 88 -31.5 q55 0 102 27.5 q47 27.5 81 85 q34 57.5 53.5 146.5 q19.5 89 19.5 212 q0 7 0.5 20 q0.5 13 -0.5 19 ZM950 597 q0 -116 -22 -207 q-22 -91 -58.5 -161 q-36.5 -70 -83.5 -119 q-47 -49 -96.5 -80 q-49.5 -31 -98 -45.5 q-48.5 -14.5 -87.5 -14.5 q-101 0 -180.5 36 q-79.5 36 -134.5 99 q-55 63 -84.5 150 q-29.5 87 -29.5 189 q0 66 16 130 q16 64 45 121.5 q29 57.5 69 106 q40 48.5 87.5 83.5 q47.5 35 102 55 q54.5 20 111.5 20 q30 0 61 -9 q31 -9 61 -24.5 q30 -15.5 58 -37 q28 -21.5 52 -46.5 q-26 94 -70.5 169.5 q-44.5 75.5 -112.5 146.5 l-221 -94 q-19 1 -30.5 2.5 q-11.5 1.5 -22 3 q-10.5 1.5 -21.5 4.5 q-11 3 -28 8 l-11 39 l258 111 q-28 22 -58.5 41 q-30.5 19 -64 31 q-33.5 12 -71.5 16.5 q-38 4.5 -80 -1.5 l-8 51 l223 79 q56 -37 107.5 -76.5 q51.5 -39.5 94.5 -78.5 l201 86 q24 -3 38 -5.5 q14 -2.5 24.5 -4.5 q10.5 -2 20 -5 q9.5 -3 22.5 -7 l7 -37 l-239 -102 q136 -148 195 -306 q59 -158 59 -317 Z" /><glyph glyph-name="divide" unicode="" d="M512 335 q0 -24 -8 -46 q-8 -22 -21.5 -38.5 q-13.5 -16.5 -32 -26 q-18.5 -9.5 -39.5 -9.5 q-39 0 -56.5 22 q-17.5 22 -17.5 63 q0 25 8 46.5 q8 21.5 21.5 37.5 q13.5 16 32 25 q18.5 9 39.5 9 q74 0 74 -83 ZM512 828 q0 -24 -8 -46 q-8 -22 -21.5 -38.5 q-13.5 -16.5 -32 -26 q-18.5 -9.5 -39.5 -9.5 q-39 0 -56.5 22 q-17.5 22 -17.5 63 q0 25 8 46.5 q8 21.5 21.5 37.5 q13.5 16 32 25.5 q18.5 9.5 39.5 9.5 q74 0 74 -84 ZM789 596 q-3 -10 -7.5 -23 q-4.5 -13 -9.5 -26 q-5 -13 -10 -25 q-5 -12 -9 -20 l-667 0 l-28 26 q5 21 16 48 q11 27 20 47 l668 0 l27 -27 Z" /><glyph glyph-name="oslash" unicode="" d="M785 450 q0 55 -13.5 108 q-13.5 53 -34.5 98 l-367 -481 q37 -41 79 -65.5 q42 -24.5 83 -24.5 q67 0 115 25.5 q48 25.5 78.5 72.5 q30.5 47 45 115 q14.5 68 14.5 152 ZM261 473 q0 -54 13 -106 q13 -52 36 -95 l368 484 q-35 41 -78 65 q-43 24 -86 24 q-72 0 -120.5 -28.5 q-48.5 -28.5 -78 -78.5 q-29.5 -50 -42 -118 q-12.5 -68 -12.5 -147 ZM963 951 l-103 -135 q53 -63 81.5 -147.5 q28.5 -84.5 28.5 -183.5 q0 -100 -37.5 -193 q-37.5 -93 -101.5 -164.5 q-64 -71.5 -148.5 -114.5 q-84.5 -43 -178.5 -43 q-69 0 -129 18.5 q-60 18.5 -108 51.5 l-18 -23 q-9 -8 -26.5 -18 q-17.5 -10 -37 -20.5 q-19.5 -10.5 -39 -19 q-19.5 -8.5 -32.5 -12.5 l-28 32 l101 133 q-53 63 -82.5 147.5 q-29.5 84.5 -29.5 184.5 q0 66 16.5 130 q16.5 64 46.5 121.5 q30 57.5 72.5 106 q42.5 48.5 94.5 83.5 q52 35 112 55 q60 20 126 20 q68 0 128 -18.5 q60 -18.5 109 -52.5 l19 25 q13 9 30 19.5 q17 10.5 35 20 q18 9.5 35.5 17.5 q17.5 8 32.5 12 l31 -32 Z" /><glyph glyph-name="thorn" unicode="" d="M865 415 q0 97 -19.5 172 q-19.5 75 -53 127 q-33.5 52 -77 79 q-43.5 27 -89.5 27 q-18 0 -44 -8.5 q-26 -8.5 -58.5 -30 q-32.5 -21.5 -71 -57.5 q-38.5 -36 -82.5 -91 l0 -415 q85 -60 151.5 -86.5 q66.5 -26.5 129.5 -26.5 q51 0 91 25.5 q40 25.5 67 68 q27 42.5 41.5 98.5 q14.5 56 14.5 118 ZM1030 497 q0 -61 -16 -123.5 q-16 -62.5 -44.5 -121 q-28.5 -58.5 -67.5 -110 q-39 -51.5 -85.5 -90 q-46.5 -38.5 -99 -60.5 q-52.5 -22 -106.5 -22 q-39 0 -101.5 23 q-62.5 23 -139.5 82 l0 -440 q0 -16 38 -32 q38 -16 132 -30 l0 -53 l-487 0 l0 53 q66 16 101.5 30.5 q35.5 14.5 35.5 31.5 l0 1652 q0 45 -5.5 69.5 q-5.5 24.5 -20.5 37 q-15 12.5 -42 17 q-27 4.5 -69 9.5 l0 50 q43 7 79.5 14.5 q36.5 7.5 69.5 17 q33 9.5 64.5 21.5 q31.5 12 64.5 27 l39 -37 l0 -759 q53 57 102 96.5 q49 39.5 92.5 63.5 q43.5 24 80 35 q36.5 11 65.5 11 q68 0 126.5 -31 q58.5 -31 101.5 -90.5 q43 -59.5 67.5 -145.5 q24.5 -86 24.5 -196 Z" /><glyph glyph-name="Dcroat" unicode="&#x110;" d="M1156 676 q0 -125 -25.5 -223.5 q-25.5 -98.5 -69 -174 q-43.5 -75.5 -101 -128 q-57.5 -52.5 -121.5 -86 q-64 -33.5 -131 -49 q-67 -15.5 -129 -15.5 l-531 0 l0 53 q68 14 105 30.5 q37 16.5 37 30.5 l0 501 l-141 0 l-22 25 q5 15 12.5 37 q7.5 22 13.5 38 l137 0 l0 463 q-39 -5 -75 -10 q-36 -5 -67 -10 l-11 72 q46 12 107 23 q61 11 128 19.5 q67 8.5 136 13 q69 4.5 130 4.5 q144 0 258.5 -41.5 q114.5 -41.5 194.5 -120.5 q80 -79 122.5 -193 q42.5 -114 42.5 -259 ZM471 1199 q-46 0 -91 -3 l0 -481 l253 0 l25 -23 l-29 -77 l-249 0 l0 -451 q0 -22 8 -37 q13 -18 50 -26.5 q37 -8.5 114 -8.5 q65 0 136 32.5 q71 32.5 130 99.5 q59 67 97 169.5 q38 102.5 38 243.5 q0 133 -31.5 237.5 q-31.5 104.5 -93 176.5 q-61.5 72 -151 110 q-89.5 38 -206.5 38 Z" /><glyph glyph-name="dcroat" unicode="&#x111;" d="M1081 94 q-93 -62 -156 -93.5 q-63 -31.5 -91 -31.5 q-35 0 -56.5 45.5 q-21.5 45.5 -29.5 146.5 q-41 -46 -78 -81.5 q-37 -35.5 -76 -60 q-39 -24.5 -81 -37 q-42 -12.5 -92 -12.5 q-59 0 -120.5 32.5 q-61.5 32.5 -111.5 93.5 q-50 61 -82 149 q-32 88 -32 199 q0 61 15.5 122.5 q15.5 61.5 45 119 q29.5 57.5 72 107.5 q42.5 50 95.5 87 q53 37 115.5 58.5 q62.5 21.5 132.5 21.5 q47 0 93.5 -11.5 q46.5 -11.5 100.5 -49.5 l0 232 l-283 0 l-23 22 q5 16 12 39 q7 23 15 39 l279 0 l0 38 q0 53 -3 84.5 q-3 31.5 -16.5 48.5 q-13.5 17 -42 23.5 q-28.5 6.5 -80.5 10.5 l0 49 q91 11 164 29.5 q73 18.5 125 35.5 l33 -32 l0 -287 l145 0 l22 -25 l-27 -75 l-140 0 l0 -862 q0 -35 1.5 -59.5 q1.5 -24.5 4.5 -41 q3 -16.5 7 -26.5 q4 -10 10 -16 q5 -5 12.5 -6.5 q7.5 -1.5 21 1 q13.5 2.5 33 8.5 q19.5 6 48.5 18 l18 -53 ZM745 263 l0 459 q-34 58 -91.5 89.5 q-57.5 31.5 -128.5 31.5 q-59 0 -108.5 -22 q-49.5 -22 -85.5 -67 q-36 -45 -56 -112.5 q-20 -67.5 -20 -158.5 q0 -83 23 -150.5 q23 -67.5 59 -114.5 q36 -47 80 -72.5 q44 -25.5 85 -25.5 q32 0 62.5 11.5 q30.5 11.5 60.5 31 q30 19.5 60 45.5 q30 26 60 55 Z" /><glyph glyph-name="Lslash" unicode="&#x141;" d="M969 264 q-4 -43 -9.5 -84 q-5.5 -41 -11 -76.5 q-5.5 -35.5 -11 -62 q-5.5 -26.5 -9.5 -41.5 l-880 0 l0 53 q68 14 105 30.5 q37 16.5 37 30.5 l0 398 l-127 -64 l-27 22 q3 11 8.5 26 q5.5 15 12.5 29.5 q7 14.5 14 27 q7 12.5 13 19.5 l106 53 l0 520 q0 12 -35 30 q-35 18 -107 32 l0 53 l475 0 l0 -53 q-68 -14 -105.5 -31 q-37.5 -17 -37.5 -31 l0 -424 l280 142 l26 -25 q-7 -22 -21.5 -51.5 q-14.5 -29.5 -28.5 -48.5 l-256 -130 l0 -434 q0 -18 8.5 -31.5 q8.5 -13.5 29.5 -23 q21 -9.5 57 -14.5 q36 -5 91 -5 l133 0 q46 0 77.5 7 q31.5 7 55.5 27 q24 20 43.5 56 q19.5 36 40.5 95 l53 -21 Z" /><glyph glyph-name="lslash" unicode="&#x142;" d="M70 0 l0 53 q43 7 71.5 14.5 q28.5 7.5 45.5 15 q17 7.5 24 15.5 q7 8 7 16 l0 543 l-145 -102 l-25 19 q2 14 5 26 q3 12 7 25 q4 13 9.5 27.5 q5.5 14.5 12.5 33.5 l136 94 l0 509 q0 45 -6 70 q-6 25 -21 37.5 q-15 12.5 -42 17 q-27 4.5 -69 9.5 l0 50 q41 7 77 14.5 q36 7.5 70 16.5 q34 9 66.5 21 q32.5 12 65.5 28 l39 -37 l0 -611 l148 104 l24 -18 q-3 -17 -6 -30.5 q-3 -13.5 -7.5 -26 q-4.5 -12.5 -9.5 -25.5 q-5 -13 -12 -29 l-137 -97 l0 -669 q0 -15 32.5 -31 q32.5 -16 114.5 -30 l0 -53 l-475 0 Z" /><glyph glyph-name="Eng" unicode="&#x14a;" d="M1150 277 q0 -104 -20.5 -189 q-20.5 -85 -55.5 -154.5 q-35 -69.5 -83 -125 q-48 -55.5 -102 -99.5 q-27 -21 -62.5 -40 q-35.5 -19 -75 -32.5 q-39.5 -13.5 -82 -21.5 q-42.5 -8 -83.5 -8 q-44 0 -90.5 11.5 q-46.5 11.5 -84.5 28.5 q-38 17 -63 36 q-25 19 -25 35 q0 9 19 28.5 q19 19.5 45 40.5 q26 21 52 39.5 q26 18.5 41 24.5 q54 -54 118 -83.5 q64 -29.5 121 -29.5 q46 0 89.5 29.5 q43.5 29.5 77 89.5 q33.5 60 54 151.5 q20.5 91.5 20.5 215.5 l0 648 q0 78 -10.5 128.5 q-10.5 50.5 -31 80 q-20.5 29.5 -50 41 q-29.5 11.5 -66.5 11.5 q-36 0 -79 -15 q-43 -15 -94.5 -55 q-51.5 -40 -113 -108.5 q-61.5 -68.5 -135.5 -176.5 l0 -664 q0 -12 36 -29.5 q36 -17.5 109 -31.5 l0 -53 l-478 0 l0 53 q68 14 105.5 30.5 q37.5 16.5 37.5 30.5 l0 906 q0 39 -2.5 63.5 q-2.5 24.5 -15.5 39 q-13 14.5 -40.5 22 q-27.5 7.5 -78.5 12.5 l0 53 q34 6 72.5 14 q38.5 8 77 18 q38.5 10 75 22 q36.5 12 65.5 26 l37 -37 l0 -292 q79 96 148 159.5 q69 63.5 131.5 101 q62.5 37.5 119 53 q56.5 15.5 110.5 15.5 q43 0 89 -13 q46 -13 84.5 -47.5 q38.5 -34.5 63 -94.5 q24.5 -60 24.5 -154 l0 -704 Z" /><glyph glyph-name="eng" unicode="&#x14b;" d="M985 96 q0 -113 -17.5 -191 q-17.5 -78 -47.5 -133.5 q-30 -55.5 -69.5 -94.5 q-39.5 -39 -82.5 -73 q-27 -22 -61 -41 q-34 -19 -70 -32.5 q-36 -13.5 -71.5 -21 q-35.5 -7.5 -63.5 -7.5 q-39 0 -82.5 11 q-43.5 11 -79.5 26.5 q-36 15.5 -59.5 33.5 q-23.5 18 -23.5 33 q0 10 18 29.5 q18 19.5 42.5 40.5 q24.5 21 50 39 q25.5 18 40.5 25 q27 -27 56.5 -46.5 q29.5 -19.5 58 -32 q28.5 -12.5 53.5 -19 q25 -6.5 42 -6.5 q25 0 57.5 16 q32.5 16 61 60 q28.5 44 48.5 121.5 q20 77.5 20 201.5 l0 583 q0 59 -6 96.5 q-6 37.5 -20.5 59.5 q-14.5 22 -37.5 30 q-23 8 -56 8 q-29 0 -63.5 -12 q-34.5 -12 -74.5 -39 q-40 -27 -85 -71.5 q-45 -44.5 -93 -110.5 l0 -465 q0 -15 37 -31 q37 -16 102 -30 l0 -53 l-455 0 l0 53 q66 17 101.5 30.5 q35.5 13.5 35.5 30.5 l0 590 q0 40 -3 63 q-3 23 -16 35.5 q-13 12.5 -41 18.5 q-28 6 -77 12 l0 51 q68 8 138.5 28.5 q70.5 20.5 126.5 48.5 l37 -37 l10 -215 q49 61 102.5 108 q53.5 47 106.5 78.5 q53 31.5 102 48 q49 16.5 88 16.5 q45 0 85 -14 q40 -14 70.5 -42.5 q30.5 -28.5 48 -71 q17.5 -42.5 17.5 -98.5 l0 -638 Z" /><glyph glyph-name="OE" unicode="&#x152;" d="M617 95 q39 0 71.5 2 q32.5 2 60 7.5 q27.5 5.5 52 15.5 q24.5 10 48.5 26 l0 943 q-51 43 -113.5 62.5 q-62.5 19.5 -131.5 19.5 q-83 0 -148 -37 q-65 -37 -110 -106 q-45 -69 -69 -167 q-24 -98 -24 -220 q0 -112 29 -211.5 q29 -99.5 78.5 -173.5 q49.5 -74 115.5 -117.5 q66 -43.5 141 -43.5 ZM1610 264 q-4 -43 -9.5 -84 q-5.5 -41 -11 -76.5 q-5.5 -35.5 -11 -62 q-5.5 -26.5 -9.5 -41.5 l-689 0 q-53 -1 -89.5 -5.5 q-36.5 -4.5 -68 -10 q-31.5 -5.5 -63.5 -10 q-32 -4.5 -76 -4.5 q-122 0 -218 53 q-96 53 -163 142 q-67 89 -102 205 q-35 116 -35 242 q0 136 44.5 259 q44.5 123 122 216 q77.5 93 182.5 148 q105 55 227 55 q42 0 72.5 -4.5 q30.5 -4.5 58.5 -10.5 q28 -6 58.5 -10.5 q30.5 -4.5 72.5 -4.5 l606 0 l34 -27 q-2 -26 -6 -59.5 q-4 -33.5 -9.5 -68 q-5.5 -34.5 -12 -65.5 q-6.5 -31 -12.5 -50 l-56 0 q-5 92 -24.5 130.5 q-19.5 38.5 -57.5 38.5 l-324 0 l0 -424 l370 0 l31 -30 q-9 -14 -20.5 -30.5 q-11.5 -16.5 -24 -33 q-12.5 -16.5 -25 -30 q-12.5 -13.5 -22.5 -21.5 q-15 15 -32.5 25 q-17.5 10 -40 17 q-22.5 7 -53.5 10 q-31 3 -73 3 l-110 0 l0 -481 q0 -15 2.5 -26.5 q2.5 -11.5 18.5 -20 q16 -8.5 51.5 -13 q35.5 -4.5 101.5 -4.5 l119 0 q46 0 78.5 7 q32.5 7 57 27 q24.5 20 45 56 q20.5 36 42.5 95 l53 -21 Z" /><glyph glyph-name="oe" unicode="&#x153;" d="M1558 555 q-20 -20 -54 -40 q-34 -20 -66 -33 l-490 0 q2 -75 21 -141.5 q19 -66.5 54.5 -117 q35.5 -50.5 85.5 -79.5 q50 -29 113 -29 q28 0 55.5 4 q27.5 4 60.5 17 q33 13 74 38.5 q41 25.5 96 69.5 q13 -7 25 -24 q12 -17 17 -25 q-66 -73 -118 -117.5 q-52 -44.5 -98 -68.5 q-46 -24 -89.5 -31.5 q-43.5 -7.5 -92.5 -7.5 q-94 0 -178 52 q-84 52 -139 145 q-33 -44 -72.5 -80.5 q-39.5 -36.5 -84.5 -62.5 q-45 -26 -94.5 -40 q-49.5 -14 -100.5 -14 q-88 0 -163 36 q-75 36 -129.5 99 q-54.5 63 -85 150 q-30.5 87 -30.5 189 q0 66 17 130 q17 64 47.5 121.5 q30.5 57.5 73 106 q42.5 48.5 94 83.5 q51.5 35 111 55 q59.5 20 122.5 20 q106 0 192.5 -50 q86.5 -50 140.5 -137 q46 61 112 107 q22 15 50.5 29.5 q28.5 14.5 58.5 26 q30 11.5 61 18 q31 6.5 58 6.5 q65 0 116 -18 q51 -18 89.5 -49 q38.5 -31 65 -71.5 q26.5 -40.5 43 -85.5 q16.5 -45 24 -92 q7.5 -47 7.5 -89 ZM766 455 q0 80 -23 151 q-23 71 -61 124 q-38 53 -88.5 84 q-50.5 31 -105.5 31 q-54 0 -96.5 -27.5 q-42.5 -27.5 -72 -77 q-29.5 -49.5 -45.5 -117 q-16 -67.5 -16 -147.5 q0 -79 24.5 -150 q24.5 -71 64 -124.5 q39.5 -53.5 90 -85 q50.5 -31.5 101.5 -31.5 q52 0 93.5 26.5 q41.5 26.5 71 73.5 q29.5 47 45.5 112 q16 65 18 142 l0 16 ZM1185 851 q-46 0 -85 -19.5 q-39 -19.5 -69 -55 q-30 -35.5 -50 -85.5 q-20 -50 -28 -111 l380 0 q22 0 30.5 7.5 q8.5 7.5 8.5 28.5 q0 27 -7 67 q-7 40 -27.5 77.5 q-20.5 37.5 -57 64 q-36.5 26.5 -95.5 26.5 Z" /><glyph glyph-name="uni0181" unicode="&#x181;" d="M929 1134 q-22 17 -47 29 q-25 12 -60 19.5 q-35 7.5 -82 11.5 q-47 4 -112 5 l0 -469 l29 0 q110 0 177.5 21.5 q67.5 21.5 105 56 q37.5 34.5 50 77.5 q12.5 43 12.5 86 q0 49 -18.5 91.5 q-18.5 42.5 -54.5 71.5 ZM783 644 q-45 0 -82.5 -4.5 q-37.5 -4.5 -72.5 -9.5 l0 -516 q0 -6 8 -14 q32 -12 77 -17 q45 -5 84 -5 q72 0 129 18 q57 18 97 50.5 q40 32.5 61 78.5 q21 46 21 102 q0 55 -17.5 111.5 q-17.5 56.5 -56.5 102 q-39 45.5 -100 74.5 q-61 29 -148 29 ZM28 993 q0 68 39.5 123 q39.5 55 117 93.5 q77.5 38.5 191 59.5 q113.5 21 261.5 21 q85 0 153.5 -4.5 q68.5 -4.5 123 -15 q54.5 -10.5 97.5 -27 q43 -16.5 79 -40.5 q45 -30 72.5 -78 q27.5 -48 27.5 -105 q0 -108 -52.5 -184.5 q-52.5 -76.5 -149.5 -112.5 q68 -13 125.5 -46 q57.5 -33 99 -81 q41.5 -48 65 -109.5 q23.5 -61.5 23.5 -130.5 q0 -85 -34 -153.5 q-34 -68.5 -96.5 -116.5 q-62.5 -48 -150.5 -74 q-88 -26 -196 -26 q-22 0 -53.5 0.5 q-31.5 0.5 -67.5 1.5 q-36 1 -75.5 2 q-39.5 1 -76.5 3 q-88 3 -185 7 l-71 0 l0 53 q68 14 105.5 30.5 q37.5 16.5 37.5 30.5 l0 1074 q-49 -8 -89 -21 q-40 -13 -68 -33 q-28 -20 -43.5 -46 q-15.5 -26 -15.5 -59 q0 -38 20 -69 q20 -31 51 -45 q-3 -6 -23 -18.5 q-20 -12.5 -48 -25.5 q-28 -13 -57 -24.5 q-29 -11.5 -50 -15.5 q-37 16 -62 59.5 q-25 43.5 -25 102.5 Z" /><glyph glyph-name="uni0186" unicode="&#x186;" d="M1036 678 q0 -158 -43.5 -288 q-43.5 -130 -121 -223.5 q-77.5 -93.5 -183.5 -145 q-106 -51.5 -232 -51.5 q-102 0 -177.5 28.5 q-75.5 28.5 -125 73 q-49.5 44.5 -73.5 99.5 q-24 55 -24 108 q0 42 13 85 q13 43 47 81 q22 12 49.5 23.5 q27.5 11.5 55.5 22 q28 10.5 53 20 q25 9.5 43 15.5 l27 -59 q-29 -17 -46.5 -34 q-17.5 -17 -27.5 -36.5 q-10 -19.5 -13.5 -42 q-3.5 -22.5 -3.5 -50.5 q0 -36 18 -73.5 q18 -37.5 51 -67.5 q33 -30 79 -49 q46 -19 103 -19 q66 0 128 27 q62 27 110 90.5 q48 63.5 77 168.5 q29 105 29 260 q0 133 -37 230.5 q-37 97.5 -96 162 q-59 64.5 -131.5 96 q-72.5 31.5 -144.5 31.5 q-27 0 -60.5 -5.5 q-33.5 -5.5 -75 -20.5 q-41.5 -15 -92 -41 q-50.5 -26 -110.5 -68 q-5 2 -11.5 9.5 q-6.5 7.5 -12 16 q-5.5 8.5 -10.5 16.5 q-5 8 -7 11 q67 66 129 107 q62 41 119 64.5 q57 23.5 110 31.5 q53 8 104 8 q97 0 189.5 -41 q92.5 -41 164.5 -119.5 q72 -78.5 116 -192.5 q44 -114 44 -259 Z" /><glyph glyph-name="uni0189" unicode="&#x189;" d="M1156 676 q0 -125 -25.5 -223.5 q-25.5 -98.5 -69 -174 q-43.5 -75.5 -101 -128 q-57.5 -52.5 -121.5 -86 q-64 -33.5 -131 -49 q-67 -15.5 -129 -15.5 l-531 0 l0 53 q68 14 105 30.5 q37 16.5 37 30.5 l0 501 l-141 0 l-22 25 q5 15 12.5 37 q7.5 22 13.5 38 l137 0 l0 463 q-39 -5 -75 -10 q-36 -5 -67 -10 l-11 72 q46 12 107 23 q61 11 128 19.5 q67 8.5 136 13 q69 4.5 130 4.5 q144 0 258.5 -41.5 q114.5 -41.5 194.5 -120.5 q80 -79 122.5 -193 q42.5 -114 42.5 -259 ZM471 1199 q-46 0 -91 -3 l0 -481 l253 0 l25 -23 l-29 -77 l-249 0 l0 -451 q0 -22 8 -37 q13 -18 50 -26.5 q37 -8.5 114 -8.5 q65 0 136 32.5 q71 32.5 130 99.5 q59 67 97 169.5 q38 102.5 38 243.5 q0 133 -31.5 237.5 q-31.5 104.5 -93 176.5 q-61.5 72 -151 110 q-89.5 38 -206.5 38 Z" /><glyph glyph-name="uni018A" unicode="&#x18a;" d="M1036 1090 q-33 30 -70.5 50.5 q-37.5 20.5 -85.5 33 q-48 12.5 -109.5 18.5 q-61.5 6 -142.5 7 l0 -1035 q0 -24 13 -40 q16 -17 53 -24.5 q37 -7.5 106 -7.5 q64 0 134.5 32.5 q70.5 32.5 130 99.5 q59.5 67 98 169.5 q38.5 102.5 38.5 243.5 q0 136 -38 253.5 q-38 117.5 -127 199.5 ZM28 993 q0 76 45 132 q45 56 130.5 92.5 q85.5 36.5 209.5 54.5 q124 18 283 18 q82 0 148.5 -5 q66.5 -5 120.5 -15.5 q54 -10.5 97.5 -27 q43.5 -16.5 81.5 -40.5 q72 -45 121 -103 q49 -58 80 -125 q31 -67 44.5 -142.5 q13.5 -75.5 13.5 -155.5 q0 -125 -25.5 -223.5 q-25.5 -98.5 -69 -174 q-43.5 -75.5 -100.5 -128 q-57 -52.5 -120.5 -86 q-63.5 -33.5 -129.5 -49 q-66 -15.5 -126 -15.5 l-537 0 l0 53 q68 14 105.5 30.5 q37.5 16.5 37.5 30.5 l0 1074 q-112 -17 -166.5 -57 q-54.5 -40 -54.5 -102 q0 -36 18 -66.5 q18 -30.5 53 -47.5 q-4 -6 -23.5 -18.5 q-19.5 -12.5 -46 -25.5 q-26.5 -13 -54.5 -24.5 q-28 -11.5 -49 -15.5 q-41 20 -64 63.5 q-23 43.5 -23 98.5 Z" /><glyph glyph-name="uni018E" unicode="&#x18e;" d="M98 0 l-35 28 q1 17 4 42.5 q3 25.5 8 54.5 q5 29 10 60 q5 31 11 59 q6 28 11 50.5 q5 22.5 9 35.5 l55 0 q2 -46 6.5 -88 q4.5 -42 12.5 -73.5 q8 -31.5 20.5 -50 q12.5 -18.5 30.5 -18.5 l205 0 q64 0 103.5 4 q39.5 4 61.5 12.5 q22 8.5 29 22.5 q7 14 7 34 l0 472 l-208 0 q-23 0 -51.5 -1.5 q-28.5 -1.5 -56.5 -4.5 q-28 -3 -53 -6.5 q-25 -3.5 -41 -7.5 l-26 28 q8 14 20.5 32 q12.5 18 26.5 36 q14 18 27.5 33 q13.5 15 24.5 23 q15 -15 32.5 -22.5 q17.5 -7.5 40 -11 q22.5 -3.5 53 -4 q30.5 -0.5 72.5 -0.5 l139 0 l0 421 l-236 0 q-46 0 -78 -5.5 q-32 -5.5 -56 -23.5 q-24 -18 -44 -52.5 q-20 -34.5 -41 -92.5 l-53 20 q4 43 9 82.5 q5 39.5 10.5 73 q5.5 33.5 11 58.5 q5.5 25 9.5 40 l800 0 l0 -53 q-68 -14 -105 -30.5 q-37 -16.5 -37 -30.5 l0 -1031 q0 -12 35 -30 q35 -18 107 -32 l0 -53 l-881 0 Z" /><glyph glyph-name="uni0190" unicode="&#x190;" d="M979 213 q-60 -67 -119 -113 q-59 -46 -120.5 -75 q-61.5 -29 -127.5 -42 q-66 -13 -142 -13 q-100 0 -174.5 30.5 q-74.5 30.5 -123.5 77.5 q-49 47 -73 102.5 q-24 55.5 -24 105.5 q0 58 19.5 112 q19.5 54 51.5 100 q32 46 74.5 81 q42.5 35 89.5 56 q-96 34 -149 102.5 q-53 68.5 -53 167.5 q0 87 49.5 165 q49.5 78 139.5 132 q65 40 140.5 64 q75.5 24 160.5 24 q108 0 203.5 -25 q95.5 -25 160.5 -79 q-17 -36 -43.5 -77.5 q-26.5 -41.5 -51.5 -73.5 l-53 11 q-28 29 -57 52.5 q-29 23.5 -61 40 q-32 16.5 -69.5 25.5 q-37.5 9 -81.5 9 q-52 0 -100.5 -17 q-48.5 -17 -85.5 -48 q-37 -31 -59 -73.5 q-22 -42.5 -22 -93.5 q0 -41 17.5 -80.5 q17.5 -39.5 60.5 -72 q43 -32.5 116 -54 q73 -21.5 184 -25.5 l0 -84 q-103 -7 -177 -34 q-74 -27 -121.5 -66 q-47.5 -39 -70 -86 q-22.5 -47 -22.5 -92 q0 -50 21.5 -93.5 q21.5 -43.5 60.5 -75.5 q39 -32 93 -50 q54 -18 118 -18 q47 0 88.5 5.5 q41.5 5.5 85 22.5 q43.5 17 92 47.5 q48.5 30.5 109.5 80.5 l46 -53 Z" /><glyph glyph-name="florin" unicode="&#x192;" d="M818 1454 q0 -11 -16 -30 q-16 -19 -38.5 -39 q-22.5 -20 -46 -37.5 q-23.5 -17.5 -38.5 -24.5 q-50 48 -97 71 q-47 23 -73 23 q-28 0 -56.5 -18.5 q-28.5 -18.5 -51 -65 q-22.5 -46.5 -36.5 -125 q-14 -78.5 -14 -199.5 l0 -79 l256 0 l30 -31 q-9 -14 -22 -31 q-13 -17 -27 -32.5 q-14 -15.5 -27.5 -28 q-13.5 -12.5 -23.5 -16.5 q-23 12 -65.5 23.5 q-42.5 11.5 -120.5 11.5 l0 -728 q0 -115 -17.5 -195.5 q-17.5 -80.5 -46 -137.5 q-28.5 -57 -66.5 -95.5 q-38 -38.5 -78 -69.5 q-28 -21 -58.5 -39 q-30.5 -18 -61 -31 q-30.5 -13 -58.5 -20.5 q-28 -7.5 -51 -7.5 q-34 0 -67 9 q-33 9 -59.5 21.5 q-26.5 12.5 -43 25.5 q-16.5 13 -16.5 21 q0 9 16 27.5 q16 18.5 38.5 38 q22.5 19.5 46.5 37 q24 17.5 41 25.5 q41 -35 76.5 -46 q35.5 -11 73.5 -11 q28 0 54.5 16.5 q26.5 16.5 47.5 60 q21 43.5 34 120.5 q13 77 13 198 l0 781 l-128 0 l-23 31 l78 73 l73 0 l0 31 q0 109 15 185.5 q15 76.5 41.5 131.5 q26.5 55 61 93.5 q34.5 38.5 73.5 71.5 q29 25 63.5 45 q34.5 20 68 34 q33.5 14 64.5 21 q31 7 54 7 q35 0 72 -12 q37 -12 67 -27.5 q30 -15.5 49.5 -31.5 q19.5 -16 19.5 -25 Z" /><glyph glyph-name="uni0197" unicode="&#x197;" d="M541 610 l-141 0 l0 -496 q0 -12 35.5 -29.5 q35.5 -17.5 107.5 -31.5 l0 -53 l-475 0 l0 53 q68 14 105 30.5 q37 16.5 37 30.5 l0 496 l-145 0 l-22 24 l12 37 q8 23 14 39 l141 0 l0 435 q0 12 -35 30 q-35 18 -107 32 l0 53 l475 0 l0 -53 q-68 -14 -105.5 -31 q-37.5 -17 -37.5 -31 l0 -435 l145 0 l25 -23 l-29 -77 Z" /><glyph glyph-name="uni0198" unicode="&#x198;" d="M48 0 l0 53 q68 14 105 30.5 q37 16.5 37 30.5 l0 1031 q0 12 -35 30 q-35 18 -107 32 l0 53 l475 0 l0 -53 q-68 -14 -105.5 -31 q-37.5 -17 -37.5 -31 l0 -493 l355 451 q65 83 136 125 q71 42 154 42 q47 0 89 -13.5 q42 -13.5 73.5 -41.5 q31.5 -28 50 -71 q18.5 -43 18.5 -103 q0 -24 -4.5 -53.5 q-4.5 -29.5 -10.5 -56.5 q-3 -8 -24 -21 q-21 -13 -50.5 -26.5 q-29.5 -13.5 -61 -26 q-31.5 -12.5 -55.5 -18.5 l-23 36 q18 39 28.5 77.5 q10.5 38.5 10.5 67.5 q-2 58 -26 85.5 q-24 27.5 -62 27.5 q-18 0 -36 -8 q-18 -8 -35 -21 q-17 -13 -33 -29.5 q-16 -16.5 -31 -34.5 l-304 -366 l484 -534 q35 -39 78.5 -45 q43.5 -6 95.5 0 l7 -53 q-29 -9 -61 -19 q-32 -10 -63.5 -18.5 q-31.5 -8.5 -60.5 -13.5 q-29 -5 -53 -5 q-29 0 -51.5 9 q-22.5 9 -42.5 34 l-492 605 l0 -520 q0 -12 35 -29.5 q35 -17.5 108 -31.5 l0 -53 l-475 0 Z" /><glyph glyph-name="uni0199" unicode="&#x199;" d="M1062 23 q-29 -7 -60 -13 q-31 -6 -58.5 -10.5 q-27.5 -4.5 -49 -7 q-21.5 -2.5 -31.5 -2.5 q-42 0 -70 12 q-28 12 -50 41 l-373 476 l0 -405 q0 -8 3.5 -14 q3.5 -6 14.5 -12.5 q11 -6.5 33 -14.5 q22 -8 59 -20 l0 -53 l-427 0 l0 53 q66 17 101.5 30 q35.5 13 35.5 31 l0 782 q1 120 18.5 206.5 q17.5 86.5 49 150.5 q31.5 64 76 112 q44.5 48 100.5 92 q29 23 64 40.5 q35 17.5 69.5 29 q34.5 11.5 67 17.5 q32.5 6 57.5 6 q45 0 90.5 -17 q45.5 -17 82 -39 q36.5 -22 60 -44.5 q23.5 -22.5 23.5 -32.5 q0 -10 -16.5 -29 q-16.5 -19 -39.5 -39.5 q-23 -20.5 -46.5 -38.5 q-23.5 -18 -38.5 -24 q-44 54 -102 91.5 q-58 37.5 -120 37.5 q-34 0 -71.5 -21 q-37.5 -21 -69.5 -74.5 q-32 -53.5 -53 -144.5 q-21 -91 -21 -232 l0 -412 l293 258 q32 29 40.5 46.5 q8.5 17.5 0.5 26.5 q-8 9 -29 12 q-21 3 -47 3 l0 53 l399 0 l0 -53 q-44 -5 -83.5 -17.5 q-39.5 -12.5 -81.5 -46.5 l-329 -259 l371 -430 q14 -16 28.5 -26.5 q14.5 -10.5 32 -16 q17.5 -5.5 40 -6.5 q22.5 -1 51.5 1 l6 -53 Z" /><glyph glyph-name="uni019A" unicode="&#x19a;" d="M582 734 l-155 0 l0 -620 q0 -15 32.5 -31 q32.5 -16 114.5 -30 l0 -53 l-475 0 l0 53 q43 7 71.5 14.5 q28.5 7.5 45.5 15 q17 7.5 24 15.5 q7 8 7 16 l0 620 l-162 0 l-22 22 q5 16 13 39 q8 23 16 39 l155 0 l0 452 q0 45 -6 70 q-6 25 -21 37.5 q-15 12.5 -42 17 q-27 4.5 -69 9.5 l0 50 q41 7 77 14.5 q36 7.5 70 16.5 q34 9 66.5 21 q32.5 12 65.5 28 l39 -36 l0 -680 l162 0 l22 -25 l-29 -75 Z" /><glyph glyph-name="uni019D" unicode="&#x19d;" d="M1150 -30 q-65 7 -103.5 26.5 q-38.5 19.5 -55.5 42.5 l-671 930 l0 -788 q0 -102 -8.5 -174 q-8.5 -72 -26 -125.5 q-17.5 -53.5 -44.5 -92 q-27 -38.5 -65 -72.5 q-26 -23 -58.5 -43 q-32.5 -20 -67 -35 q-34.5 -15 -68 -23.5 q-33.5 -8.5 -60.5 -8.5 q-35 0 -69.5 9.5 q-34.5 9.5 -62 22.5 q-27.5 13 -44.5 27.5 q-17 14.5 -17 25.5 q0 8 15.5 26 q15.5 18 37 37.5 q21.5 19.5 44 36 q22.5 16.5 36.5 22.5 q26 -21 48 -34.5 q22 -13.5 42 -21 q20 -7.5 39 -10.5 q19 -3 40 -3 q29 0 57.5 18 q28.5 18 51 61 q22.5 43 36.5 113.5 q14 70.5 14 175.5 l0 1024 q-33 30 -68.5 47 q-35.5 17 -73.5 23 l0 53 l234 0 q15 0 24.5 -2.5 q9.5 -2.5 19 -10.5 q9.5 -8 21.5 -23.5 q12 -15.5 31 -41.5 l642 -887 l0 850 q0 6 -7 14.5 q-7 8.5 -23.5 17 q-16.5 8.5 -44 16.5 q-27.5 8 -67.5 14 l0 53 l415 0 l0 -53 q-72 -10 -107.5 -29 q-35.5 -19 -35.5 -33 l0 -1175 Z" /><glyph glyph-name="uni019F" unicode="&#x19f;" d="M966 710 q-9 91 -39 174.5 q-30 83.5 -77 147 q-47 63.5 -109.5 101 q-62.5 37.5 -136.5 37.5 q-77 0 -139 -32 q-62 -32 -106.5 -91.5 q-44.5 -59.5 -71 -144.5 q-26.5 -85 -32.5 -192 l711 0 ZM253 610 q4 -107 34.5 -201 q30.5 -94 80 -163.5 q49.5 -69.5 113.5 -110 q64 -40.5 136 -40.5 q76 0 140 32.5 q64 32.5 110.5 97.5 q46.5 65 73.5 161 q27 96 29 224 l-717 0 ZM1158 647 q0 -136 -46 -258.5 q-46 -122.5 -125 -215.5 q-79 -93 -183 -148 q-104 -55 -221 -55 q-123 0 -219 53 q-96 53 -162.5 142 q-66.5 89 -101.5 205 q-35 116 -35 242 q0 136 44 259 q44 123 121.5 216 q77.5 93 182.5 148 q105 55 228 55 q126 0 223 -54.5 q97 -54.5 162 -144.5 q65 -90 98.5 -206 q33.5 -116 33.5 -238 Z" /><glyph glyph-name="Ohorn" unicode="&#x1a0;" d="M971 629 q0 69 -12 136 q-12 67 -34.5 127 q-22.5 60 -54.5 111 q-32 51 -73 88 q-41 37 -89.5 58 q-48.5 21 -103.5 21 q-83 0 -148.5 -37 q-65.5 -37 -110.5 -105.5 q-45 -68.5 -68.5 -166.5 q-23.5 -98 -23.5 -220 q0 -112 29 -211.5 q29 -99.5 78.5 -173.5 q49.5 -74 116 -117.5 q66.5 -43.5 140.5 -43.5 q77 0 142 34 q65 34 112 101 q47 67 73.5 167 q26.5 100 26.5 232 ZM1235 1392 q0 -26 -12 -58 q-12 -32 -39.5 -67 q-27.5 -35 -72.5 -72 q-45 -37 -110 -73 q78 -93 117.5 -217 q39.5 -124 39.5 -258 q0 -136 -46 -258.5 q-46 -122.5 -125 -215.5 q-79 -93 -183 -148 q-104 -55 -221 -55 q-123 0 -219 53 q-96 53 -162.5 142 q-66.5 89 -101.5 205 q-35 116 -35 242 q0 136 44 259 q44 123 121.5 216 q77.5 93 182.5 148 q105 55 228 55 q91 0 165 -28.5 q74 -28.5 134 -79.5 q51 35 72 69.5 q21 34.5 21 59.5 q0 29 -16 55 q-16 26 -44 49 l205 93 q25 -22 41 -52.5 q16 -30.5 16 -63.5 Z" /><glyph glyph-name="ohorn" unicode="&#x1a1;" d="M783 450 q0 79 -23 150.5 q-23 71.5 -60.5 126 q-37.5 54.5 -86 86.5 q-48.5 32 -99.5 32 q-72 0 -120 -28.5 q-48 -28.5 -77 -78.5 q-29 -50 -41.5 -118 q-12.5 -68 -12.5 -147 q0 -79 24.5 -149.5 q24.5 -70.5 63.5 -123.5 q39 -53 87 -84 q48 -31 94 -31 q67 0 114.5 25.5 q47.5 25.5 78 72.5 q30.5 47 44.5 115 q14 68 14 152 ZM1135 1042 q0 -26 -12.5 -58.5 q-12.5 -32.5 -40.5 -68 q-28 -35.5 -74 -73.5 q-46 -38 -113 -74 q36 -59 55.5 -130.5 q19.5 -71.5 19.5 -152.5 q0 -100 -37.5 -193 q-37.5 -93 -101.5 -164.5 q-64 -71.5 -148.5 -114.5 q-84.5 -43 -178.5 -43 q-98 0 -177 36 q-79 36 -135 99 q-56 63 -86.5 150 q-30.5 87 -30.5 189 q0 66 16.5 130 q16.5 64 46.5 121.5 q30 57.5 72.5 106 q42.5 48.5 94.5 83.5 q52 35 112 55 q60 20 126 20 q94 0 169.5 -33 q75.5 -33 131.5 -92 q48 35 68.5 68 q20.5 33 20.5 58 q0 29 -16 55 q-16 26 -44 49 l205 93 q25 -22 41 -52.5 q16 -30.5 16 -63.5 Z" /><glyph glyph-name="uni01A9" unicode="&#x1a9;" d="M1024 360 q-2 -40 -5.5 -91 q-3.5 -51 -7.5 -102 q-4 -51 -7.5 -95.5 q-3.5 -44.5 -5.5 -71.5 l-910 0 l-34 46 l430 582 l-409 587 l0 45 l694 0 q56 0 104.5 2 q48.5 2 108.5 14 l4 -316 l-66 -14 q-18 74 -36 115.5 q-18 41.5 -35 61 q-17 19.5 -33 23.5 q-16 4 -31 4 l-450 0 l327 -476 l-381 -516 l531 0 q31 0 51.5 9.5 q20.5 9.5 36 33.5 q15.5 24 29.5 66 q14 42 32 108 l63 -15 Z" /><glyph glyph-name="uni01AA" unicode="&#x1aa;" d="M25 1280 q0 46 23.5 94 q23.5 48 66.5 87 q43 39 103 64 q60 25 132 25 q67 0 115 -29 q48 -29 78.5 -77 q30.5 -48 45 -110 q14.5 -62 14.5 -127 q0 -152 -8 -309.5 q-8 -157.5 -17 -310.5 q-9 -153 -17 -297 q-8 -144 -8 -269 q0 -120 10.5 -200 q10.5 -80 31 -128 q20.5 -48 49.5 -68 q29 -20 66 -20 q29 0 52 15 q23 15 36.5 37.5 q13.5 22.5 15.5 48.5 q2 26 -11 47 q-2 3 8.5 10 q10.5 7 28.5 15 q18 8 40.5 17 q22.5 9 44 16 q21.5 7 40.5 11 q19 4 29 2 l22 -44 q3 -42 -25.5 -90.5 q-28.5 -48.5 -79 -90 q-50.5 -41.5 -119 -69.5 q-68.5 -28 -146.5 -28 q-71 0 -124.5 31.5 q-53.5 31.5 -88.5 91 q-35 59.5 -52.5 144 q-17.5 84.5 -17.5 191.5 q0 148 7.5 301 q7.5 153 17 302 q9.5 149 17.5 290.5 q8 141.5 8 267.5 l0 19 q0 10 -1 20 q-43 -44 -90.5 -63.5 q-47.5 -19.5 -95.5 -19.5 q-47 0 -84 15 q-37 15 -63 41.5 q-26 26.5 -40 64 q-14 37.5 -14 82.5 ZM282 1213 q41 0 70.5 20.5 q29.5 20.5 49.5 44.5 q-13 82 -43 127 q-30 45 -81 45 q-20 0 -38.5 -9.5 q-18.5 -9.5 -33 -25.5 q-14.5 -16 -23 -37.5 q-8.5 -21.5 -8.5 -45.5 q0 -27 8.5 -49 q8.5 -22 23 -37.5 q14.5 -15.5 34 -24 q19.5 -8.5 41.5 -8.5 Z" /><glyph glyph-name="Uhorn" unicode="&#x1af;" d="M1433 1392 q0 -28 -15 -63.5 q-15 -35.5 -48.5 -75 q-33.5 -39.5 -88.5 -80 q-55 -40.5 -136 -79.5 l0 -570 q0 -131 -33.5 -234 q-33.5 -103 -95.5 -174 q-62 -71 -149.5 -108.5 q-87.5 -37.5 -195.5 -37.5 q-103 0 -191 28.5 q-88 28.5 -152.5 87 q-64.5 58.5 -101 147.5 q-36.5 89 -36.5 211 l0 701 q0 12 -35 30 q-35 18 -107 32 l0 53 l475 0 l0 -53 q-68 -14 -105.5 -31 q-37.5 -17 -37.5 -31 l0 -646 q0 -192 83.5 -298 q83.5 -106 254.5 -106 q71 0 124 33.5 q53 33.5 88 88.5 q35 55 52.5 126 q17.5 71 17.5 145 l0 657 q0 12 -35 30 q-35 18 -107 32 l0 53 l357 0 q16 28 16 51 q0 29 -16.5 55 q-16.5 26 -44.5 49 l206 93 q25 -22 41 -52.5 q16 -30.5 16 -63.5 Z" /><glyph glyph-name="uhorn" unicode="&#x1b0;" d="M1299 1042 q0 -31 -18 -71 q-18 -40 -60 -83.5 q-42 -43.5 -111 -88 q-69 -44.5 -170 -85.5 l0 -450 q0 -62 4.5 -96 q4.5 -34 18.5 -44 q12 -8 38.5 -3.5 q26.5 4.5 77.5 26.5 l15 -55 q-37 -24 -74.5 -46 q-37.5 -22 -70.5 -39 q-33 -17 -58.5 -27 q-25.5 -10 -37.5 -10 q-18 0 -33 10 q-15 10 -27 32 q-12 22 -20.5 57.5 q-8.5 35.5 -12.5 86.5 q-62 -60 -113 -96.5 q-51 -36.5 -93.5 -56.5 q-42.5 -20 -78 -26.5 q-35.5 -6.5 -67.5 -6.5 q-47 0 -90.5 13 q-43.5 13 -77.5 47.5 q-34 34.5 -54.5 94.5 q-20.5 60 -20.5 154 l0 425 q0 48 -2.5 74.5 q-2.5 26.5 -14.5 40 q-12 13.5 -37.5 18.5 q-25.5 5 -71.5 10 l0 50 q40 4 75 9.5 q35 5.5 67.5 13 q32.5 7.5 65 17.5 q32.5 10 68.5 23 l30 -41 l0 -582 q0 -68 9.5 -112 q9.5 -44 27.5 -70 q18 -26 44.5 -36.5 q26.5 -10.5 59.5 -10.5 q28 0 58.5 8 q30.5 8 64 26 q33.5 18 71 47.5 q37.5 29.5 80.5 72.5 l0 442 q0 45 -4 72 q-4 27 -18.5 42 q-14.5 15 -41.5 21 q-27 6 -73 8 l0 50 q81 9 152 26.5 q71 17.5 133 36.5 l32 -41 l0 -124 q43 21 73 43.5 q30 22.5 48.5 44.5 q18.5 22 27 42 q8.5 20 8.5 36 q0 29 -16.5 55 q-16.5 26 -44.5 49 l206 93 q25 -22 41 -52.5 q16 -30.5 16 -63.5 Z" /><glyph glyph-name="uni01B3.RtHook" unicode="&#x1b3;" d="M356 0 l0 53 q91 19 126.5 38.5 q35.5 19.5 35.5 33.5 l0 407 q-37 81 -83.5 168.5 q-46.5 87.5 -94.5 169 q-48 81.5 -93.5 152.5 q-45.5 71 -80.5 119 q-9 11 -20 20.5 q-11 9.5 -28.5 17 q-17.5 7.5 -44.5 11.5 q-27 4 -69 4 l-4 53 q29 4 61.5 8 q32.5 4 64 7.5 q31.5 3.5 59.5 5.5 q28 2 49 2 q53 0 86 -41 q37 -48 79.5 -113 q42.5 -65 85 -138 q42.5 -73 83 -149.5 q40.5 -76.5 75.5 -148.5 l232 420 q25 46 54 86 q29 40 65 70 q36 30 81.5 47 q45.5 17 105.5 17 q50 0 91.5 -18 q41.5 -18 71.5 -48 q30 -30 46.5 -69.5 q16.5 -39.5 16.5 -83.5 q0 -12 -1.5 -25.5 q-1.5 -13.5 -3.5 -26.5 q-2 -13 -4.5 -24 q-2.5 -11 -4.5 -17 q-5 -13 -30 -28 q-25 -15 -56 -29 q-31 -14 -61 -25 q-30 -11 -45 -15 l-20 39 q14 27 26.5 55.5 q12.5 28.5 12.5 64.5 q0 48 -24 82 q-24 34 -70 34 q-38 0 -68.5 -32 q-30.5 -32 -53.5 -74 l-296 -543 l0 -412 q0 -6 8 -14.5 q8 -8.5 26.5 -18.5 q18.5 -10 50 -20 q31.5 -10 78.5 -19 l0 -53 l-515 0 Z" /><glyph glyph-name="uni01B4" unicode="&#x1b4;" d="M426 877 q-39 -5 -62.5 -10 q-23.5 -5 -35 -12.5 q-11.5 -7.5 -12.5 -18.5 q-1 -11 5 -27 l231 -592 l245 675 q45 123 100 203 q55 80 113 126.5 q58 46.5 115 65 q57 18.5 106 18.5 q30 0 61 -5.5 q31 -5.5 56 -14 q25 -8.5 41 -18.5 q16 -10 16 -19 q0 -7 -12.5 -27 q-12.5 -20 -31.5 -43 q-19 -23 -41.5 -45.5 q-22.5 -22.5 -41.5 -34.5 q-39 25 -72 29.5 q-33 4.5 -55 4.5 q-66 0 -127 -61 q-61 -61 -105 -179 l-366 -985 q-44 -119 -98.5 -197.5 q-54.5 -78.5 -112 -124.5 q-57.5 -46 -114.5 -64.5 q-57 -18.5 -106 -18.5 q-30 0 -61.5 5.5 q-31.5 5.5 -56.5 13.5 q-25 8 -41 18.5 q-16 10.5 -16 20.5 q0 7 12.5 26.5 q12.5 19.5 31.5 43 q19 23.5 41 46 q22 22.5 42 34.5 q39 -25 71.5 -30.5 q32.5 -5.5 54.5 -5.5 q31 0 63 14.5 q32 14.5 63 43.5 q31 29 59 73 q28 44 51 104 l24 63 l-331 837 q-9 28 -35 42.5 q-26 14.5 -76 25.5 l0 53 l408 0 l0 -53 Z" /><glyph glyph-name="uni01B7" unicode="&#x1b7;" d="M992 435 q0 -106 -43 -191.5 q-43 -85.5 -113.5 -146 q-70.5 -60.5 -161 -93.5 q-90.5 -33 -185.5 -33 q-86 0 -159 21 q-73 21 -125.5 50 q-52.5 29 -82 59 q-29.5 30 -29.5 48 q0 6 14 26 q14 20 35.5 42 q21.5 22 46.5 41.5 q25 19.5 48 24.5 q22 -41 54.5 -74.5 q32.5 -33.5 71.5 -58.5 q39 -25 81 -38.5 q42 -13.5 84 -13.5 q63 0 116.5 17.5 q53.5 17.5 91.5 53.5 q38 36 59.5 89.5 q21.5 53.5 21.5 125.5 q0 60 -20 114 q-20 54 -56.5 95.5 q-36.5 41.5 -88 65.5 q-51.5 24 -114.5 24 q-46 0 -85 -12 q-39 -12 -88 -37 l-46 -25 l-2 2 q-8 7 -20 22 q-12 15 -18 24 l-1 2 l0 1 l1 1 l401 489 l-363 0 q-17 0 -36 -15.5 q-19 -15.5 -37 -43 q-18 -27.5 -34 -66 q-16 -38.5 -26 -84.5 l-67 14 l33 321 q21 -6 40.5 -9.5 q19.5 -3.5 40.5 -5 q21 -1.5 45 -1.5 l634 0 l27 -45 l-342 -425 q33 6 62 6 q67 0 127.5 -23.5 q60.5 -23.5 106.5 -69.5 q46 -46 73.5 -113 q27.5 -67 27.5 -155 Z" /><glyph glyph-name="uni0228" unicode="&#x228;" d="M689 -229 q0 -37 -20.5 -71 q-20.5 -34 -61.5 -62.5 q-41 -28.5 -102 -49.5 q-61 -21 -142 -32 l-27 56 q49 8 84 21 q35 13 56.5 28 q21.5 15 31.5 32 q10 17 10 33 q0 34 -25 48 q-25 14 -81 19 q2 3 11 27 q7 20 22 65 q13 41 37 115 l-434 0 l0 53 q68 14 105 30.5 q37 16.5 37 30.5 l0 1031 q0 12 -35 30 q-35 18 -107 32 l0 53 l831 0 l35 -27 q-2 -26 -6 -59.5 q-4 -33.5 -10 -68 q-6 -34.5 -12.5 -65.5 q-6.5 -31 -12.5 -50 l-55 0 q-5 92 -25 131 q-20 39 -57 39 l-356 0 l0 -425 l403 0 l28 -30 q-8 -14 -19.5 -31 q-11.5 -17 -24 -33 q-12.5 -16 -25 -30 q-12.5 -14 -23.5 -22 q-15 15 -32.5 25 q-17.5 10 -40 17 q-22.5 7 -53 10 q-30.5 3 -72.5 3 l-141 0 l0 -480 q0 -15 7 -26.5 q7 -11.5 29 -20 q22 -8.5 62 -13 q40 -4.5 106 -4.5 l119 0 q46 0 78.5 7 q32.5 7 57.5 27 q25 20 45.5 56 q20.5 36 41.5 95 l53 -21 q-4 -43 -9 -84 q-5 -41 -11 -76.5 q-6 -35.5 -11.5 -62 q-5.5 -26.5 -9.5 -41.5 l-362 0 l-35 -99 q30 -6 57 -16.5 q27 -10.5 47.5 -26.5 q20.5 -16 32 -37.5 q11.5 -21.5 11.5 -49.5 Z" /><glyph glyph-name="uni0229" unicode="&#x229;" d="M684 -229 q0 -37 -20.5 -71 q-20.5 -34 -61.5 -62.5 q-41 -28.5 -102 -49.5 q-61 -21 -142 -32 l-27 56 q49 8 84 21 q35 13 56.5 28 q21.5 15 31.5 32 q10 17 10 33 q0 34 -25 48 q-25 14 -81 19 q2 3 11 27 q7 20 22 65 q11 33 28 85 q-79 1 -150 33 q-71 34 -125 95 q-54 61 -86 147 q-32 86 -32 192 q0 67 14.5 131 q14.5 64 42 120 q27.5 56 67.5 104 q40 48 92 84 q24 17 53 32 q29 15 60.5 26.5 q31.5 11.5 64.5 18.5 q33 7 63 7 q65 0 117 -17 q52 -17 91.5 -46.5 q39.5 -29.5 67 -69.5 q27.5 -40 45 -85 q17.5 -45 25.5 -93 q8 -48 8 -94 q-18 -20 -53 -39.5 q-35 -19.5 -67 -32.5 l-508 0 q1 -76 21 -143.5 q20 -67.5 56 -117.5 q36 -50 87.5 -79.5 q51.5 -29.5 116.5 -29.5 q31 0 60.5 4 q29.5 4 63.5 17.5 q34 13.5 76 39.5 q42 26 99 70 q13 -7 25 -24 q12 -17 17 -25 q-68 -72 -120 -116 q-52 -44 -98.5 -68.5 q-46.5 -24.5 -92.5 -32.5 l-7 -1 l-26 -76 q30 -6 57 -16.5 q27 -10.5 47.5 -26.5 q20.5 -16 32 -37.5 q11.5 -21.5 11.5 -49.5 ZM501 850 q-50 0 -90.5 -19.5 q-40.5 -19.5 -70.5 -55 q-30 -35.5 -49.5 -85.5 q-19.5 -50 -27.5 -110 l396 0 q23 0 30.5 7.5 q7.5 7.5 7.5 28.5 q0 28 -8 68 q-8 40 -29.5 77 q-21.5 37 -59.5 63 q-38 26 -99 26 Z" /><glyph glyph-name="uni0237" unicode="&#x237;" d="M380 102 q0 -116 -16.5 -196 q-16.5 -80 -44.5 -136 q-28 -56 -64.5 -94.5 q-36.5 -38.5 -76.5 -70.5 q-27 -21 -58 -40 q-31 -19 -62.5 -33 q-31.5 -14 -60.5 -22 q-29 -8 -51 -8 q-34 0 -67.5 8.5 q-33.5 8.5 -60.5 20.5 q-27 12 -44 25.5 q-17 13.5 -17 22.5 q0 10 16.5 29 q16.5 19 39.5 38.5 q23 19.5 47 36.5 q24 17 39 24 q33 -32 73 -44.5 q40 -12.5 78 -12.5 q28 0 55 17 q27 17 48 61 q21 44 34 120 q13 76 13 195 l0 620 q0 51 -2 82 q-2 31 -14.5 48.5 q-12.5 17.5 -40.5 25.5 q-28 8 -80 14 l0 50 q45 7 80 15.5 q35 8.5 66 17.5 q31 9 60.5 20 q29.5 11 63.5 24 l47 0 l0 -858 Z" /><glyph glyph-name="uni023D" unicode="&#x23d;&#xf21f;" d="M969 264 q-4 -43 -9.5 -84 q-5.5 -41 -11 -76.5 q-5.5 -35.5 -11 -62 q-5.5 -26.5 -9.5 -41.5 l-880 0 l0 53 q68 14 105 30.5 q37 16.5 37 30.5 l0 423 l-128 0 l-22 24 l12 37 q8 23 14 39 l124 0 l0 508 q0 12 -35 30 q-35 18 -107 32 l0 53 l475 0 l0 -53 q-68 -14 -105.5 -31 q-37.5 -17 -37.5 -31 l0 -508 l259 0 l25 -23 l-29 -77 l-255 0 l0 -363 q0 -18 8.5 -31.5 q8.5 -13.5 29.5 -23 q21 -9.5 57 -14.5 q36 -5 91 -5 l133 0 q46 0 77.5 7 q31.5 7 55.5 27 q24 20 43.5 56 q19.5 36 40.5 95 l53 -21 Z" /><glyph glyph-name="uni0241" unicode="&#x241;" d="M225 0 l0 53 q87 15 125 29.5 q38 14.5 38 31.5 l0 285 q0 72 24.5 125.5 q24.5 53.5 61 96 q36.5 42.5 79.5 77 q43 34.5 79.5 70 q36.5 35.5 61 75 q24.5 39.5 24.5 90.5 q0 123 -70.5 186 q-70.5 63 -193.5 62 q-48 0 -87 -18 q-39 -18 -67 -47 q-28 -29 -43 -66 q-15 -37 -15 -76 q0 -23 3.5 -43 q3.5 -20 13.5 -38 q-16 -8 -39.5 -15 q-23.5 -7 -49.5 -12.5 q-26 -5.5 -52.5 -9.5 q-26.5 -4 -48.5 -6 l-27 30 q-2 8 -4.5 24.5 q-2.5 16.5 -2.5 31.5 q0 70 37.5 134.5 q37.5 64.5 104 113 q66.5 48.5 157 77.5 q90.5 29 196.5 29 q94 0 165 -22 q71 -22 119 -62.5 q48 -40.5 72 -98 q24 -57.5 24 -127.5 q0 -74 -24.5 -125 q-24.5 -51 -61.5 -89.5 q-37 -38.5 -80 -69 q-43 -30.5 -80 -63.5 q-37 -33 -61.5 -73.5 q-24.5 -40.5 -24.5 -99.5 l0 -346 q0 -15 40 -31 q40 -16 122 -30 l0 -53 l-515 0 Z" /><glyph glyph-name="uni0242" unicode="&#x242;&#xf21e;" d="M150 0 l0 53 q87 15 127.5 29.5 q40.5 14.5 40.5 31.5 l0 150 q0 57 20 97.5 q20 40.5 50 71.5 q30 31 65 56 q35 25 65 50.5 q30 25.5 50 56 q20 30.5 20 72.5 q0 46 -15.5 81.5 q-15.5 35.5 -42 59.5 q-26.5 24 -60.5 36 q-34 12 -71 12 q-31 0 -57 -12 q-26 -12 -44.5 -32 q-18.5 -20 -28.5 -48 q-10 -28 -10 -59 q0 -14 4 -30 q4 -16 9 -30 q-34 -18 -82 -29.5 q-48 -11.5 -95 -16.5 l-27 30 q-2 8 -2.5 18 q-0.5 10 -0.5 18 q0 65 34.5 119 q34.5 54 91.5 93 q57 39 131 60.5 q74 21.5 153 21.5 q69 0 123.5 -18.5 q54.5 -18.5 92.5 -51 q38 -32.5 58.5 -77 q20.5 -44.5 20.5 -95.5 q0 -54 -20 -92 q-20 -38 -50.5 -67.5 q-30.5 -29.5 -65.5 -54 q-35 -24.5 -65.5 -52 q-30.5 -27.5 -50.5 -61.5 q-20 -34 -20 -83 l0 -194 q0 -15 42.5 -31 q42.5 -16 124.5 -30 l0 -53 l-515 0 Z" /><glyph glyph-name="uni0244" unicode="&#x244;&#xf218;" d="M720 95 q71 0 124 33.5 q53 33.5 88.5 88.5 q35.5 55 53 126 q17.5 71 17.5 145 l0 122 l-620 0 l0 -111 q0 -192 83 -298 q83 -106 254 -106 ZM1290 1207 q-68 -14 -105 -31 q-37 -17 -37 -31 l0 -435 l127 0 l25 -23 l-30 -77 l-122 0 l0 -86 q0 -131 -33.5 -234 q-33.5 -103 -95.5 -174 q-62 -71 -149.5 -108.5 q-87.5 -37.5 -195.5 -37.5 q-103 0 -191 28.5 q-88 28.5 -152.5 87 q-64.5 58.5 -101 147.5 q-36.5 89 -36.5 211 l0 166 l-128 0 l-22 25 q5 15 13 37 q8 22 14 38 l123 0 l0 435 q0 12 -35.5 30 q-35.5 18 -107.5 32 l0 53 l475 0 l0 -53 q-68 -14 -105 -31 q-37 -17 -37 -31 l0 -435 l620 0 l0 435 q0 12 -35.5 30 q-35.5 18 -107.5 32 l0 53 l430 0 l0 -53 Z" /><glyph glyph-name="uni0245" unicode="&#x245;&#xf219;" d="M18 53 q68 13 106.5 25.5 q38.5 12.5 48.5 40.5 l380 1075 q8 22 28.5 38.5 q20.5 16.5 45 28 q24.5 11.5 49.5 18.5 q25 7 42 11 l445 -1171 q10 -26 43.5 -42 q33.5 -16 96.5 -24 l0 -53 l-460 0 l0 53 q80 6 108 20.5 q28 14.5 17 43.5 l-344 913 l-322 -911 q-11 -29 22 -42.5 q33 -13.5 115 -23.5 l0 -53 l-421 0 l0 53 Z" /><glyph glyph-name="uni024A" unicode="&#x24a;&#xf212;" d="M562 125 q40 0 82 18.5 q42 18.5 85 48.5 q43 30 84.5 68.5 q41.5 38.5 80.5 78.5 l0 651 q-40 74 -108 117 q-68 43 -152 43 q-64 0 -133.5 -33 q-69.5 -33 -127 -97.5 q-57.5 -64.5 -95 -160 q-37.5 -95.5 -37.5 -221.5 q0 -113 28 -207 q28 -94 74 -162 q46 -68 103 -106 q57 -38 116 -38 ZM894 219 q-47 -60 -93.5 -106.5 q-46.5 -46.5 -95.5 -78 q-49 -31.5 -102 -48 q-53 -16.5 -114 -16.5 q-47 0 -97 18.5 q-50 18.5 -98 55 q-48 36.5 -90 90 q-42 53.5 -74 123.5 q-32 70 -50.5 155 q-18.5 85 -18.5 185 q0 78 17.5 149 q17.5 71 46.5 132.5 q29 61.5 66 113 q37 51.5 75 93 q38 41.5 74.5 71 q36.5 29.5 65.5 47.5 q69 42 140.5 64.5 q71.5 22.5 124.5 22.5 q32 0 64 -4 q32 -4 65 -17 q33 -13 69 -36 q36 -23 75 -61 q18 12 37 27.5 q19 15.5 36.5 31 q17.5 15.5 33 30.5 q15.5 15 26.5 27 l44 -40 q-11 -36 -19 -81 q-7 -38 -12.5 -90 q-5.5 -52 -5.5 -113 l0 -1068 q0 -77 3.5 -132.5 q3.5 -55.5 15 -90.5 q11.5 -35 33.5 -51.5 q22 -16.5 60 -16.5 q23 0 42 9 q19 9 33 24 q14 15 22 34 q8 19 8 39 q0 20 -11 42 q0 8 22 20 q22 12 53 23.5 q31 11.5 63 19.5 q32 8 53 8 l21 -44 q0 -48 -32.5 -97.5 q-32.5 -49.5 -86 -89.5 q-53.5 -40 -121.5 -65.5 q-68 -25.5 -140 -25.5 q-63 0 -106.5 21.5 q-43.5 21.5 -70.5 62 q-27 40.5 -39 100 q-12 59.5 -12 136.5 l0 397 Z" /><glyph glyph-name="uni024B" unicode="&#x24b;&#xf211;" d="M500 120 q32 0 62.5 11.5 q30.5 11.5 60.5 31.5 q30 20 60 46 q30 26 60 55 l0 456 q-17 28 -41 51 q-24 23 -52.5 39 q-28.5 16 -61 24.5 q-32.5 8.5 -65.5 8.5 q-53 0 -101.5 -22 q-48.5 -22 -85.5 -66 q-37 -44 -59 -111.5 q-22 -67.5 -22 -158.5 q0 -85 23 -152.5 q23 -67.5 58.5 -115 q35.5 -47.5 79 -72.5 q43.5 -25 84.5 -25 ZM743 157 q-40 -45 -78 -80 q-38 -35 -77 -59 q-39 -24 -81.5 -36 q-42.5 -12 -92.5 -12 q-57 0 -117 32.5 q-60 32.5 -109.5 93.5 q-49.5 61 -81 149 q-31.5 88 -31.5 199 q0 88 26 160.5 q26 72.5 64.5 128.5 q38.5 56 82.5 95 q44 39 79 60 q57 33 117.5 52.5 q60.5 19.5 106.5 19.5 q28 0 55 -3.5 q27 -3.5 55.5 -14 q28.5 -10.5 59 -30 q30.5 -19.5 65.5 -50.5 q18 10 37.5 23.5 q19.5 13.5 38 27 q18.5 13.5 34 26 q15.5 12.5 24.5 21.5 l34 -32 q-9 -27 -16 -60 q-6 -29 -10.5 -67.5 q-4.5 -38.5 -4.5 -83.5 l0 -876 q0 -115 27 -175.5 q27 -60.5 95 -60.5 q24 0 43 10 q19 10 32.5 25.5 q13.5 15.5 21 35 q7.5 19.5 7.5 38.5 q0 23 -12 41 q9 10 34.5 23 q25.5 13 56 23.5 q30.5 10.5 59 17 q28.5 6.5 42.5 5.5 l23 -46 q0 -41 -29.5 -89 q-29.5 -48 -81 -89.5 q-51.5 -41.5 -121 -69.5 q-69.5 -28 -149.5 -28 q-66 0 -110 23 q-44 23 -70.5 61 q-26.5 38 -37 88 q-10.5 50 -10.5 104 l0 379 Z" /><glyph glyph-name="uni0253" unicode="&#x253;" d="M809 416 q0 100 -19.5 174.5 q-19.5 74.5 -52.5 124 q-33 49.5 -76.5 74 q-43.5 24.5 -90.5 24.5 q-18 0 -45 -8.5 q-27 -8.5 -60 -29.5 q-33 -21 -71.5 -55.5 q-38.5 -34.5 -78.5 -86.5 l0 -425 q40 -27 79.5 -45 q39.5 -18 75 -29.5 q35.5 -11.5 64 -16 q28.5 -4.5 46.5 -4.5 q57 0 100 25.5 q43 25.5 71.5 68 q28.5 42.5 43 97 q14.5 54.5 14.5 112.5 ZM975 497 q0 -58 -17 -119.5 q-17 -61.5 -48.5 -120 q-31.5 -58.5 -76 -111 q-44.5 -52.5 -99.5 -91.5 q-55 -39 -118.5 -62 q-63.5 -23 -133.5 -23 q-22 0 -59 8.5 q-37 8.5 -83 25 q-46 16.5 -98.5 40 q-52.5 23.5 -106.5 52.5 l0 770 q0 123 15 212 q15 89 44 155 q29 66 70.5 115.5 q41.5 49.5 94.5 94.5 q27 23 62.5 42.5 q35.5 19.5 72.5 34 q37 14.5 72.5 22.5 q35.5 8 64.5 8 q48 0 94 -17 q46 -17 82 -39.5 q36 -22.5 58 -44.5 q22 -22 22 -32 q0 -10 -16 -29 q-16 -19 -38.5 -39.5 q-22.5 -20.5 -46 -37.5 q-23.5 -17 -38.5 -24 q-21 26 -46.5 49 q-25.5 23 -54 40.5 q-28.5 17.5 -59.5 28 q-31 10.5 -62 10.5 q-32 0 -69 -21.5 q-37 -21.5 -68.5 -76 q-31.5 -54.5 -52.5 -147.5 q-21 -93 -21 -236 l0 -182 q50 54 99 93.5 q49 39.5 93.5 65 q44.5 25.5 82.5 37.5 q38 12 67 12 q70 0 128.5 -31.5 q58.5 -31.5 100.5 -90.5 q42 -59 65.5 -145.5 q23.5 -86.5 23.5 -195.5 Z" /><glyph glyph-name="uni0254" unicode="&#x254;" d="M868 486 q0 -107 -35 -201 q-35 -94 -96.5 -164 q-61.5 -70 -144.5 -110.5 q-83 -40.5 -179 -40.5 q-75 0 -139 22 q-64 22 -110.5 61.5 q-46.5 39.5 -72.5 93.5 q-26 54 -26 119 q0 36 10.5 67.5 q10.5 31.5 31.5 53.5 q19 6 44 14 q25 8 51.5 15.5 q26.5 7.5 52 14 q25.5 6.5 44.5 10.5 l24 -54 q-28 -26 -43 -55 q-15 -29 -15 -72 q0 -34 15 -66.5 q15 -32.5 40.5 -57.5 q25.5 -25 59.5 -40 q34 -15 71 -15 q52 0 96 23.5 q44 23.5 75 70.5 q31 47 48.5 117 q17.5 70 17.5 164 q0 85 -24.5 151.5 q-24.5 66.5 -65 112.5 q-40.5 46 -93 70 q-52.5 24 -108.5 24 q-29 0 -57 -4 q-28 -4 -60 -16 q-32 -12 -71 -34 q-39 -22 -88 -59 q-6 3 -13 9.5 q-7 6.5 -13.5 14 q-6.5 7.5 -11.5 14.5 q-5 7 -7 11 q58 64 109 105 q51 41 99 64.5 q48 23.5 94.5 32 q46.5 8.5 95.5 8.5 q75 0 146 -32.5 q71 -32.5 126 -93.5 q55 -61 88.5 -149 q33.5 -88 33.5 -199 Z" /><glyph glyph-name="uni0256" unicode="&#x256;" d="M502 120 q32 0 62.5 11.5 q30.5 11.5 60.5 31 q30 19.5 59.5 46 q29.5 26.5 60.5 55.5 l0 458 q-35 57 -92.5 89 q-57.5 32 -127.5 32 q-59 0 -108.5 -22 q-49.5 -22 -85.5 -67 q-36 -45 -56 -112.5 q-20 -67.5 -20 -158.5 q0 -83 23 -150.5 q23 -67.5 59 -114.5 q36 -47 80 -72.5 q44 -25.5 85 -25.5 ZM925 -159 q0 -115 27 -175.5 q27 -60.5 95 -60.5 q29 0 52 15 q23 15 36.5 37.5 q13.5 22.5 15.5 48.5 q2 26 -11 48 q-3 5 20 17.5 q23 12.5 55.5 25 q32.5 12.5 65.5 21 q33 8.5 51 6.5 l21 -45 q2 -39 -26.5 -87 q-28.5 -48 -80 -90 q-51.5 -42 -122 -71 q-70.5 -29 -151.5 -29 q-66 0 -110 23 q-44 23 -70.5 61 q-26.5 38 -37 88 q-10.5 50 -10.5 104 l0 378 q-40 -45 -77.5 -80 q-37.5 -35 -75.5 -58.5 q-38 -23.5 -80 -35.5 q-42 -12 -91 -12 q-59 0 -120.5 32.5 q-61.5 32.5 -111.5 93.5 q-50 61 -82 149 q-32 88 -32 199 q0 61 15.5 122.5 q15.5 61.5 45 119 q29.5 57.5 72 107.5 q42.5 50 95.5 87 q53 37 115.5 58.5 q62.5 21.5 132.5 21.5 q47 0 93.5 -11.5 q46.5 -11.5 100.5 -50.5 l0 366 q0 55 -2 87.5 q-2 32.5 -15.5 50 q-13.5 17.5 -42 24 q-28.5 6.5 -81.5 10.5 l0 49 q92 11 164 29.5 q72 18.5 124 35.5 l33 -32 l0 -1677 Z" /><glyph glyph-name="uni0257" unicode="&#x257;" d="M1329 1419 q0 -9 -16 -26.5 q-16 -17.5 -39 -37 q-23 -19.5 -48.5 -38 q-25.5 -18.5 -45.5 -28.5 q-18 40 -36.5 65 q-18.5 25 -36.5 38.5 q-18 13.5 -35 18 q-17 4.5 -31 4.5 q-32 0 -54 -17 q-22 -17 -35.5 -55.5 q-13.5 -38.5 -20 -100.5 q-6.5 -62 -6.5 -153 l0 -820 q0 -35 1.5 -59 q1.5 -24 4.5 -40.5 q3 -16.5 7 -26.5 q4 -10 10 -17 q4 -5 11.5 -7 q7.5 -2 20.5 0.5 q13 2.5 33 9 q20 6.5 50 18.5 l18 -53 q-93 -62 -156 -93.5 q-63 -31.5 -91 -31.5 q-16 0 -30 10 q-14 10 -25 32.5 q-11 22.5 -18.5 59 q-7.5 36.5 -11.5 90.5 q-41 -46 -78.5 -81.5 q-37.5 -35.5 -76.5 -60 q-39 -24.5 -81 -37 q-42 -12.5 -92 -12.5 q-59 0 -120.5 32.5 q-61.5 32.5 -111.5 93.5 q-50 61 -82 149 q-32 88 -32 199 q0 92 35 184 q35 92 98 166 q63 74 150.5 120 q87.5 46 192.5 46 q47 0 93 -10.5 q46 -10.5 101 -49.5 l0 149 q0 79 9 139 q9 60 27 106.5 q18 46.5 46.5 83.5 q28.5 37 67.5 71 q25 23 53.5 42 q28.5 19 57.5 32 q29 13 56.5 20 q27.5 7 51.5 7 q46 0 85 -16.5 q39 -16.5 68 -38 q29 -21.5 45.5 -43.5 q16.5 -22 16.5 -33 ZM745 263 l0 460 q-34 57 -91 88.5 q-57 31.5 -129 31.5 q-59 0 -108.5 -22 q-49.5 -22 -85.5 -67 q-36 -45 -56 -112.5 q-20 -67.5 -20 -158.5 q0 -83 23 -150.5 q23 -67.5 59 -114.5 q36 -47 80 -72.5 q44 -25.5 85 -25.5 q32 0 62.5 11.5 q30.5 11.5 60.5 31 q30 19.5 60 45.5 q30 26 60 55 Z" /><glyph glyph-name="uni0259" unicode="&#x259;" d="M457 79 q109 0 166 75.5 q57 75.5 68 225.5 l-369 0 q-31 0 -49 -23.5 q-18 -23.5 -18 -63.5 q0 -47 17 -86 q17 -39 45.5 -67.5 q28.5 -28.5 65 -44.5 q36.5 -16 74.5 -16 ZM876 490 q0 -118 -38.5 -219.5 q-38.5 -101.5 -107.5 -175.5 q-57 -62 -131.5 -93.5 q-74.5 -31.5 -164.5 -31.5 q-78 0 -145 24 q-67 24 -116 67 q-49 43 -77 100.5 q-28 57.5 -28 125.5 q0 40 9.5 71.5 q9.5 31.5 26.5 54.5 q29 15 67.5 33 q38.5 18 73.5 32 l448 0 q-3 81 -27 143.5 q-24 62.5 -62.5 105 q-38.5 42.5 -89 65 q-50.5 22.5 -107.5 22.5 q-27 0 -56 -4 q-29 -4 -63 -16 q-34 -12 -75 -34.5 q-41 -22.5 -92 -59.5 q-6 3 -12.5 9.5 q-6.5 6.5 -12.5 14 q-6 7.5 -11 14.5 q-5 7 -8 11 q61 64 113 105.5 q52 41.5 100.5 64.5 q48.5 23 95 32 q46.5 9 96.5 9 q77 0 148 -31.5 q71 -31.5 126 -92 q55 -60.5 87.5 -148 q32.5 -87.5 32.5 -198.5 Z" /><glyph glyph-name="uni025B" unicode="&#x25b;" d="M842 190 q-65 -74 -121 -117.5 q-56 -43.5 -105.5 -66.5 q-49.5 -23 -95 -29.5 q-45.5 -6.5 -89.5 -6.5 q-84 0 -150.5 18.5 q-66.5 18.5 -112 51.5 q-45.5 33 -69.5 79 q-24 46 -24 102 q0 44 18.5 82 q18.5 38 47 69 q28.5 31 64 54.5 q35.5 23.5 70.5 38.5 q-79 29 -123 78 q-44 49 -44 131 q0 34 12.5 66 q12.5 32 34 60.5 q21.5 28.5 51 53 q29.5 24.5 62.5 43.5 q54 32 122.5 47.5 q68.5 15.5 134.5 15.5 q35 0 74 -5.5 q39 -5.5 75 -15.5 q36 -10 67 -25 q31 -15 51 -33 q2 -12 -4 -37.5 q-6 -25.5 -16 -53 q-10 -27.5 -21.5 -53.5 q-11.5 -26 -19.5 -40 l-49 10 q-9 24 -25.5 49.5 q-16.5 25.5 -44 47.5 q-27.5 22 -67 36 q-39.5 14 -92.5 14 q-41 0 -73.5 -12 q-32.5 -12 -55 -32.5 q-22.5 -20.5 -34.5 -47.5 q-12 -27 -12 -57 q0 -32 11 -61.5 q11 -29.5 41 -54 q30 -24.5 83 -41.5 q53 -17 137 -23 l11 -62 q-73 -5 -128 -23 q-55 -18 -91.5 -44.5 q-36.5 -26.5 -54.5 -59 q-18 -32.5 -18 -67.5 q1 -32 16 -60.5 q15 -28.5 43 -51 q28 -22.5 68 -35.5 q40 -13 91 -13 q28 0 59 3 q31 3 67.5 16 q36.5 13 82 39 q45.5 26 103.5 72 l43 -49 Z" /><glyph glyph-name="uni0263" unicode="&#x263;" d="M498 22 q-31 -63 -52 -108 q-21 -45 -33.5 -77 q-12.5 -32 -18 -53.5 q-5.5 -21.5 -5.5 -37.5 q0 -36 10 -61 q10 -25 25.5 -40 q15.5 -15 35 -21.5 q19.5 -6.5 39.5 -6.5 q19 0 37 8.5 q18 8.5 32.5 22.5 q14.5 14 23 33.5 q8.5 19.5 8.5 41.5 q0 27 -3.5 50.5 q-3.5 23.5 -13.5 52.5 q-10 29 -27 68.5 q-17 39.5 -44 98.5 l-14 29 ZM1002 877 q-30 -7 -48.5 -13.5 q-18.5 -6.5 -30 -14 q-11.5 -7.5 -18 -17 q-6.5 -9.5 -13.5 -23.5 l-290 -579 l58 -120 q29 -60 49 -105.5 q20 -45.5 33 -84 q13 -38.5 18.5 -74 q5.5 -35.5 5.5 -76.5 q0 -40 -17 -86.5 q-17 -46.5 -50.5 -87 q-33.5 -40.5 -85 -67.5 q-51.5 -27 -120.5 -27 q-48 0 -89.5 16 q-41.5 16 -72 44.5 q-30.5 28.5 -48 67.5 q-17.5 39 -17.5 86 q0 26 4.5 52.5 q4.5 26.5 15.5 60.5 q11 34 30 77.5 q19 43.5 48 102.5 l72 144 l-310 656 q-11 26 -34.5 41.5 q-23.5 15.5 -73.5 26.5 l0 53 l408 0 l0 -53 q-39 -5 -62 -10.5 q-23 -5.5 -33.5 -13 q-10.5 -7.5 -11 -18.5 q-0.5 -11 6.5 -26 l214 -448 l223 448 q7 15 5.5 25 q-1.5 10 -13 18 q-11.5 8 -35 13.5 q-23.5 5.5 -60.5 11.5 l0 53 l342 0 l0 -53 Z" /><glyph glyph-name="uni0268" unicode="&#x268;" d="M418 1261 q0 -30 -10.5 -56 q-10.5 -26 -28.5 -45 q-18 -19 -42.5 -30 q-24.5 -11 -52.5 -11 q-48 0 -74.5 25.5 q-26.5 25.5 -26.5 75.5 q0 30 10.5 56 q10.5 26 28.5 45 q18 19 42 29.5 q24 10.5 51 10.5 q47 0 75 -24.5 q28 -24.5 28 -75.5 ZM68 0 l0 53 q68 14 102.5 30.5 q34.5 16.5 34.5 30.5 l0 297 l-142 0 l-23 22 q5 16 13.5 39 q8.5 23 16.5 39 l135 0 l0 152 q0 51 -1.5 82.5 q-1.5 31.5 -14 49 q-12.5 17.5 -40.5 25.5 q-28 8 -81 13 l0 50 q71 12 143.5 32 q72.5 20 129.5 45 l44 0 l0 -449 l142 0 l22 -25 l-29 -75 l-135 0 l0 -297 q0 -12 32.5 -29.5 q32.5 -17.5 105.5 -31.5 l0 -53 l-455 0 Z" /><glyph glyph-name="uni0269" unicode="&#x269;" d="M629 143 q-56 -51 -102.5 -84.5 q-46.5 -33.5 -83.5 -53 q-37 -19.5 -65.5 -27.5 q-28.5 -8 -49.5 -8 q-40 0 -66.5 14.5 q-26.5 14.5 -42.5 44 q-16 29.5 -22.5 75 q-6.5 45.5 -6.5 107.5 l0 452 q0 53 -2 84.5 q-2 31.5 -15 48.5 q-13 17 -41 24.5 q-28 7.5 -80 12.5 l0 50 q34 6 71 14 q37 8 73 18 q36 10 69.5 21.5 q33.5 11.5 59.5 23.5 l45 0 l0 -636 q0 -68 3 -107.5 q3 -39.5 10.5 -59.5 q7.5 -20 21.5 -26 q14 -6 37 -6 q12 0 57.5 17 q45.5 17 110.5 63 l19 -62 Z" /><glyph glyph-name="uni026B" unicode="&#x26b;" d="M717 898 q-18 -41 -43 -84 q-25 -43 -56.5 -78 q-31.5 -35 -69 -58 q-37.5 -23 -78.5 -23 q-5 0 -10.5 0.5 q-5.5 0.5 -10.5 1.5 l0 -543 q0 -15 32.5 -31 q32.5 -16 114.5 -30 l0 -53 l-475 0 l0 53 q43 7 71.5 14.5 q28.5 7.5 45.5 15 q17 7.5 24 15.5 q7 8 7 16 l0 633 q-17 8 -32.5 13 q-15.5 5 -32.5 5 q-42 0 -74 -31.5 q-32 -31.5 -69 -87.5 l-61 23 q18 41 43 84 q25 43 56.5 78.5 q31.5 35.5 69 58.5 q37.5 23 78.5 23 q5 0 11 -0.5 q6 -0.5 11 -1.5 l0 375 q0 45 -6 70 q-6 25 -21 37.5 q-15 12.5 -42 17 q-27 4.5 -69 9.5 l0 50 q41 7 77 14.5 q36 7.5 70 16.5 q34 9 66.5 21 q32.5 12 65.5 28 l39 -36 l0 -691 q16 -9 31.5 -14.5 q15.5 -5.5 30.5 -5.5 q40 0 75.5 30.5 q35.5 30.5 69.5 89.5 l61 -25 Z" /><glyph glyph-name="uni0272" unicode="&#x272;" d="M660 0 l0 53 q73 19 105.5 33 q32.5 14 32.5 28 l0 504 q0 59 -6 97 q-6 38 -20.5 59.5 q-14.5 21.5 -37.5 30 q-23 8.5 -57 8.5 q-28 0 -62.5 -12 q-34.5 -12 -74.5 -39.5 q-40 -27.5 -84.5 -72 q-44.5 -44.5 -92.5 -110.5 l0 -486 q0 -116 -18 -195.5 q-18 -79.5 -47 -135.5 q-29 -56 -67 -93.5 q-38 -37.5 -78 -68.5 q-26 -23 -58.5 -41 q-32.5 -18 -65.5 -30.5 q-33 -12.5 -63 -19.5 q-30 -7 -51 -7 q-25 0 -55.5 8 q-30.5 8 -57 19.5 q-26.5 11.5 -44.5 25 q-18 13.5 -18 24.5 q0 10 16.5 28.5 q16.5 18.5 39 38 q22.5 19.5 47 36.5 q24.5 17 39.5 25 q18 -17 37 -28 q19 -11 38.5 -17.5 q19.5 -6.5 37.5 -9 q18 -2.5 33 -2.5 q27 0 54.5 15 q27.5 15 50 57 q22.5 42 36.5 118 q14 76 14 198 l0 666 q0 39 -3 62 q-3 23 -16.5 36 q-13.5 13 -41 19 q-27.5 6 -77.5 12 l0 50 q34 4 69.5 12 q35.5 8 70 17.5 q34.5 9.5 66.5 21.5 q32 12 59 26 l37 -37 l10 -214 q48 61 102 108 q54 47 107 78.5 q53 31.5 102.5 48 q49.5 16.5 88.5 16.5 q47 0 87.5 -15 q40.5 -15 70 -44.5 q29.5 -29.5 46.5 -72.5 q17 -43 17 -99 l0 -615 q0 -7 6.5 -13.5 q6.5 -6.5 22.5 -13.5 q16 -7 42.5 -15.5 q26.5 -8.5 65.5 -18.5 l0 -53 l-455 0 Z" /><glyph glyph-name="uni0275" unicode="&#x275;" d="M266 411 q9 -70 36.5 -129.5 q27.5 -59.5 64.5 -103 q37 -43.5 80 -68.5 q43 -25 85 -25 q63 0 108.5 22 q45.5 22 76 64 q30.5 42 46.5 102.5 q16 60.5 20 137.5 l-517 0 ZM780 511 q-8 70 -33.5 131 q-25.5 61 -62 106 q-36.5 45 -80.5 71 q-44 26 -90 26 q-67 0 -113.5 -25 q-46.5 -25 -76.5 -69 q-30 -44 -44 -105.5 q-14 -61.5 -17 -134.5 l517 0 ZM970 485 q0 -100 -37.5 -193 q-37.5 -93 -101.5 -164.5 q-64 -71.5 -148.5 -114.5 q-84.5 -43 -178.5 -43 q-98 0 -177 36 q-79 36 -135 99 q-56 63 -86.5 150 q-30.5 87 -30.5 189 q0 66 16.5 130 q16.5 64 46.5 121.5 q30 57.5 72.5 106 q42.5 48.5 94.5 83.5 q52 35 112 55 q60 20 126 20 q97 0 175.5 -36 q78.5 -36 134.5 -99.5 q56 -63.5 86.5 -150.5 q30.5 -87 30.5 -189 Z" /><glyph glyph-name="uni0283" unicode="&#x283;" d="M418 74 q0 -97 -18 -171 q-18 -74 -48 -130.5 q-30 -56.5 -68 -98 q-38 -41.5 -78 -73.5 q-27 -21 -59.5 -39.5 q-32.5 -18.5 -67.5 -31.5 q-35 -13 -70 -20.5 q-35 -7.5 -66 -7.5 q-38 0 -75 11.5 q-37 11.5 -66 27 q-29 15.5 -47 31.5 q-18 16 -18 24 q0 9 16.5 27.5 q16.5 18.5 39.5 38.5 q23 20 47 37.5 q24 17.5 39 24.5 q16 -16 37.5 -29.5 q21.5 -13.5 44 -23.5 q22.5 -10 45 -15.5 q22.5 -5.5 41.5 -5.5 q38 0 71 17 q33 17 57.5 53.5 q24.5 36.5 38.5 93.5 q14 57 14 136 q0 79 -8 173 q-8 94 -20 194 q-12 100 -26 201.5 q-14 101.5 -26 195 q-12 93.5 -20 174 q-8 80.5 -8 138.5 q0 91 14 158 q14 67 38.5 117 q24.5 50 58 87.5 q33.5 37.5 73.5 69.5 q27 22 59.5 39 q32.5 17 64.5 29 q32 12 61.5 18 q29.5 6 49.5 6 q36 0 73.5 -12 q37.5 -12 68 -27.5 q30.5 -15.5 49.5 -31.5 q19 -16 19 -25 q0 -9 -16 -28.5 q-16 -19.5 -38.5 -41 q-22.5 -21.5 -46 -39.5 q-23.5 -18 -38.5 -24 q-22 22 -45.5 39.5 q-23.5 17.5 -46 29.5 q-22.5 12 -43 18.5 q-20.5 6.5 -35.5 6.5 q-25 0 -48.5 -16.5 q-23.5 -16.5 -41.5 -50.5 q-18 -34 -29 -84.5 q-11 -50.5 -11 -117.5 q0 -77 8 -170 q8 -93 20 -192.5 q12 -99.5 26 -201 q14 -101.5 26 -195 q12 -93.5 20 -174.5 q8 -81 8 -139 Z" /><glyph glyph-name="uni0289" unicode="&#x289;" d="M486 108 q28 0 58.5 8 q30.5 8 64 26 q33.5 18 71 47.5 q37.5 29.5 80.5 72.5 l0 150 l-415 0 l0 -75 q0 -68 9.5 -112 q9.5 -44 27.5 -70 q18 -26 44.5 -36.5 q26.5 -10.5 59.5 -10.5 ZM1046 412 l-106 0 l0 -148 q0 -62 4.5 -96 q4.5 -34 18.5 -44 q12 -8 38.5 -3.5 q26.5 4.5 77.5 26.5 l15 -55 q-37 -24 -74.5 -46 q-37.5 -22 -70.5 -39 q-33 -17 -58.5 -27 q-25.5 -10 -37.5 -10 q-18 0 -33 10 q-15 10 -27 32 q-12 22 -20.5 57.5 q-8.5 35.5 -12.5 86.5 q-62 -60 -113 -96.5 q-51 -36.5 -93.5 -56.5 q-42.5 -20 -78 -26.5 q-35.5 -6.5 -67.5 -6.5 q-47 0 -90.5 13 q-43.5 13 -77.5 47.5 q-34 34.5 -54.5 94.5 q-20.5 60 -20.5 154 l0 133 l-104 0 l-23 22 q5 16 13.5 38.5 q8.5 22.5 16.5 38.5 l97 0 l0 193 q0 48 -2.5 74.5 q-2.5 26.5 -14.5 40 q-12 13.5 -37.5 18.5 q-25.5 5 -71.5 10 l0 50 q40 4 75 9.5 q35 5.5 67.5 13 q32.5 7.5 65 17.5 q32.5 10 68.5 23 l30 -41 l0 -408 l415 0 l0 193 q0 45 -4 72 q-4 27 -18.5 42 q-14.5 15 -41.5 21 q-27 6 -73 8 l0 50 q81 9 152 26.5 q71 17.5 133 36.5 l32 -41 l0 -408 l113 0 l22 -25 l-29 -74 Z" /><glyph glyph-name="uni028A" unicode="&#x28a;" d="M931 877 q-63 -16 -109 -32 q-20 -7 -37.5 -14.5 q-17.5 -7.5 -29 -15.5 q-11.5 -8 -15 -16.5 q-3.5 -8.5 5.5 -15.5 q88 -78 126 -163.5 q38 -85.5 38 -187.5 q0 -47 -11.5 -99.5 q-11.5 -52.5 -35 -104 q-23.5 -51.5 -59 -98 q-35.5 -46.5 -83 -82.5 q-47.5 -36 -108.5 -57 q-61 -21 -134 -21 q-107 0 -184 35 q-77 35 -127 94 q-50 59 -73.5 136.5 q-23.5 77.5 -23.5 161.5 q0 112 40.5 207.5 q40.5 95.5 132.5 178.5 q9 8 5.5 16 q-3.5 8 -14.5 16.5 q-11 8.5 -28.5 16 q-17.5 7.5 -36.5 14.5 q-46 16 -109 31 l0 53 l357 0 l20 -102 q-48 -36 -82.5 -75.5 q-34.5 -39.5 -57.5 -87 q-23 -47.5 -34 -106 q-11 -58.5 -11 -133.5 q0 -67 21 -128.5 q21 -61.5 57.5 -109 q36.5 -47.5 85.5 -75.5 q49 -28 104 -28 q55 0 97 27 q42 27 70.5 69.5 q28.5 42.5 42.5 95.5 q14 53 14 106 q0 75 -12 143.5 q-12 68.5 -36 126 q-24 57.5 -59.5 102 q-35.5 44.5 -83.5 73.5 l23 102 l354 0 l0 -53 Z" /><glyph glyph-name="uni028C" unicode="&#x28c;" d="M20 53 q30 7 48.5 13 q18.5 6 30 13.5 q11.5 7.5 17.5 17 q6 9.5 12 24.5 l283 743 q9 22 26.5 38.5 q17.5 16.5 38.5 28 q21 11.5 43 18.5 q22 7 39 11 l338 -839 q10 -28 34 -42.5 q24 -14.5 74 -25.5 l0 -53 l-408 0 l0 53 q39 5 63 10 q24 5 36 12.5 q12 7.5 13.5 18.5 q1.5 11 -4.5 27 l-236 595 l-221 -595 q-6 -15 -5 -25.5 q1 -10.5 11.5 -18 q10.5 -7.5 32 -13 q21.5 -5.5 57.5 -11.5 l0 -53 l-323 0 l0 53 Z" /><glyph glyph-name="uni0292" unicode="&#x292;" d="M874 -29 q0 -106 -43 -192.5 q-43 -86.5 -112 -148 q-69 -61.5 -155 -95 q-86 -33.5 -172 -33.5 q-76 0 -141.5 20.5 q-65.5 20.5 -114 48.5 q-48.5 28 -76.5 57.5 q-28 29.5 -28 48.5 q0 7 18 25 q18 18 43.5 37 q25.5 19 53.5 34.5 q28 15.5 49 18.5 q54 -83 111.5 -128 q57.5 -45 128.5 -45 q54 0 101 19 q47 19 82 57 q35 38 55 93.5 q20 55.5 20 129.5 q0 67 -19.5 130.5 q-19.5 63.5 -59 112.5 q-39.5 49 -98.5 77.5 q-59 28.5 -138 26.5 q-40 0 -81.5 -8.5 q-41.5 -8.5 -85.5 -22.5 q-3 3 -8.5 10 q-5.5 7 -10.5 14.5 q-5 7.5 -9.5 15 q-4.5 7.5 -6.5 11.5 l425 545 l-327 0 q-18 0 -36 -8 q-18 -8 -34.5 -27.5 q-16.5 -19.5 -31 -52.5 q-14.5 -33 -25.5 -82 l-56 15 l21 271 q21 -6 39.5 -9.5 q18.5 -3.5 38.5 -5 q20 -1.5 44 -1.5 l576 0 l25 -43 l-400 -521 q14 2 28.5 3 q14.5 1 28.5 1 q79 -2 148.5 -27.5 q69.5 -25.5 121 -76 q51.5 -50.5 81.5 -124.5 q30 -74 30 -171 Z" /><glyph glyph-name="uni0294" unicode="&#x294;" d="M200 0 l0 53 q87 15 127.5 29.5 q40.5 14.5 40.5 31.5 l0 387 q0 77 24.5 140 q24.5 63 61 117 q36.5 54 79.5 102 q43 48 79.5 96 q36.5 48 61 99 q24.5 51 24.5 110 q0 61 -19.5 112.5 q-19.5 51.5 -53.5 88.5 q-34 37 -80 57.5 q-46 20.5 -98 20.5 q-38 0 -73 -18.5 q-35 -18.5 -62 -49 q-27 -30.5 -43.5 -68.5 q-16.5 -38 -16.5 -77 q0 -14 3.5 -30 q3.5 -16 8.5 -30 q-37 -19 -83 -30 q-46 -11 -97 -16 l-27 30 q-2 8 -2 18 l0 18 q0 72 38 137.5 q38 65.5 102.5 114.5 q64.5 49 150 78 q85.5 29 179.5 29 q84 0 149.5 -25.5 q65.5 -25.5 111.5 -71 q46 -45.5 70 -107 q24 -61.5 24 -133.5 q0 -74 -24.5 -131.5 q-24.5 -57.5 -61.5 -106.5 q-37 -49 -80 -93 q-43 -44 -80 -91.5 q-37 -47.5 -61.5 -102.5 q-24.5 -55 -24.5 -125 l0 -449 q0 -15 42.5 -31 q42.5 -16 124.5 -30 l0 -53 l-515 0 Z" /><glyph glyph-name="uni02A0" unicode="&#x2a0;" d="M1327 1419 q0 -9 -17 -27.5 q-17 -18.5 -40.5 -38.5 q-23.5 -20 -49 -38 q-25.5 -18 -42.5 -26 q-34 69 -70 98.5 q-36 29.5 -69 29.5 q-29 0 -50.5 -15.5 q-21.5 -15.5 -36 -52.5 q-14.5 -37 -22 -98 q-7.5 -61 -7.5 -152 l0 -1464 q0 -8 7 -16 q7 -8 23 -16 q16 -8 42 -15.5 q26 -7.5 64 -14.5 l0 -53 l-486 0 l0 53 q94 14 132 29.5 q38 15.5 38 32.5 l0 522 q-40 -45 -76.5 -80 q-36.5 -35 -75 -59 q-38.5 -24 -81.5 -36 q-43 -12 -94 -12 q-56 0 -116.5 33 q-60.5 33 -110.5 94.5 q-50 61.5 -82 150 q-32 88.5 -32 199.5 q0 88 26 159.5 q26 71.5 64.5 127 q38.5 55.5 82.5 94 q44 38.5 79 60.5 q56 33 117 52.5 q61 19.5 107 19.5 q47 0 92.5 -11.5 q45.5 -11.5 99.5 -51.5 l0 147 q0 81 9 141.5 q9 60.5 27.5 107.5 q18.5 47 46.5 84 q28 37 66 72 q25 24 54 42.5 q29 18.5 58 31.5 q29 13 57 20 q28 7 51 7 q44 0 83 -16.5 q39 -16.5 68.5 -38 q29.5 -21.5 46.5 -43.5 q17 -22 17 -33 ZM502 120 q32 0 62.5 11.5 q30.5 11.5 60 31.5 q29.5 20 59 46 q29.5 26 59.5 55 l0 456 q-33 57 -92 90 q-59 33 -126 33 q-51 0 -99.5 -20.5 q-48.5 -20.5 -86.5 -63.5 q-38 -43 -61 -110 q-23 -67 -23 -161 q0 -85 23 -153 q23 -68 59 -116 q36 -48 80 -73.5 q44 -25.5 85 -25.5 Z" /><glyph glyph-name="uni02BC" unicode="&#x2bc;" d="M394 1316 q-4 -82 -55.5 -157.5 q-51.5 -75.5 -148.5 -136.5 l-47 39 q40 41 64 81 q24 40 26 93 q3 55 -33 93.5 q-36 38.5 -113 39.5 l-12 53 q8 10 38.5 24 q30.5 14 66.5 26 q36 12 70 20 q34 8 50 6 q56 -28 76.5 -76.5 q20.5 -48.5 17.5 -104.5 Z" /><glyph glyph-name="uni02C0" unicode="&#x2c0;&#xf1c8;" d="M242 812 l0 109 q0 46 17 83.5 q17 37.5 42 70 q25 32.5 55 62 q30 29.5 55 58.5 q25 29 42 60 q17 31 17 67 q0 37 -13 65.5 q-13 28.5 -35 48.5 q-22 20 -52 30.5 q-30 10.5 -63 10.5 q-23 0 -46.5 -9.5 q-23.5 -9.5 -42 -25.5 q-18.5 -16 -30 -37.5 q-11.5 -21.5 -11.5 -44.5 q0 -9 2.5 -18 q2.5 -9 5.5 -17 q-11 -5 -28 -9.5 q-17 -4.5 -36.5 -8 q-19.5 -3.5 -38.5 -6.5 q-19 -3 -35 -4 l-19 18 q-1 5 -1 10 l0 10 q0 44 26.5 83 q26.5 39 72 68.5 q45.5 29.5 105.5 46.5 q60 17 127 17 q60 0 107 -15.5 q47 -15.5 79 -43 q32 -27.5 49 -64 q17 -36.5 17 -78.5 q0 -45 -17 -79.5 q-17 -34.5 -42 -64 q-25 -29.5 -55 -56 q-30 -26.5 -55 -55 q-25 -28.5 -42 -61.5 q-17 -33 -17 -75 l0 -146 l-140 0 Z" /><glyph glyph-name="circumflex" unicode="&#x2c6;" d="M690 1097 q-12 -19 -21.5 -31.5 q-9.5 -12.5 -26.5 -20.5 l-277 253 l-273 -253 q-17 8 -28 20.5 q-11 12.5 -25 31.5 l269 382 l117 0 l265 -382 Z" /><glyph glyph-name="caron" unicode="&#x2c7;" d="M426 1069 l-117 0 l-266 365 q14 20 23 32.5 q9 12.5 26 21.5 l277 -240 l273 240 q17 -9 27.5 -21.5 q10.5 -12.5 23.5 -32.5 l-267 -365 Z" /><glyph glyph-name="uni02C9" unicode="&#x2c9;" d="M872 1290 q-2 -11 -8 -27 q-6 -16 -12.5 -32.5 q-6.5 -16.5 -13 -31.5 q-6.5 -15 -10.5 -24 l-665 0 l-25 27 q2 11 8 26.5 q6 15.5 12.5 31.5 q6.5 16 13.5 31 q7 15 12 25 l663 0 l25 -26 Z" /><glyph glyph-name="uni02CD" unicode="&#x2cd;" d="M872 -90 q-2 -11 -8 -27 q-6 -16 -12.5 -32.5 q-6.5 -16.5 -13 -31.5 q-6.5 -15 -10.5 -24 l-665 0 l-25 27 q2 11 8 26.5 q6 15.5 12.5 31.5 q6.5 16 13.5 31 q7 15 12 25 l663 0 l25 -26 Z" /><glyph glyph-name="uni02D7" unicode="&#x2d7;" d="M644 549 q-3 -11 -7.5 -24.5 q-4.5 -13.5 -9.5 -27.5 q-5 -14 -10 -26.5 q-5 -12.5 -9 -20.5 l-522 0 l-28 27 q5 22 16 50 q11 28 20 48 l523 0 l27 -26 Z" /><glyph glyph-name="breve" unicode="&#x2d8;" d="M700 1363 q-30 -81 -68 -137 q-38 -56 -81.5 -91 q-43.5 -35 -90 -51 q-46.5 -16 -93.5 -16 q-51 0 -99 16 q-48 16 -90.5 51 q-42.5 35 -80 91 q-37.5 56 -67.5 137 q12 18 28 31 q16 13 33 21 q25 -53 58 -90.5 q33 -37.5 69.5 -60.5 q36.5 -23 74 -33.5 q37.5 -10.5 70.5 -10.5 q35 0 73.5 10.5 q38.5 10.5 75.5 33.5 q37 23 70.5 60.5 q33.5 37.5 57.5 90.5 q36 -16 60 -52 Z" /><glyph glyph-name="dotaccent" unicode="&#x2d9;" d="M313 1263 q0 -31 -10 -58 q-10 -27 -27.5 -47.5 q-17.5 -20.5 -41.5 -32.5 q-24 -12 -51 -12 q-49 0 -72 27 q-23 27 -23 78 q0 31 10.5 58 q10.5 27 28 47.5 q17.5 20.5 40.5 32 q23 11.5 49 11.5 q97 0 97 -104 Z" /><glyph glyph-name="ring" unicode="&#x2da;" d="M345 1243 q0 48 -22 81 q-22 33 -57 33 q-21 0 -38.5 -8.5 q-17.5 -8.5 -31 -23.5 q-13.5 -15 -21 -35.5 q-7.5 -20.5 -7.5 -44.5 q0 -46 22 -78.5 q22 -32.5 56 -32.5 q40 0 69.5 29 q29.5 29 29.5 80 ZM450 1284 q0 -51 -20 -95.5 q-20 -44.5 -52 -76.5 q-32 -32 -72 -50.5 q-40 -18.5 -81 -18.5 q-36 0 -65.5 12.5 q-29.5 12.5 -51 34 q-21.5 21.5 -33.5 51 q-12 29.5 -12 63.5 q0 52 19.5 96.5 q19.5 44.5 51 77.5 q31.5 33 72 51.5 q40.5 18.5 81.5 18.5 q35 0 65 -13 q30 -13 51.5 -35 q21.5 -22 34 -52 q12.5 -30 12.5 -64 Z" /><glyph glyph-name="ogonek" unicode="&#x2db;" d="M498 -299 q-23 -27 -53 -53 q-30 -26 -63 -46.5 q-33 -20.5 -67.5 -33 q-34.5 -12.5 -64.5 -12.5 q-29 0 -58 6 q-29 6 -52.5 22.5 q-23.5 16.5 -38 44.5 q-14.5 28 -14.5 72 q0 90 79 175.5 q79 85.5 234 166.5 l57 -19 q-65 -44 -105.5 -83.5 q-40.5 -39.5 -63 -74.5 q-22.5 -35 -30 -64.5 q-7.5 -29.5 -7.5 -53.5 q0 -37 23.5 -54.5 q23.5 -17.5 59.5 -17.5 q25 0 60.5 17 q35.5 17 77.5 55 l26 -47 Z" /><glyph glyph-name="tilde" unicode="&#x2dc;" d="M770 1356 q-18 -41 -43.5 -84 q-25.5 -43 -57 -78 q-31.5 -35 -69 -58 q-37.5 -23 -78.5 -23 q-37 0 -71 17.5 q-34 17.5 -66.5 38 q-32.5 20.5 -64.5 38 q-32 17.5 -64 17.5 q-41 0 -73.5 -32 q-32.5 -32 -69.5 -87 l-60 22 q18 41 43 84.5 q25 43.5 56.5 79 q31.5 35.5 68.5 58.5 q37 23 78 23 q41 0 77.5 -17.5 q36.5 -17.5 69 -38 q32.5 -20.5 61.5 -38 q29 -17.5 56 -17.5 q41 0 76 31 q35 31 69 90 l62 -26 Z" /><glyph glyph-name="hungarumlaut" unicode="&#x2dd;" d="M137 1045 q-17 4 -32 12 q-15 8 -35 20 l169 417 q12 -2 31 -4.5 q19 -2.5 39 -6 q20 -3.5 38 -7 q18 -3.5 28 -7.5 l25 -46 l-263 -378 ZM438 1045 q-18 4 -33.5 12 q-15.5 8 -33.5 20 l168 417 q12 -2 31 -4.5 q19 -2.5 39 -6 q20 -3.5 38 -7 q18 -3.5 29 -7.5 l24 -46 l-262 -378 Z" /><glyph glyph-name="gravecomb" unicode="&#x300;" d="M-304 1081 q-13 -12 -31 -21.5 q-18 -9.5 -35 -14.5 l-362 377 l24 46 q10 3 33 7.5 q23 4.5 49.5 9 q26.5 4.5 51.5 8 q25 3.5 37 4.5 l233 -416 Z" /><glyph glyph-name="acutecomb" unicode="&#x301;" d="M-591 1045 q-18 3 -37 13.5 q-19 10.5 -30 19.5 l226 419 q12 -1 36 -4 q24 -3 51 -7.5 q27 -4.5 51 -9 q24 -4.5 35 -7.5 l25 -44 l-357 -380 Z" /><glyph glyph-name="uni0302" unicode="&#x302;" d="M-191 1097 q-12 -19 -21.5 -31.5 q-9.5 -12.5 -26.5 -20.5 l-276 253 l-274 -253 q-17 8 -27.5 20.5 q-10.5 12.5 -24.5 31.5 l269 382 l117 0 l264 -382 Z" /><glyph glyph-name="tildecomb" unicode="&#x303;" d="M-164 1356 q-18 -41 -43 -84 q-25 -43 -57 -78 q-32 -35 -69 -58 q-37 -23 -79 -23 q-37 0 -71 17.5 q-34 17.5 -66.5 38 q-32.5 20.5 -64.5 38 q-32 17.5 -64 17.5 q-41 0 -73.5 -32 q-32.5 -32 -69.5 -87 l-60 22 q18 41 43 84.5 q25 43.5 56.5 79 q31.5 35.5 68.5 58.5 q37 23 78 23 q41 0 77.5 -17.5 q36.5 -17.5 69 -38 q32.5 -20.5 61.5 -38 q29 -17.5 56 -17.5 q41 0 76 31 q35 31 69 90 l62 -26 Z" /><glyph glyph-name="uni0304" unicode="&#x304;" d="M-148 1290 q-2 -11 -8 -27 q-6 -16 -12.5 -32.5 q-6.5 -16.5 -13 -31.5 q-6.5 -15 -10.5 -24 l-665 0 l-25 27 q2 11 8 26.5 q6 15.5 12.5 31.5 q6.5 16 13.5 31 q7 15 12 25 l663 0 l25 -26 Z" /><glyph glyph-name="uni0306" unicode="&#x306;" d="M-180 1363 q-30 -81 -68 -137 q-38 -56 -81.5 -91 q-43.5 -35 -90 -51 q-46.5 -16 -93.5 -16 q-51 0 -99 16 q-48 16 -90.5 51 q-42.5 35 -80 91 q-37.5 56 -67.5 137 q12 18 27.5 31 q15.5 13 32.5 21 q25 -53 58 -90.5 q33 -37.5 70 -60.5 q37 -23 74.5 -33.5 q37.5 -10.5 70.5 -10.5 q35 0 73.5 10.5 q38.5 10.5 75.5 33.5 q37 23 70 60.5 q33 37.5 57 90.5 q37 -16 61 -52 Z" /><glyph glyph-name="uni0307" unicode="&#x307;" d="M-403 1263 q0 -31 -10 -58 q-10 -27 -27.5 -47.5 q-17.5 -20.5 -41 -32.5 q-23.5 -12 -50.5 -12 q-49 0 -72.5 27 q-23.5 27 -23.5 78 q0 31 10.5 58 q10.5 27 28 47.5 q17.5 20.5 41 32 q23.5 11.5 49.5 11.5 q96 0 96 -104 Z" /><glyph glyph-name="uni0308" unicode="&#x308;" d="M-199 1263 q0 -31 -10 -58 q-10 -27 -27.5 -47.5 q-17.5 -20.5 -41 -32.5 q-23.5 -12 -50.5 -12 q-49 0 -72.5 27 q-23.5 27 -23.5 78 q0 31 10.5 58 q10.5 27 28 47.5 q17.5 20.5 41 32 q23.5 11.5 49.5 11.5 q96 0 96 -104 ZM-606 1263 q0 -31 -10 -58 q-10 -27 -27.5 -47.5 q-17.5 -20.5 -41.5 -32.5 q-24 -12 -51 -12 q-49 0 -72 27 q-23 27 -23 78 q0 31 10.5 58 q10.5 27 28 47.5 q17.5 20.5 40.5 32 q23 11.5 49 11.5 q97 0 97 -104 Z" /><glyph glyph-name="hookabovecomb" unicode="&#x309;" d="M-340 1333 q0 -27 -18.5 -49 q-18.5 -22 -42.5 -41 q-24 -19 -48 -36 q-24 -17 -35 -35 q-11 -18 -3.5 -38 q7.5 -20 47.5 -45 q-14 -10 -35 -14.5 q-21 -4.5 -36 -6.5 q-62 29 -82 52.5 q-20 23.5 -14 43.5 q6 20 30.5 38 q24.5 18 51.5 36 q27 18 48.5 37.5 q21.5 19.5 21.5 43.5 q0 37 -16.5 54 q-16.5 17 -42.5 17 q-26 0 -43.5 -18.5 q-17.5 -18.5 -17.5 -38.5 q0 -9 9 -23 q-9 -4 -23 -8.5 q-14 -4.5 -30 -8 q-16 -3.5 -32.5 -6.5 q-16.5 -3 -31.5 -4 l-11 11 q-1 4 -1 15 q0 25 19 50 q19 25 49.5 45 q30.5 20 68.5 32 q38 12 77 12 q71 0 106 -32.5 q35 -32.5 35 -82.5 Z" /><glyph glyph-name="uni030A" unicode="&#x30a;" d="M-427 1243 q0 48 -22 81 q-22 33 -56 33 q-21 0 -39 -8.5 q-18 -8.5 -31.5 -23.5 q-13.5 -15 -21 -35.5 q-7.5 -20.5 -7.5 -44.5 q0 -46 22 -78.5 q22 -32.5 57 -32.5 q40 0 69 29 q29 29 29 80 ZM-322 1284 q0 -51 -20 -95.5 q-20 -44.5 -51.5 -76.5 q-31.5 -32 -72 -50.5 q-40.5 -18.5 -80.5 -18.5 q-36 0 -65.5 12.5 q-29.5 12.5 -51.5 34 q-22 21.5 -34 51 q-12 29.5 -12 63.5 q0 52 19.5 96.5 q19.5 44.5 51.5 77.5 q32 33 72 51.5 q40 18.5 82 18.5 q35 0 64.5 -13 q29.5 -13 51.5 -35 q22 -22 34 -52 q12 -30 12 -64 Z" /><glyph glyph-name="uni030B" unicode="&#x30b;" d="M-663 1045 q-17 4 -32 12 q-15 8 -35 20 l169 417 q12 -2 31 -4.5 q19 -2.5 39 -6 q20 -3.5 38 -7 q18 -3.5 28 -7.5 l25 -46 l-263 -378 ZM-362 1045 q-18 4 -33 12 q-15 8 -34 20 l169 417 q12 -2 31 -4.5 q19 -2.5 39 -6 q20 -3.5 37.5 -7 q17.5 -3.5 28.5 -7.5 l25 -46 l-263 -378 Z" /><glyph glyph-name="uni030C" unicode="&#x30c;" d="M-455 1069 l-117 0 l-266 365 q14 20 23.5 32.5 q9.5 12.5 26.5 21.5 l277 -240 l273 240 q17 -9 27.5 -21.5 q10.5 -12.5 23.5 -32.5 l-268 -365 Z" /><glyph glyph-name="uni031B" unicode="&#x31b;" d="M90 1042 q0 -32 -19.5 -74 q-19.5 -42 -65.5 -87.5 q-46 -45.5 -121.5 -92 q-75.5 -46.5 -187.5 -88.5 l-20 72 q59 22 99.5 47.5 q40.5 25.5 65.5 51 q25 25.5 36 49 q11 23.5 11 41.5 q0 29 -16.5 55 q-16.5 26 -44.5 49 l206 93 q25 -22 41 -52.5 q16 -30.5 16 -63.5 Z" /><glyph glyph-name="dotbelowcomb" unicode="&#x323;" d="M-403 -277 q0 -31 -10 -58 q-10 -27 -27.5 -47.5 q-17.5 -20.5 -41 -32.5 q-23.5 -12 -50.5 -12 q-49 0 -72.5 26.5 q-23.5 26.5 -23.5 77.5 q0 31 10.5 58.5 q10.5 27.5 28 48 q17.5 20.5 41 32 q23.5 11.5 49.5 11.5 q96 0 96 -104 Z" /><glyph glyph-name="uni0327" unicode="&#x327;" d="M-333 -229 q0 -37 -20.5 -71 q-20.5 -34 -61.5 -62.5 q-41 -28.5 -102 -49.5 q-61 -21 -142 -32 l-27 56 q49 8 84 21 q35 13 56.5 28 q21.5 15 31.5 32 q10 17 10 33 q0 34 -25 48 q-25 14 -81 19 q2 3 11 27 q7 20 22 65 q15 45 42 129 l93 -2 l-39 -111 q30 -6 57 -16.5 q27 -10.5 47.5 -26.5 q20.5 -16 32 -37.5 q11.5 -21.5 11.5 -49.5 Z" /><glyph glyph-name="uni0328" unicode="&#x328;" d="M-308 -299 q-22 -27 -52 -53 q-30 -26 -63.5 -46.5 q-33.5 -20.5 -67.5 -33 q-34 -12.5 -65 -12.5 q-29 0 -58 6 q-29 6 -52 22.5 q-23 16.5 -38 44.5 q-15 28 -15 72 q0 90 79 175.5 q79 85.5 234 166.5 l57 -19 q-65 -44 -105.5 -83.5 q-40.5 -39.5 -63 -74.5 q-22.5 -35 -30 -64.5 q-7.5 -29.5 -7.5 -53.5 q0 -37 23.5 -54.5 q23.5 -17.5 59.5 -17.5 q25 0 60.5 17 q35.5 17 77.5 55 l26 -47 Z" /><glyph glyph-name="uni0331" unicode="&#x331;" d="M-148 -221 q-2 -11 -8 -26.5 q-6 -15.5 -12.5 -32 q-6.5 -16.5 -13 -31.5 q-6.5 -15 -10.5 -24 l-665 0 l-25 27 q2 11 8 26.5 q6 15.5 12.5 31.5 q6.5 16 13.5 31 q7 15 12 25 l663 0 l25 -27 Z" /><glyph glyph-name="uni033F" unicode="&#x33f;" d="M68 1557 q-2 -11 -8 -26.5 q-6 -15.5 -12.5 -31.5 q-6.5 -16 -13 -30.5 q-6.5 -14.5 -10.5 -23.5 l-1027 0 l-26 27 q3 11 8.5 26 q5.5 15 12.5 31 q7 16 13.5 30.5 q6.5 14.5 11.5 24.5 l1026 0 l25 -27 ZM68 1287 q-2 -11 -8 -26.5 q-6 -15.5 -12.5 -31.5 q-6.5 -16 -13 -30.5 q-6.5 -14.5 -10.5 -23.5 l-1027 0 l-26 27 q3 11 8.5 26 q5.5 15 12.5 31 q7 16 13.5 30.5 q6.5 14.5 11.5 24.5 l1026 0 l25 -27 Z" /><glyph glyph-name="uni035E" unicode="&#x35e;" d="M675 1755 q-3 -11 -9 -27 q-6 -16 -12.5 -32.5 q-6.5 -16.5 -13 -31.5 q-6.5 -15 -10.5 -24 l-1280 0 l-25 27 q2 11 8 26.5 q6 15.5 12.5 31.5 q6.5 16 13.5 31 q7 15 12 25 l1279 0 l25 -26 Z" /><glyph glyph-name="uni035F" unicode="&#x35f;" d="M675 -613 q-3 -11 -9 -27 q-6 -16 -12.5 -32.5 q-6.5 -16.5 -13 -31.5 q-6.5 -15 -10.5 -24 l-1280 0 l-25 28 q2 11 8 26.5 q6 15.5 12.5 31.5 q6.5 16 13.5 30.5 q7 14.5 12 24.5 l1279 0 l25 -26 Z" /><glyph glyph-name="Pi" unicode="&#x3a0;" d="M47 0 l0 53 q68 14 105.5 30.5 q37.5 16.5 37.5 30.5 l0 1031 q0 12 -35.5 30 q-35.5 18 -107.5 32 l0 53 l1197 0 l0 -53 q-69 -14 -106.5 -31 q-37.5 -17 -37.5 -31 l0 -1031 q0 -12 35.5 -29.5 q35.5 -17.5 108.5 -31.5 l0 -53 l-476 0 l0 53 q68 14 105 30.5 q37 16.5 37 30.5 l0 983 q0 12 -12.5 24 q-12.5 12 -37 22 q-24.5 10 -60.5 16.5 q-36 6.5 -82 6.5 l-161 0 q-44 -1 -77.5 -7.5 q-33.5 -6.5 -55.5 -16 q-22 -9.5 -33 -21.5 q-11 -12 -11 -24 l0 -983 q0 -12 35 -29.5 q35 -17.5 108 -31.5 l0 -53 l-476 0 Z" /><glyph glyph-name="uni03A9" unicode="&#x3a9;" d="M109 0 l-34 30 q1 24 3.5 57.5 q2.5 33.5 6.5 70.5 q4 37 9.5 73.5 q5.5 36.5 12.5 68.5 l55 0 q8 -42 16 -74 q8 -32 18.5 -53.5 q10.5 -21.5 25.5 -32 q15 -10.5 36 -10.5 l216 0 q-104 82 -173.5 159 q-69.5 77 -112 151.5 q-42.5 74.5 -60.5 148 q-18 73.5 -18 150.5 q0 65 16.5 131.5 q16.5 66.5 49.5 128 q33 61.5 81.5 114.5 q48.5 53 112.5 92.5 q64 39.5 143 62 q79 22.5 173 22.5 q115 0 210 -37 q95 -37 162.5 -105.5 q67.5 -68.5 104.5 -166 q37 -97.5 37 -219.5 q0 -84 -25 -161 q-25 -77 -73.5 -153 q-48.5 -76 -120 -154 q-71.5 -78 -165.5 -164 l228 0 q21 0 34.5 9.5 q13.5 9.5 25 30 q11.5 20.5 23.5 53.5 q12 33 30 81 l55 -19 q-2 -29 -6 -67.5 q-4 -38.5 -8.5 -78 q-4.5 -39.5 -9.5 -76.5 q-5 -37 -10 -63 l-464 0 l0 130 q56 76 100 135.5 q44 59.5 76.5 110 q32.5 50.5 55 94 q22.5 43.5 36.5 86.5 q14 43 20 88.5 q6 45.5 6 99.5 q0 91 -23.5 172 q-23.5 81 -68.5 142 q-45 61 -111.5 96.5 q-66.5 35.5 -151.5 35.5 q-64 0 -114.5 -22 q-50.5 -22 -89.5 -58 q-39 -36 -66.5 -82 q-27.5 -46 -45.5 -94 q-18 -48 -26 -95 q-8 -47 -8 -84 q0 -57 4 -104.5 q4 -47.5 15 -91.5 q11 -44 31 -88.5 q20 -44.5 52.5 -94.5 q32.5 -50 78.5 -110 q46 -60 110 -136 l0 -130 l-485 0 Z" /><glyph glyph-name="pi" unicode="&#x3c0;" d="M1059 110 q-53 -42 -93 -69.5 q-40 -27.5 -71.5 -43 q-31.5 -15.5 -56.5 -22 q-25 -6.5 -47 -6.5 q-73 0 -108.5 77.5 q-35.5 77.5 -35.5 215.5 q0 64 9 184.5 q9 120.5 29 312.5 q-69 1 -135.5 3 q-66.5 2 -143.5 4 q-9 -111 -14 -229.5 q-5 -118.5 -5 -231.5 q0 -72 2.5 -131 q2.5 -59 8.5 -114 q-14 -9 -46 -22 q-32 -13 -69.5 -26.5 q-37.5 -13.5 -74.5 -25.5 q-37 -12 -59 -18 q-3 3 -8 9.5 q-5 6.5 -10 13.5 q-6 8 -13 16 q27 38 47.5 72 q20.5 34 36 73.5 q15.5 39.5 27.5 90 q12 50.5 22.5 122.5 q10.5 72 20 170.5 q9.5 98.5 20.5 232.5 l-47 0 q-32 0 -57 -2.5 q-25 -2.5 -48.5 -9 q-23.5 -6.5 -47 -19 q-23.5 -12.5 -51.5 -32.5 l-30 44 q30 37 60 70 q30 33 60 58 q30 25 61.5 39 q31.5 14 64.5 14 l641 0 q42 0 78 4 q36 4 67 26 l33 -36 q-54 -75 -110.5 -121 q-56.5 -46 -107.5 -46 l-60 0 q-8 -79 -11 -156 q-3 -77 -3 -144 q0 -177 22 -255.5 q22 -78.5 69 -78.5 q15 0 29.5 1.5 q14.5 1.5 32.5 5.5 q18 4 41.5 12 q23.5 8 55.5 20 l25 -52 Z" /><glyph glyph-name="uni1E03" unicode="&#x1e03;" d="M736 1263 q0 -31 -10 -58 q-10 -27 -27.5 -47.5 q-17.5 -20.5 -41 -32.5 q-23.5 -12 -50.5 -12 q-49 0 -72.5 27 q-23.5 27 -23.5 78 q0 31 10.5 58 q10.5 27 28 47.5 q17.5 20.5 41 32 q23.5 11.5 49.5 11.5 q96 0 96 -104 ZM975 497 q0 -58 -17 -119.5 q-17 -61.5 -48.5 -120 q-31.5 -58.5 -76.5 -111 q-45 -52.5 -100 -91.5 q-55 -39 -119 -62 q-64 -23 -135 -23 q-22 0 -58 9 q-36 9 -81.5 25.5 q-45.5 16.5 -98 39.5 q-52.5 23 -106.5 52 l0 1190 q0 46 -4.5 71 q-4.5 25 -18 37.5 q-13.5 12.5 -38.5 16.5 q-25 4 -66 9 l0 50 q75 16 140 32.5 q65 16.5 128 47.5 l10 -10 q6 -6 13 -12 q7 -7 16 -14 l0 -762 q50 54 99.5 93.5 q49.5 39.5 94.5 65 q45 25.5 83.5 37.5 q38.5 12 67.5 12 q70 0 128 -32 q58 -32 99.5 -92 q41.5 -60 64.5 -145.5 q23 -85.5 23 -193.5 ZM811 411 q0 100 -19.5 175 q-19.5 75 -52.5 125.5 q-33 50.5 -76 76 q-43 25.5 -91 25.5 q-18 0 -45 -8.5 q-27 -8.5 -61 -29.5 q-34 -21 -72.5 -55.5 q-38.5 -34.5 -78.5 -86.5 l0 -425 q40 -27 79.5 -45 q39.5 -18 74.5 -29.5 q35 -11.5 63 -16 q28 -4.5 45 -4.5 q58 0 102 25 q44 25 73 66.5 q29 41.5 44 95 q15 53.5 15 111.5 Z" /><glyph glyph-name="uni1E08" unicode="&#x1e08;" d="M767 -229 q0 -37 -20.5 -71 q-20.5 -34 -61.5 -62.5 q-41 -28.5 -102 -49.5 q-61 -21 -142 -32 l-27 56 q49 8 84 21 q35 13 56.5 28 q21.5 15 31.5 32 q10 17 10 33 q0 34 -25 48 q-25 14 -81 19 q2 3 11 27 q7 20 22 65 q11 33 28 86 q-82 5 -162 41 q-92 42 -164 121 q-72 79 -116 193.5 q-44 114.5 -44 259.5 q0 160 48.5 290 q48.5 130 132.5 222 q84 92 196 142 q112 50 239 50 q54 0 103.5 -8 q49.5 -8 92.5 -21.5 q43 -13.5 78.5 -31.5 q35.5 -18 61.5 -39 q6 -5 -4 -25 q-10 -20 -26.5 -44.5 q-16.5 -24.5 -34.5 -48 q-18 -23.5 -30 -35.5 l-45 9 q-51 60 -119.5 93.5 q-68.5 33.5 -155.5 33.5 q-34 0 -73.5 -12 q-39.5 -12 -78 -38.5 q-38.5 -26.5 -74.5 -69 q-36 -42.5 -63 -103.5 q-27 -61 -43.5 -142 q-16.5 -81 -16.5 -185 q0 -131 37 -228.5 q37 -97.5 95 -162 q58 -64.5 130 -96 q72 -31.5 141 -31.5 q27 0 63 8 q36 8 79 26.5 q43 18.5 92.5 49 q49.5 30.5 103.5 75.5 q5 -3 11 -10.5 q6 -7.5 12 -16 q6 -8.5 11 -16 q5 -7.5 8 -10.5 q-64 -67 -123.5 -113 q-59.5 -46 -116.5 -74.5 q-57 -28.5 -112 -40.5 q-20 -5 -39 -8 l-26 -74 q30 -6 57 -16.5 q27 -10.5 47.5 -26.5 q20.5 -16 32 -37.5 q11.5 -21.5 11.5 -49.5 ZM490 1365 q-17 8 -28 20.5 q-11 12.5 -25 31.5 l380 325 q15 -8 35.5 -20 q20.5 -12 40.5 -24 q20 -12 37 -23.5 q17 -11.5 25 -19.5 l9 -47 l-474 -243 Z" /><glyph glyph-name="uni1E09" unicode="&#x1e09;" d="M673 -229 q0 -37 -20.5 -71 q-20.5 -34 -61.5 -62.5 q-41 -28.5 -102 -49.5 q-61 -21 -142 -32 l-27 56 q49 8 84 21 q35 13 56.5 28 q21.5 15 31.5 32 q10 17 10 33 q0 34 -25 48 q-25 14 -81 19 q2 3 11 27 q7 20 22 65 q11 33 28 85 q-69 3 -134 32 q-71 33 -126 94 q-55 61 -88.5 149 q-33.5 88 -33.5 199 q0 108 39.5 202 q39.5 94 109 163.5 q69.5 69.5 165 110 q95.5 40.5 206.5 40.5 q33 0 70 -5.5 q37 -5.5 71.5 -16 q34.5 -10.5 63 -25 q28.5 -14.5 45.5 -32.5 q2 -12 -4 -39 q-6 -27 -16.5 -57.5 q-10.5 -30.5 -22.5 -58 q-12 -27.5 -21 -41.5 l-47 10 q-11 28 -29.5 55 q-18.5 27 -46 48 q-27.5 21 -64 34 q-36.5 13 -84.5 13 q-50 0 -96 -22 q-46 -22 -81 -68 q-35 -46 -56.5 -115.5 q-21.5 -69.5 -21.5 -164.5 q0 -83 24 -150 q24 -67 64 -114 q40 -47 93 -72.5 q53 -25.5 111 -25.5 q28 0 53 3 q25 3 54 15 q29 12 67 37.5 q38 25.5 93 70.5 l44 -49 q-65 -76 -116.5 -119.5 q-51.5 -43.5 -96 -66 q-44.5 -22.5 -86.5 -28.5 l-8 -1 l-26 -74 q30 -6 57 -16.5 q27 -10.5 47.5 -26.5 q20.5 -16 32 -37.5 q11.5 -21.5 11.5 -49.5 ZM448 1045 q-18 3 -37 13.5 q-19 10.5 -30 19.5 l226 419 q12 -1 36 -4 q24 -3 51 -7.5 q27 -4.5 51 -9 q24 -4.5 35 -7.5 l25 -44 l-357 -380 Z" /><glyph glyph-name="uni1E1C" unicode="&#x1e1c;" d="M689 -229 q0 -37 -20.5 -71 q-20.5 -34 -61.5 -62.5 q-41 -28.5 -102 -49.5 q-61 -21 -142 -32 l-27 56 q49 8 84 21 q35 13 56.5 28 q21.5 15 31.5 32 q10 17 10 33 q0 34 -25 48 q-25 14 -81 19 q2 3 11 27 q7 20 22 65 q13 41 37 115 l-434 0 l0 53 q68 14 105 30.5 q37 16.5 37 30.5 l0 1031 q0 12 -35 30 q-35 18 -107 32 l0 53 l831 0 l35 -27 q-2 -26 -6 -59.5 q-4 -33.5 -10 -68 q-6 -34.5 -12.5 -65.5 q-6.5 -31 -12.5 -50 l-55 0 q-5 92 -25 131 q-20 39 -57 39 l-356 0 l0 -425 l403 0 l28 -30 q-8 -14 -19.5 -31 q-11.5 -17 -24 -33 q-12.5 -16 -25 -30 q-12.5 -14 -23.5 -22 q-15 15 -32.5 25 q-17.5 10 -40 17 q-22.5 7 -53 10 q-30.5 3 -72.5 3 l-141 0 l0 -480 q0 -15 7 -26.5 q7 -11.5 29 -20 q22 -8.5 62 -13 q40 -4.5 106 -4.5 l119 0 q46 0 78.5 7 q32.5 7 57.5 27 q25 20 45.5 56 q20.5 36 41.5 95 l53 -21 q-4 -43 -9 -84 q-5 -41 -11 -76.5 q-6 -35.5 -11.5 -62 q-5.5 -26.5 -9.5 -41.5 l-362 0 l-35 -99 q30 -6 57 -16.5 q27 -10.5 47.5 -26.5 q20.5 -16 32 -37.5 q11.5 -21.5 11.5 -49.5 ZM848 1683 q-30 -81 -68 -137 q-38 -56 -81.5 -91 q-43.5 -35 -90 -51 q-46.5 -16 -93.5 -16 q-51 0 -99 16 q-48 16 -90.5 51 q-42.5 35 -80 91 q-37.5 56 -67.5 137 q12 18 27.5 31 q15.5 13 32.5 21 q25 -53 58 -90.5 q33 -37.5 70 -60.5 q37 -23 74.5 -33.5 q37.5 -10.5 70.5 -10.5 q35 0 73.5 10.5 q38.5 10.5 75.5 33.5 q37 23 70 60.5 q33 37.5 57 90.5 q37 -16 61 -52 Z" /><glyph glyph-name="uni1E1D" unicode="&#x1e1d;" d="M684 -229 q0 -37 -20.5 -71 q-20.5 -34 -61.5 -62.5 q-41 -28.5 -102 -49.5 q-61 -21 -142 -32 l-27 56 q49 8 84 21 q35 13 56.5 28 q21.5 15 31.5 32 q10 17 10 33 q0 34 -25 48 q-25 14 -81 19 q2 3 11 27 q7 20 22 65 q11 33 28 85 q-79 1 -150 33 q-71 34 -125 95 q-54 61 -86 147 q-32 86 -32 192 q0 67 14.5 131 q14.5 64 42 120 q27.5 56 67.5 104 q40 48 92 84 q24 17 53 32 q29 15 60.5 26.5 q31.5 11.5 64.5 18.5 q33 7 63 7 q65 0 117 -17 q52 -17 91.5 -46.5 q39.5 -29.5 67 -69.5 q27.5 -40 45 -85 q17.5 -45 25.5 -93 q8 -48 8 -94 q-18 -20 -53 -39.5 q-35 -19.5 -67 -32.5 l-508 0 q1 -76 21 -143.5 q20 -67.5 56 -117.5 q36 -50 87.5 -79.5 q51.5 -29.5 116.5 -29.5 q31 0 60.5 4 q29.5 4 63.5 17.5 q34 13.5 76 39.5 q42 26 99 70 q13 -7 25 -24 q12 -17 17 -25 q-68 -72 -120 -116 q-52 -44 -98.5 -68.5 q-46.5 -24.5 -92.5 -32.5 l-7 -1 l-26 -76 q30 -6 57 -16.5 q27 -10.5 47.5 -26.5 q20.5 -16 32 -37.5 q11.5 -21.5 11.5 -49.5 ZM854 1363 q-30 -81 -68 -137 q-38 -56 -81.5 -91 q-43.5 -35 -90 -51 q-46.5 -16 -93.5 -16 q-51 0 -99 16 q-48 16 -90.5 51 q-42.5 35 -80 91 q-37.5 56 -67.5 137 q12 18 27.5 31 q15.5 13 32.5 21 q25 -53 58 -90.5 q33 -37.5 70 -60.5 q37 -23 74.5 -33.5 q37.5 -10.5 70.5 -10.5 q35 0 73.5 10.5 q38.5 10.5 75.5 33.5 q37 23 70 60.5 q33 37.5 57 90.5 q37 -16 61 -52 ZM501 850 q-50 0 -90.5 -19.5 q-40.5 -19.5 -70.5 -55 q-30 -35.5 -49.5 -85.5 q-19.5 -50 -27.5 -110 l396 0 q23 0 30.5 7.5 q7.5 7.5 7.5 28.5 q0 28 -8 68 q-8 40 -29.5 77 q-21.5 37 -59.5 63 q-38 26 -99 26 Z" /><glyph glyph-name="endash" unicode="&#x2013;" d="M913 549 q-3 -11 -7 -24.5 q-4 -13.5 -9 -27.5 q-5 -14 -10 -26.5 q-5 -12.5 -9 -20.5 l-792 0 l-28 27 q5 22 16 50 q11 28 20 48 l793 0 l26 -26 Z" /><glyph glyph-name="emdash" unicode="&#x2014;" d="M1536 549 q-5 -22 -16 -52 q-11 -30 -19 -47 l-1415 0 l-28 27 q5 22 16 50 q11 28 20 48 l1415 0 l27 -26 Z" /><glyph glyph-name="quoteleft" unicode="&#x2018;" d="M407 1021 q-9 -12 -41.5 -29.5 q-32.5 -17.5 -71 -32.5 q-38.5 -15 -74.5 -25 q-36 -10 -54 -8 q-40 32 -60 71.5 q-20 39.5 -20 100.5 q0 44 15.5 93 q15.5 49 43.5 96.5 q28 47.5 68 89.5 q40 42 88 73 l51 -40 q-20 -23 -36 -50 q-16 -27 -26.5 -56 q-10.5 -29 -16 -57.5 q-5.5 -28.5 -5.5 -53.5 q0 -48 30 -81.5 q30 -33.5 93 -35.5 l16 -55 Z" /><glyph glyph-name="quoteright" unicode="&#x2019;" d="M403 1279 q0 -44 -15.5 -93.5 q-15.5 -49.5 -44 -96.5 q-28.5 -47 -67.5 -89.5 q-39 -42.5 -87 -73.5 l-52 40 q20 23 36 50.5 q16 27.5 26.5 56.5 q10.5 29 16 57.5 q5.5 28.5 5.5 52.5 q0 48 -30.5 82 q-30.5 34 -91.5 37 l-16 55 q6 8 23 18 q17 10 40 21 q23 11 49 21.5 q26 10.5 51 18.5 q25 8 45.5 12.5 q20.5 4.5 32.5 3.5 q38 -33 58.5 -73 q20.5 -40 20.5 -100 Z" /><glyph glyph-name="quotesinglbase" unicode="&#x201a;" d="M403 53 q0 -45 -15.5 -94 q-15.5 -49 -44 -96.5 q-28.5 -47.5 -67.5 -89.5 q-39 -42 -87 -73 l-52 39 q20 23 36 50.5 q16 27.5 26.5 56.5 q10.5 29 16 57.5 q5.5 28.5 5.5 52.5 q0 49 -30.5 83 q-30.5 34 -91.5 37 l-16 55 q6 8 23 18 q17 10 40 21 q23 11 49 21 q26 10 51 18 q25 8 45.5 12.5 q20.5 4.5 32.5 4.5 q38 -34 58.5 -73.5 q20.5 -39.5 20.5 -99.5 Z" /><glyph glyph-name="quotedblleft" unicode="&#x201c;" d="M408 1021 q-9 -12 -41.5 -29.5 q-32.5 -17.5 -71 -32.5 q-38.5 -15 -74.5 -25 q-36 -10 -54 -8 q-40 32 -60 71.5 q-20 39.5 -20 100.5 q0 44 15.5 93 q15.5 49 44 96.5 q28.5 47.5 68.5 89.5 q40 42 88 73 l50 -40 q-20 -23 -36 -50 q-16 -27 -26.5 -56 q-10.5 -29 -16 -57.5 q-5.5 -28.5 -5.5 -53.5 q0 -48 30 -81.5 q30 -33.5 93 -35.5 l16 -55 ZM850 1021 q-9 -12 -41.5 -29.5 q-32.5 -17.5 -71 -32.5 q-38.5 -15 -74.5 -25 q-36 -10 -54 -8 q-39 32 -59.5 71.5 q-20.5 39.5 -20.5 100.5 q0 44 15.5 93 q15.5 49 43.5 96.5 q28 47.5 68 89.5 q40 42 88 73 l51 -40 q-21 -23 -36.5 -50 q-15.5 -27 -26 -56 q-10.5 -29 -16 -57.5 q-5.5 -28.5 -5.5 -53.5 q0 -48 30 -81.5 q30 -33.5 92 -35.5 l17 -55 Z" /><glyph glyph-name="quotedblright" unicode="&#x201d;" d="M403 1279 q0 -44 -15.5 -93.5 q-15.5 -49.5 -44 -96.5 q-28.5 -47 -67.5 -89.5 q-39 -42.5 -87 -73.5 l-52 40 q20 23 36 50.5 q16 27.5 26.5 56.5 q10.5 29 16 57.5 q5.5 28.5 5.5 52.5 q0 48 -30.5 82 q-30.5 34 -91.5 37 l-16 55 q6 8 23 18 q17 10 40 21 q23 11 49 21.5 q26 10.5 51 18.5 q25 8 45.5 12.5 q20.5 4.5 32.5 3.5 q38 -33 58.5 -73 q20.5 -40 20.5 -100 ZM844 1279 q0 -44 -15.5 -93.5 q-15.5 -49.5 -43.5 -96.5 q-28 -47 -67.5 -89.5 q-39.5 -42.5 -87.5 -73.5 l-50 40 q19 23 35 50.5 q16 27.5 26.5 56.5 q10.5 29 16.5 57.5 q6 28.5 6 52.5 q0 48 -31 82 q-31 34 -92 37 l-16 55 q8 12 40 28.5 q32 16.5 71 31.5 q39 15 75.5 25.5 q36.5 10.5 54.5 9.5 q38 -33 58 -73 q20 -40 20 -100 Z" /><glyph glyph-name="quotedblbase" unicode="&#x201e;" d="M403 53 q0 -45 -15.5 -94 q-15.5 -49 -44 -96.5 q-28.5 -47.5 -67.5 -89.5 q-39 -42 -87 -73 l-52 39 q20 23 36 50.5 q16 27.5 26.5 56.5 q10.5 29 16 57.5 q5.5 28.5 5.5 52.5 q0 49 -30.5 83 q-30.5 34 -91.5 37 l-16 55 q6 8 23 18 q17 10 40 21 q23 11 49 21 q26 10 51 18 q25 8 45.5 12.5 q20.5 4.5 32.5 4.5 q38 -34 58.5 -73.5 q20.5 -39.5 20.5 -99.5 ZM844 53 q0 -45 -15.5 -94 q-15.5 -49 -43.5 -96.5 q-28 -47.5 -67.5 -89.5 q-39.5 -42 -87.5 -73 l-50 39 q19 23 35 50.5 q16 27.5 26.5 56.5 q10.5 29 16.5 57.5 q6 28.5 6 52.5 q0 49 -31 83 q-31 34 -92 37 l-16 55 q8 12 40 28.5 q32 16.5 71 31.5 q39 15 75.5 25.5 q36.5 10.5 54.5 9.5 q38 -34 58 -73.5 q20 -39.5 20 -99.5 Z" /><glyph glyph-name="dagger" unicode="&#x2020;" d="M922 1087 q-7 -17 -18.5 -41 q-11.5 -24 -25 -49.5 q-13.5 -25.5 -27.5 -50.5 q-14 -25 -26 -44 q-68 28 -134.5 43 q-66.5 15 -148.5 20 q2 -69 14 -142.5 q12 -73.5 35 -142.5 q-25 -111 -36 -218.5 q-11 -107.5 -13 -203.5 q-1 -58 5.5 -121.5 q6.5 -63.5 19.5 -124.5 q-9 -7 -24.5 -14.5 q-15.5 -7.5 -33 -14.5 q-17.5 -7 -34.5 -13 q-17 -6 -29 -10 l-32 23 q12 68 20 141 q8 73 7 134 q-2 99 -13 205.5 q-11 106.5 -37 216.5 q23 69 34.5 142.5 q11.5 73.5 14.5 142.5 q-92 -5 -174.5 -20.5 q-82.5 -15.5 -172.5 -42.5 l-28 46 q7 17 18.5 40.5 q11.5 23.5 25 49 q13.5 25.5 27.5 50.5 q14 25 26 44 q66 -28 131.5 -42 q65.5 -14 146.5 -19 q-3 87 -18 164.5 q-15 77.5 -46 150.5 q19 12 44 25.5 q25 13.5 50.5 26.5 q25.5 13 49.5 24 q24 11 41 18 l45 -27 q-28 -93 -42.5 -190.5 q-14.5 -97.5 -19.5 -191.5 q93 5 176.5 19.5 q83.5 14.5 174.5 41.5 l27 -45 Z" /><glyph glyph-name="daggerdbl" unicode="&#x2021;" d="M922 1087 q-7 -17 -18.5 -41 q-11.5 -24 -25 -49.5 q-13.5 -25.5 -27.5 -50.5 q-14 -25 -26 -44 q-68 26 -133.5 41.5 q-65.5 15.5 -147.5 20.5 q2 -61 14 -119 q12 -58 35 -125 q-22 -65 -33 -126 q-11 -61 -14 -118 q93 5 176 20 q83 15 173 42 l27 -45 q-7 -17 -18.5 -41 q-11.5 -24 -25 -49.5 q-13.5 -25.5 -27.5 -50.5 q-14 -25 -26 -44 q-66 23 -132.5 39.5 q-66.5 16.5 -148.5 22.5 q1 -47 5.5 -88 q4.5 -41 12 -79 q7.5 -38 19 -74.5 q11.5 -36.5 27.5 -73.5 q-19 -12 -44 -26 q-25 -14 -50.5 -27 q-25.5 -13 -49 -24 q-23.5 -11 -40.5 -18 l-46 27 q29 96 45 189.5 q16 93.5 19 193.5 q-93 -5 -176 -20.5 q-83 -15.5 -173 -41.5 l-28 46 q7 17 18.5 40.5 q11.5 23.5 25 49 q13.5 25.5 27.5 50.5 q14 25 26 44 q67 -29 132.5 -43 q65.5 -14 146.5 -19 q-4 58 -15 119 q-11 61 -33 125 q23 68 34.5 126 q11.5 58 14.5 119 q-93 -6 -176 -21.5 q-83 -15.5 -173 -41.5 l-28 46 q7 17 18.5 40.5 q11.5 23.5 25 49 q13.5 25.5 27.5 50.5 q14 25 26 44 q67 -29 132.5 -42.5 q65.5 -13.5 147.5 -18.5 q-4 91 -20 166 q-16 75 -44 149 q19 12 44 25.5 q25 13.5 50.5 26.5 q25.5 13 49.5 24 q24 11 41 18 l45 -27 q-25 -94 -41 -189 q-16 -95 -21 -193 q92 5 175.5 19.5 q83.5 14.5 173.5 41.5 l27 -45 Z" /><glyph glyph-name="bullet" unicode="&#x2022;" d="M498 662 q0 -61 -17.5 -111 q-17.5 -50 -49 -86 q-31.5 -36 -75 -56 q-43.5 -20 -96.5 -20 q-48 0 -83.5 16.5 q-35.5 16.5 -59 46.5 q-23.5 30 -35.5 71 q-12 41 -12 89 q0 60 18.5 110 q18.5 50 50.5 86.5 q32 36.5 75.5 56.5 q43.5 20 94.5 20 q45 0 80.5 -16.5 q35.5 -16.5 59.5 -46 q24 -29.5 36.5 -70.5 q12.5 -41 12.5 -90 Z" /><glyph glyph-name="ellipsis" unicode="&#x2026;" d="M1374 126 q0 -36 -12 -66.5 q-12 -30.5 -32.5 -52.5 q-20.5 -22 -48.5 -34.5 q-28 -12.5 -60 -12.5 q-55 0 -85 30 q-30 30 -30 90 q0 36 12.5 66 q12.5 30 33.5 52.5 q21 22.5 49 35 q28 12.5 59 12.5 q52 0 83 -30 q31 -30 31 -90 ZM886 126 q0 -36 -12 -66.5 q-12 -30.5 -32.5 -52.5 q-20.5 -22 -48.5 -34.5 q-28 -12.5 -60 -12.5 q-55 0 -85 30 q-30 30 -30 90 q0 36 12.5 66 q12.5 30 33.5 52.5 q21 22.5 49 35 q28 12.5 59 12.5 q52 0 83 -30 q31 -30 31 -90 ZM399 126 q0 -36 -12 -66.5 q-12 -30.5 -32.5 -52.5 q-20.5 -22 -48.5 -34.5 q-28 -12.5 -60 -12.5 q-55 0 -85 30 q-30 30 -30 90 q0 36 12.5 66 q12.5 30 33.5 52.5 q21 22.5 49 35 q28 12.5 59 12.5 q52 0 83 -30 q31 -30 31 -90 Z" /><glyph glyph-name="perthousand" unicode="&#x2030;" d="M1881 289 q0 72 -11 124.5 q-11 52.5 -30 87 q-19 34.5 -44 51.5 q-25 17 -53 17 q-24 0 -45 -14 q-21 -14 -37.5 -43.5 q-16.5 -29.5 -26 -74 q-9.5 -44.5 -9.5 -105.5 q0 -146 38.5 -214.5 q38.5 -68.5 101.5 -68.5 q50 0 83 59 q33 59 33 181 ZM2047 309 q0 -69 -24 -131 q-24 -62 -65.5 -108.5 q-41.5 -46.5 -96.5 -73.5 q-55 -27 -118 -27 q-64 0 -116 27 q-52 27 -89 73.5 q-37 46.5 -57.5 108.5 q-20.5 62 -20.5 131 q0 70 24 131.5 q24 61.5 65.5 107.5 q41.5 46 97 73 q55.5 27 118.5 27 q64 0 116 -26.5 q52 -26.5 89 -72.5 q37 -46 57 -108 q20 -62 20 -132 ZM1207 289 q0 72 -11.5 124.5 q-11.5 52.5 -30.5 87 q-19 34.5 -45 51.5 q-26 17 -54 17 q-23 0 -44 -14 q-21 -14 -36.5 -43.5 q-15.5 -29.5 -25 -74 q-9.5 -44.5 -9.5 -105.5 q0 -146 38 -214.5 q38 -68.5 101 -68.5 q51 0 84 59 q33 59 33 181 ZM1371 309 q0 -69 -24 -131 q-24 -62 -65.5 -108.5 q-41.5 -46.5 -97 -73.5 q-55.5 -27 -118.5 -27 q-63 0 -114.5 27 q-51.5 27 -88.5 73.5 q-37 46.5 -57.5 108.5 q-20.5 62 -20.5 131 q0 70 24 131.5 q24 61.5 65 107.5 q41 46 97 73 q56 27 119 27 q64 0 116 -26.5 q52 -26.5 89 -72.5 q37 -46 56.5 -108 q19.5 -62 19.5 -132 ZM363 13 q-9 -7 -27.5 -13.5 q-18.5 -6.5 -39 -13 q-20.5 -6.5 -40 -11.5 q-19.5 -5 -32.5 -9 l-24 34 l875 1192 q13 7 30.5 13.5 q17.5 6.5 36.5 12.5 q19 6 37.5 11 q18.5 5 32.5 8 l28 -32 l-877 -1192 ZM491 877 q0 72 -11.5 124.5 q-11.5 52.5 -31 87 q-19.5 34.5 -45 51 q-25.5 16.5 -53.5 16.5 q-23 0 -44 -14 q-21 -14 -37 -43 q-16 -29 -25.5 -73.5 q-9.5 -44.5 -9.5 -105.5 q0 -146 38 -214.5 q38 -68.5 101 -68.5 q51 0 84.5 59 q33.5 59 33.5 181 ZM656 897 q0 -69 -24 -131 q-24 -62 -65.5 -108.5 q-41.5 -46.5 -97.5 -73.5 q-56 -27 -119 -27 q-63 0 -115 27 q-52 27 -88.5 73.5 q-36.5 46.5 -57 108.5 q-20.5 62 -20.5 131 q0 69 23.5 131 q23.5 62 65 108 q41.5 46 97 73 q55.5 27 118.5 27 q64 0 116.5 -26.5 q52.5 -26.5 89.5 -72.5 q37 -46 57 -108 q20 -62 20 -132 Z" /><glyph glyph-name="guilsinglleft" unicode="&#x2039;" d="M449 12 l-374 418 l0 35 q0 14 0.5 25 q0.5 11 1.5 13 l372 415 l47 -35 l-10 -18 q-9 -18 -24.5 -47.5 q-15.5 -29.5 -35.5 -67 q-20 -37.5 -41 -76.5 q-21 -39 -40.5 -76.5 q-19.5 -37.5 -35 -66.5 q-15.5 -29 -25 -46.5 q-9.5 -17.5 -8.5 -17.5 l221 -420 l-48 -35 Z" /><glyph glyph-name="guilsinglright" unicode="&#x203a;" d="M556 429 l-373 -417 l-48 35 l221 419 l-220 417 l47 35 l372 -416 l1 -73 Z" /><glyph glyph-name="fraction" unicode="&#x2044;" d="M314 3 q-23 -11 -51 -18.5 q-28 -7.5 -55 -14.5 l-25 30 l805 1203 q20 8 49.5 17.5 q29.5 9.5 51.5 14.5 l25 -28 l-800 -1204 Z" /><glyph glyph-name="Euro" unicode="&#x20ac;" d="M645 457 l-319 0 q12 -100 41 -168.5 q29 -68.5 68.5 -111 q39.5 -42.5 86.5 -61 q47 -18.5 96 -18.5 q29 0 58 7.5 q29 7.5 62.5 25.5 q33.5 18 73.5 48.5 q40 30.5 91 76.5 q12 -8 23 -25.5 q11 -17.5 19 -26.5 q-60 -68 -110 -113 q-50 -45 -97 -72 q-47 -27 -93.5 -38 q-46.5 -11 -98.5 -11 q-76 0 -145.5 29.5 q-69.5 29.5 -124.5 90 q-55 60.5 -92 152 q-37 91.5 -49 215.5 l-89 0 l-24 28 q5 15 11.5 35.5 q6.5 20.5 12.5 36.5 l84 0 l0 12 q0 29 1.5 57.5 q1.5 28.5 3.5 55.5 l-59 0 l-24 28 q5 15 11.5 35.5 q6.5 20.5 12.5 36.5 l72 0 q21 113 65.5 198 q44.5 85 108.5 141.5 q64 56.5 146 85 q82 28.5 178 28.5 q50 0 91.5 -8 q41.5 -8 76.5 -21.5 q35 -13.5 64.5 -31.5 q29.5 -18 55.5 -39 q6 -5 -4 -24 q-10 -19 -26.5 -43 q-16.5 -24 -34.5 -46.5 q-18 -22.5 -30 -34.5 l-45 9 q-24 28 -47 50.5 q-23 22.5 -49.5 38.5 q-26.5 16 -58.5 24.5 q-32 8.5 -75 8.5 q-33 0 -69 -14 q-36 -14 -68.5 -51 q-32.5 -37 -59 -102.5 q-26.5 -65.5 -39.5 -168.5 l357 0 l28 -25 l-28 -75 l-365 0 q-2 -20 -2 -41 l0 -84 l327 0 l28 -25 l-28 -75 Z" /><glyph glyph-name="trademark" unicode="&#x2122;" d="M172 807 l0 28 q36 8 48 14.5 q12 6.5 12 12.5 l0 353 l-107 0 q-6 0 -11.5 -2.5 q-5.5 -2.5 -10.5 -10 q-5 -7.5 -11 -20.5 q-6 -13 -15 -34 l-23 7 q0 8 1.5 22.5 q1.5 14.5 4 30.5 q2.5 16 5 30 q2.5 14 4.5 22 l407 0 l14 -10 q-1 -9 -2 -22.5 q-1 -13.5 -2.5 -28.5 q-1.5 -15 -4 -28.5 q-2.5 -13.5 -5.5 -22.5 l-21 0 q-8 32 -13.5 49.5 q-5.5 17.5 -22.5 17.5 l-103 0 l0 -353 q0 -5 11.5 -12 q11.5 -7 49.5 -15 l0 -28 l-205 0 ZM1110 1232 q-10 0 -22.5 -2 q-12.5 -2 -25.5 -7 l4 -365 q0 -5 12.5 -11.5 q12.5 -6.5 41.5 -11.5 l0 -28 l-189 0 l0 28 q26 5 41.5 11.5 q15.5 6.5 15.5 11.5 l-4 295 l-164 -346 l-33 0 l-166 345 l-3 -294 q0 -5 12.5 -11.5 q12.5 -6.5 40.5 -11.5 l0 -28 l-161 0 l0 28 q27 5 40 11.5 q13 6.5 13 11.5 l4 364 q-14 6 -28 8 q-14 2 -25 2 l0 28 l125 0 q8 0 12 -5.5 q4 -5.5 14 -25.5 l150 -305 l146 305 q10 22 14.5 26.5 q4.5 4.5 12.5 4.5 l122 0 l0 -28 Z" /><glyph glyph-name="partialdiff" unicode="&#x2202;" d="M770 586 q-16 56 -48.5 103 q-32.5 47 -73 81.5 q-40.5 34.5 -84.5 53.5 q-44 19 -84 19 q-56 0 -97.5 -28 q-41.5 -28 -69 -77.5 q-27.5 -49.5 -41.5 -117 q-14 -67.5 -14 -147.5 q0 -79 24 -149.5 q24 -70.5 61.5 -123.5 q37.5 -53 83 -84 q45.5 -31 87.5 -31 q57 0 104.5 34 q47.5 34 81 97.5 q33.5 63.5 52 154.5 q18.5 91 18.5 204 l0 11 ZM959 722 q0 -152 -23 -266.5 q-23 -114.5 -60.5 -198 q-37.5 -83.5 -86 -139 q-48.5 -55.5 -99 -88.5 q-50.5 -33 -100 -46.5 q-49.5 -13.5 -89.5 -13.5 q-99 0 -178 36 q-79 36 -134 99 q-55 63 -84.5 150 q-29.5 87 -29.5 189 q0 99 35.5 192.5 q35.5 93.5 95 165.5 q59.5 72 137.5 115.5 q78 43.5 163 43.5 q29 0 65.5 -13 q36.5 -13 73 -35 q36.5 -22 69.5 -50.5 q33 -28.5 56 -58.5 q-5 145 -37.5 243 q-32.5 98 -80.5 157 q-48 59 -103.5 84 q-55.5 25 -105.5 25 q-33 0 -62.5 -4 q-29.5 -4 -60 -16 q-30.5 -12 -65 -33.5 q-34.5 -21.5 -77.5 -55.5 l-48 35 l128 159 q58 23 109.5 36 q51.5 13 102.5 13 q55 0 113 -11.5 q58 -11.5 112.5 -41.5 q54.5 -30 102.5 -81.5 q48 -51.5 83.5 -132 q35.5 -80.5 56.5 -193.5 q21 -113 21 -265 Z" /><glyph glyph-name="emptyset" unicode="&#x2205;" d="M222 629 q0 -101 29 -190.5 q29 -89.5 82 -160.5 l594 797 q-54 44 -118 67.5 q-64 23.5 -134 23.5 q-94 0 -176.5 -42.5 q-82.5 -42.5 -144 -115.5 q-61.5 -73 -97 -170.5 q-35.5 -97.5 -35.5 -208.5 ZM1128 629 q0 101 -29.5 190.5 q-29.5 89.5 -82.5 161.5 l-593 -797 q54 -44 118 -67.5 q64 -23.5 134 -23.5 q94 0 176.5 42.5 q82.5 42.5 144 115.5 q61.5 73 97 170.5 q35.5 97.5 35.5 207.5 ZM80 630 q0 91 21.5 175.5 q21.5 84.5 60 157.5 q38.5 73 93 133.5 q54.5 60.5 121 103.5 q66.5 43 142 66.5 q75.5 23.5 157.5 23.5 q91 0 174 -29 q83 -29 155 -82 l99 133 q30 17 70.5 30 q40.5 13 71.5 21 l30 -35 l-176 -236 q79 -90 125 -208 q46 -118 46 -254 q0 -137 -47 -257 q-47 -120 -128 -209.5 q-81 -89.5 -189 -141.5 q-108 -52 -231 -52 q-91 0 -174 29 q-83 29 -155 81 l-94 -127 q-9 -8 -26.5 -16 q-17.5 -8 -38.5 -15.5 q-21 -7.5 -42.5 -14 q-21.5 -6.5 -38.5 -10.5 l-31 35 l176 236 q-80 90 -125.5 208 q-45.5 118 -45.5 254 Z" /><glyph glyph-name="Delta" unicode="&#x2206;" d="M1101 0 l-1029 0 l-18 54 q89 236 171 456 q35 94 71.5 193 q36.5 99 71.5 194 q35 95 65.5 180 q30.5 85 53.5 150 q32 28 73.5 50.5 q41.5 22.5 77.5 39.5 q27 -74 62 -167.5 q35 -93.5 74.5 -196 q39.5 -102.5 80.5 -209 q41 -106.5 80 -206.5 q91 -235 189 -484 l-23 -54 ZM879 176 q-63 161 -123 318 q-26 67 -53.5 139 q-27.5 72 -54.5 143 q-27 71 -52.5 137.5 q-25.5 66.5 -46.5 123.5 q-23 -63 -48.5 -134 q-25.5 -71 -52 -143 q-26.5 -72 -53 -143.5 q-26.5 -71.5 -50.5 -136.5 l-112 -304 q-7 -19 -8.5 -29.5 q-1.5 -10.5 8.5 -15 q10 -4.5 35.5 -5.5 q25.5 -1 73.5 -1 l426 0 q49 0 75 1 q26 1 36.5 5.5 q10.5 4.5 8.5 15 q-2 10.5 -9 29.5 Z" /><glyph glyph-name="minus" unicode="&#x2212;" d="M789 597 q-3 -10 -7.5 -23 q-4.5 -13 -9.5 -26.5 q-5 -13.5 -10 -25.5 q-5 -12 -9 -20 l-667 0 l-28 27 q3 10 7 22.5 q4 12.5 9 25.5 q5 13 10 25 q5 12 10 22 l668 0 l27 -27 Z" /><glyph glyph-name="periodcentered" unicode="&#x2219;" d="M290 717 q0 -32 -10.5 -58.5 q-10.5 -26.5 -29 -46 q-18.5 -19.5 -43.5 -30.5 q-25 -11 -54 -11 q-48 0 -75.5 26.5 q-27.5 26.5 -27.5 80.5 q0 32 11 58.5 q11 26.5 29.5 46 q18.5 19.5 43.5 30.5 q25 11 52 11 q47 0 75.5 -26.5 q28.5 -26.5 28.5 -80.5 Z" /><glyph glyph-name="radical" unicode="&#x221a;" d="M1261 1425 q-3 -11 -7 -24.5 q-4 -13.5 -9 -28 q-5 -14.5 -10 -28.5 l-7 -22 l-159 0 l-337 -1253 q-9 -22 -30 -39 q-21 -17 -46 -29.5 q-25 -12.5 -48.5 -20 q-23.5 -7.5 -36.5 -10.5 l-394 837 l-134 0 l-27 29 q5 20 16 49 q11 29 20 49 l254 1 l347 -730 l344 1247 l236 0 l28 -27 Z" /><glyph glyph-name="infinity" unicode="&#x221e;" d="M352 431 q30 0 54 4 q24 4 50 17 q26 13 57 36 q31 23 74 62 q-21 27 -46.5 56 q-25.5 29 -56.5 52 q-31 23 -66.5 38 q-35.5 15 -75.5 15 q-43 0 -70 -13.5 q-27 -13.5 -42 -33 q-15 -19.5 -20.5 -42.5 q-5.5 -23 -5.5 -42 q0 -21 9.5 -47 q9.5 -26 28 -48.5 q18.5 -22.5 46.5 -38 q28 -15.5 64 -15.5 ZM1013 724 q-29 0 -55.5 -6 q-26.5 -6 -54 -20 q-27.5 -14 -59 -37.5 q-31.5 -23.5 -71.5 -57.5 q21 -27 47.5 -55 q26.5 -28 58 -51 q31.5 -23 68 -37.5 q36.5 -14.5 76.5 -14.5 q42 0 69 13.5 q27 13.5 42.5 33 q15.5 19.5 21 42.5 q5.5 23 5.5 42 q0 21 -9.5 46.5 q-9.5 25.5 -28 48 q-18.5 22.5 -46.5 38 q-28 15.5 -64 15.5 ZM416 855 q51 0 95.5 -16 q44.5 -16 82.5 -42 q38 -26 69.5 -58 q31.5 -32 57.5 -65 q57 51 104 85.5 q47 34.5 88 55.5 q41 21 79.5 30.5 q38.5 9.5 77.5 9.5 q42 0 82 -17.5 q40 -17.5 70.5 -49 q30.5 -31.5 48.5 -74.5 q18 -43 18 -95 q0 -59 -28 -116 q-28 -57 -75 -102 q-47 -45 -109 -73 q-62 -28 -129 -28 q-51 0 -96 16 q-45 16 -84 42 q-39 26 -72 58 q-33 32 -59 65 q-63 -56 -109.5 -91 q-46.5 -35 -85 -55 q-38.5 -20 -73.5 -27.5 q-35 -7.5 -75 -7.5 q-42 0 -81.5 17.5 q-39.5 17.5 -70 49 q-30.5 31.5 -49 74.5 q-18.5 43 -18.5 95 q0 59 28 116 q28 57 75 102 q47 45 108.5 73 q61.5 28 129.5 28 Z" /><glyph glyph-name="integral" unicode="&#x222b;" d="M767 1431 q0 -9 -16 -28 q-16 -19 -38 -39.5 q-22 -20.5 -45.5 -38.5 q-23.5 -18 -39.5 -25 q-22 34 -43.5 57 q-21.5 23 -41.5 36 q-20 13 -37.5 18.5 q-17.5 5.5 -31.5 5.5 q-28 0 -50 -14.5 q-22 -14.5 -37.5 -50 q-15.5 -35.5 -23.5 -95.5 q-8 -60 -8 -151 q0 -62 3.5 -146.5 q3.5 -84.5 9 -181 q5.5 -96.5 12 -199 q6.5 -102.5 12 -200.5 q5.5 -98 9 -186 q3.5 -88 3.5 -155 q0 -87 -20 -155 q-20 -68 -50.5 -121 q-30.5 -53 -68 -92.5 q-37.5 -39.5 -72.5 -67.5 q-27 -22 -58.5 -40 q-31.5 -18 -62.5 -31.5 q-31 -13.5 -59.5 -21 q-28.5 -7.5 -50.5 -7.5 q-35 0 -68.5 8.5 q-33.5 8.5 -60 21 q-26.5 12.5 -43 26 q-16.5 13.5 -16.5 23.5 q0 10 16 28.5 q16 18.5 38.5 38 q22.5 19.5 47 37 q24.5 17.5 40.5 25.5 q32 -32 72.5 -46 q40.5 -14 78.5 -14 q27 0 53.5 16 q26.5 16 47.5 56 q21 40 34 108.5 q13 68.5 13 172.5 q0 55 -3.5 137.5 q-3.5 82.5 -9 179 q-5.5 96.5 -12 199.5 q-6.5 103 -12 200.5 q-5.5 97.5 -9 182.5 q-3.5 85 -3.5 144 q0 83 12 145.5 q12 62.5 34 110.5 q22 48 54 85.5 q32 37.5 72 70.5 q55 46 113 69 q58 23 101 23 q45 0 84.5 -15 q39.5 -15 68.5 -35 q29 -20 45.5 -40 q16.5 -20 16.5 -29 Z" /><glyph glyph-name="approxequal" unicode="&#x2248;" d="M855 478 q-51 -81 -115 -124 q-64 -43 -135 -43 q-42 0 -83 15.5 q-41 15.5 -81.5 33.5 q-40.5 18 -81 33.5 q-40.5 15.5 -80.5 15.5 q-47 0 -84.5 -26.5 q-37.5 -26.5 -81.5 -74.5 l-58 62 q51 82 113.5 125 q62.5 43 133.5 43 q45 0 89.5 -15.5 q44.5 -15.5 86 -33.5 q41.5 -18 79 -33.5 q37.5 -15.5 69.5 -15.5 q23 0 46.5 8.5 q23.5 8.5 45 22.5 q21.5 14 41 32.5 q19.5 18.5 34.5 39.5 l62 -65 ZM855 750 q-51 -81 -115 -124 q-64 -43 -135 -43 q-42 0 -83 15.5 q-41 15.5 -81.5 33.5 q-40.5 18 -81 33.5 q-40.5 15.5 -80.5 15.5 q-47 0 -84.5 -26.5 q-37.5 -26.5 -81.5 -74.5 l-58 63 q51 82 113.5 125 q62.5 43 133.5 43 q45 0 89.5 -15.5 q44.5 -15.5 86 -33.5 q41.5 -18 79 -33.5 q37.5 -15.5 69.5 -15.5 q23 0 46.5 8.5 q23.5 8.5 45 22.5 q21.5 14 41 32.5 q19.5 18.5 34.5 39.5 l62 -66 Z" /><glyph glyph-name="notequal" unicode="&#x2260;" d="M667 771 l157 0 l27 -27 q-3 -10 -7.5 -23 q-4.5 -13 -9.5 -25.5 q-5 -12.5 -9.5 -24.5 q-4.5 -12 -7.5 -21 l-226 0 l-113 -179 l346 0 l27 -27 q-5 -21 -16.5 -48.5 q-11.5 -27.5 -17.5 -45.5 l-416 0 l-126 -200 q-9 -7 -27.5 -14.5 q-18.5 -7.5 -40 -14 q-21.5 -6.5 -42 -12.5 q-20.5 -6 -32.5 -10 l-27 38 l134 213 l-154 0 l-28 29 q5 20 16 46 q11 26 20 46 l222 0 l112 179 l-342 0 l-28 27 q5 21 16 48 q11 27 20 46 l410 0 l127 201 q28 17 69 29 q41 12 72 20 l31 -35 l-136 -215 Z" /><glyph glyph-name="lessequal" unicode="&#x2264;" d="M851 280 q-5 -21 -16.5 -48 q-11.5 -27 -17.5 -46 l-731 0 l-28 29 q5 21 16 47 q11 26 20 46 l730 0 l27 -28 ZM851 443 q-22 -20 -41 -37.5 q-19 -17.5 -50 -36.5 l-674 248 q-14 15 -20.5 23.5 q-6.5 8.5 -6.5 10.5 q5 24 13.5 51 q8.5 27 19.5 51 l732 271 l27 -28 q-3 -11 -7 -25.5 q-4 -14.5 -8.5 -30 q-4.5 -15.5 -8.5 -30 q-4 -14.5 -7 -23.5 l-546 -201 l558 -204 l19 -39 Z" /><glyph glyph-name="greaterequal" unicode="&#x2265;" d="M150 1024 l675 -249 l26 -29 q-5 -25 -13.5 -54 q-8.5 -29 -19.5 -54 l-732 -269 l-28 27 l7 25 q5 15 9.5 30.5 q4.5 15.5 9 29.5 q4.5 14 7.5 23 l543 201 l-556 204 l-20 41 l92 74 ZM851 280 q-5 -21 -16.5 -48 q-11.5 -27 -17.5 -46 l-731 0 l-28 29 q5 21 16 47 q11 26 20 46 l730 0 l27 -28 Z" /><glyph glyph-name="lozenge" unicode="&#x25ca;" d="M145 675 l1 0 l232 -451 l177 387 l-1 1 l-231 451 l-178 -388 ZM1 627 l273 577 q10 9 26 20 q16 11 34 22 q18 11 34.5 20 q16.5 9 27.5 14 l303 -620 l-273 -576 q-10 -9 -26.5 -20 q-16.5 -11 -34 -21.5 q-17.5 -10.5 -34 -19.5 q-16.5 -9 -27.5 -14 l-303 618 Z" /><glyph glyph-name="uni25CC" unicode="&#x25cc;" d="M486 868 q0 20 13.5 34 q13.5 14 33.5 14 q20 0 34 -14 q14 -14 14 -34 q0 -20 -14 -33.5 q-14 -13.5 -34 -13.5 q-20 0 -33.5 13.5 q-13.5 13.5 -13.5 33.5 ZM486 47 q0 20 13.5 34 q13.5 14 33.5 14 q20 0 34 -14 q14 -14 14 -34 q0 -20 -14 -33.5 q-14 -13.5 -34 -13.5 q-20 0 -33.5 13.5 q-13.5 13.5 -13.5 33.5 ZM646 855 q6 14 18 22 q12 8 26 8 q20 0 34 -15 q14 -15 14 -34 q0 -20 -15 -33.5 q-15 -13.5 -33 -13.5 q-20 0 -33.5 15.5 q-13.5 15.5 -13.5 33.5 q0 8 3 17 ZM332 96 q6 14 19.5 22 q13.5 8 25.5 8 q20 0 33.5 -15 q13.5 -15 13.5 -33 q0 -20 -15 -33.5 q-15 -13.5 -33 -13.5 q-20 0 -34 15 q-14 15 -14 32 q0 5 1 9 q1 4 3 9 ZM789 782 q16 14 34 14 q20 0 33.5 -14 q13.5 -14 13.5 -34 q0 -20 -13.5 -34 q-13.5 -14 -33.5 -14 q-20 0 -33.5 15 q-13.5 15 -13.5 33 q0 19 13 34 ZM209 200 q15 15 32 15 q21 0 35 -13.5 q14 -13.5 14 -33.5 q0 -19 -13.5 -33.5 q-13.5 -14.5 -33.5 -14.5 q-19 0 -33.5 14.5 q-14.5 14.5 -14.5 33.5 q0 18 14 32 ZM894 659 q5 2 9 3 q4 1 9 1 q18 0 33 -14 q15 -14 15 -34 q0 -18 -14 -33 q-14 -15 -35 -15 q-18 0 -32 13.5 q-14 13.5 -14 33.5 q0 14 7.5 26.5 q7.5 12.5 21.5 18.5 ZM135 344 q8 4 19 4 q20 0 34 -13 q14 -13 14 -33 q0 -19 -14 -34 q-14 -15 -34 -15 q-19 0 -33.5 14.5 q-14.5 14.5 -14.5 34.5 q0 14 7.5 25.5 q7.5 11.5 21.5 16.5 ZM943 506 q20 0 34 -14 q14 -14 14 -34 q0 -19 -13.5 -33 q-13.5 -14 -33.5 -14 l-4 0 q-18 0 -31.5 14 q-13.5 14 -13.5 32 q0 20 15 33.5 q15 13.5 33 15.5 ZM122 505 q19 0 34 -13.5 q15 -13.5 15 -32.5 q0 -20 -15 -34.5 q-15 -14.5 -33 -14.5 l-2 0 q-20 0 -33 14.5 q-13 14.5 -13 33.5 q0 20 13.5 33.5 q13.5 13.5 33.5 13.5 ZM930 345 q14 -6 22 -18 q8 -12 8 -26 q0 -20 -14.5 -33.5 q-14.5 -13.5 -33.5 -13.5 q-23 0 -35.5 14.5 q-12.5 14.5 -12.5 32.5 q0 23 15.5 35 q15.5 12 33.5 12 q9 0 17 -3 ZM171 659 q14 -6 22.5 -19 q8.5 -13 8.5 -27 q0 -20 -15.5 -33 q-15.5 -13 -33.5 -13 q-21 0 -34 15 q-13 15 -13 33 q0 20 14.5 34 q14.5 14 32.5 14 q5 0 9 -1 q4 -1 9 -3 ZM857 202 q14 -14 14 -34 q0 -19 -13.5 -33 q-13.5 -14 -34.5 -14 q-20 0 -34 14 q-14 14 -14 33 q0 20 13 33.5 q13 13.5 33 13.5 q20 0 36 -13 ZM275 782 q15 -13 15 -33 q0 -22 -13 -35 q-13 -13 -34 -13 q-20 0 -34 13.5 q-14 13.5 -14 32.5 q0 20 14 34.5 q14 14.5 33 14.5 q19 0 33 -14 ZM734 97 q2 -5 3 -9 q1 -4 1 -9 q0 -18 -14 -33 q-14 -15 -34 -15 q-18 0 -33 14 q-15 14 -15 35 q0 17 13 32 q13 15 32 15 q14 0 27 -8 q13 -8 20 -22 ZM419 856 q4 -8 4 -19 q0 -19 -12.5 -33.5 q-12.5 -14.5 -32.5 -14.5 q-20 0 -35 13.5 q-15 13.5 -15 34.5 q0 18 14.5 33 q14.5 15 34.5 15 q14 0 25 -7.5 q11 -7.5 17 -21.5 Z" /><glyph glyph-name="uni2C60" unicode="&#x2c60;&#xf20f;" d="M969 264 q-4 -43 -9.5 -84 q-5.5 -41 -11 -76.5 q-5.5 -35.5 -11 -62 q-5.5 -26.5 -9.5 -41.5 l-880 0 l0 53 q68 14 105 30.5 q37 16.5 37 30.5 l0 323 l-128 0 l-22 25 q5 15 12.5 37 q7.5 22 13.5 38 l124 0 l0 113 l-128 0 l-22 24 l12 37 q8 23 14 39 l124 0 l0 395 q0 12 -35 30 q-35 18 -107 32 l0 53 l475 0 l0 -53 q-68 -14 -105.5 -31 q-37.5 -17 -37.5 -31 l0 -395 l259 0 l25 -23 l-29 -77 l-255 0 l0 -113 l259 0 l25 -23 l-29 -77 l-255 0 l0 -263 q0 -18 8.5 -31.5 q8.5 -13.5 29.5 -23 q21 -9.5 57 -14.5 q36 -5 91 -5 l133 0 q46 0 77.5 7 q31.5 7 55.5 27 q24 20 43.5 56 q19.5 36 40.5 95 l53 -21 Z" /><glyph glyph-name="uni2C61" unicode="&#x2c61;&#xf20e;" d="M582 620 l-155 0 l0 -506 q0 -15 32.5 -31 q32.5 -16 114.5 -30 l0 -53 l-475 0 l0 53 q43 7 71.5 14.5 q28.5 7.5 45.5 15 q17 7.5 24 15.5 q7 8 7 16 l0 506 l-162 0 l-22 22 q5 16 13 40.5 q8 24.5 16 40.5 l155 0 l0 117 l-162 0 l-22 22 q5 16 13 40.5 q8 24.5 16 40.5 l155 0 l0 343 q0 45 -6 70 q-6 25 -21 37.5 q-15 12.5 -42 17 q-27 4.5 -69 9.5 l0 50 q41 7 77 14.5 q36 7.5 70 16.5 q34 9 66.5 21 q32.5 12 65.5 28 l39 -36 l0 -571 l162 0 l22 -25 l-29 -78 l-155 0 l0 -117 l162 0 l22 -25 l-29 -78 Z" /><glyph glyph-name="uni2C62" unicode="&#x2c62;&#xf242;" d="M969 264 q-4 -43 -9.5 -84 q-5.5 -41 -11 -76.5 q-5.5 -35.5 -11 -62 q-5.5 -26.5 -9.5 -41.5 l-880 0 l0 53 q68 14 105 30.5 q37 16.5 37 30.5 l0 488 q-14 6 -27.5 9.5 q-13.5 3.5 -27.5 3.5 q-42 0 -74 -31.5 q-32 -31.5 -69 -87.5 l-61 23 q18 41 42.5 82.5 q24.5 41.5 55.5 74.5 q31 33 68 54 q37 21 78 21 q4 0 7.5 -0.5 q3.5 -0.5 7.5 -0.5 l0 395 q0 12 -35 30 q-35 18 -107 32 l0 53 l475 0 l0 -53 q-68 -14 -105.5 -31 q-37.5 -17 -37.5 -31 l0 -485 q16 -9 31.5 -14.5 q15.5 -5.5 30.5 -5.5 q40 0 75.5 31 q35.5 31 69.5 90 l61 -26 q-18 -41 -42.5 -82 q-24.5 -41 -56 -74 q-31.5 -33 -68 -53.5 q-36.5 -20.5 -78.5 -20.5 q-6 0 -12 0.5 q-6 0.5 -11 1.5 l0 -333 q0 -18 8.5 -31.5 q8.5 -13.5 29.5 -23 q21 -9.5 57 -14.5 q36 -5 91 -5 l133 0 q46 0 77.5 7 q31.5 7 55.5 27 q24 20 43.5 56 q19.5 36 40.5 95 l53 -21 Z" /><glyph glyph-name="uniA789" unicode="&#xa789;&#xf1e9;" d="M363 725 q0 -36 -12 -66.5 q-12 -30.5 -32.5 -52.5 q-20.5 -22 -48.5 -34 q-28 -12 -60 -12 q-55 0 -85 29.5 q-30 29.5 -30 89.5 q0 36 12.5 66.5 q12.5 30.5 33.5 53 q21 22.5 49 35 q28 12.5 59 12.5 q52 0 83 -30.5 q31 -30.5 31 -90.5 ZM363 241 q0 -36 -12 -66.5 q-12 -30.5 -32.5 -52.5 q-20.5 -22 -48.5 -34.5 q-28 -12.5 -60 -12.5 q-55 0 -85 30 q-30 30 -30 90 q0 36 12.5 66 q12.5 30 33.5 52.5 q21 22.5 49 35 q28 12.5 59 12.5 q52 0 83 -30 q31 -30 31 -90 Z" /><glyph glyph-name="uniA78A" unicode="&#xa78a;&#xf1ea;" d="M635 364 q-3 -11 -7 -24 q-4 -13 -8.5 -26 q-4.5 -13 -9 -25.5 q-4.5 -12.5 -7.5 -21.5 l-520 0 l-28 29 q5 20 15 47.5 q10 27.5 19 47.5 l518 0 l28 -27 ZM635 628 q-3 -10 -7 -22.5 q-4 -12.5 -8.5 -26 q-4.5 -13.5 -9 -25.5 q-4.5 -12 -7.5 -21 l-520 0 l-28 27 q3 10 7 23 q4 13 8.5 26 q4.5 13 9 25.5 q4.5 12.5 9.5 21.5 l518 0 l28 -28 Z" /><glyph glyph-name="uniA78B" unicode="&#xa78b;&#xf26a;" d="M315 702 q-8 -4 -21 -8 q-13 -4 -28 -7 q-15 -3 -30 -4.5 q-15 -1.5 -27 -1.5 l-76 831 q11 6 39 17 q28 11 59.5 21.5 q31.5 10.5 59 19 q27.5 8.5 38.5 10.5 l53 -27 l-67 -851 Z" /><glyph glyph-name="uniA78C" unicode="&#xa78c;&#xf21d;" d="M320 654 q-8 -4 -21 -8 q-13 -4 -28 -7 q-15 -3 -30 -4.5 q-15 -1.5 -27 -1.5 l-71 779 q11 6 37.5 17 q26.5 11 56 21.5 q29.5 10.5 55.5 19 q26 8.5 37 10.5 l53 -27 l-62 -799 Z" /><glyph glyph-name="uniF130" unicode="&#xf130;" d="M340 0 l0 -295 l-39 0 l0 256 l-256 0 l0 39 l295 0 Z" /><glyph glyph-name="uniF131" unicode="&#xf131;" d="M295 0 l0 -39 l-256 0 l0 -256 l-39 0 l0 295 l295 0 Z" /><glyph glyph-name="fi" unicode="&#xfb01;" d="M724 0 l0 53 q68 14 102.5 30.5 q34.5 16.5 34.5 30.5 l0 549 q0 51 -1.5 82.5 q-1.5 31.5 -14 49 q-12.5 17.5 -40.5 25.5 q-28 8 -81 13 l0 50 q71 12 143.5 32 q72.5 20 129.5 45 l44 0 l0 -846 q0 -12 32.5 -29.5 q32.5 -17.5 105.5 -31.5 l0 -53 l-455 0 ZM1074 1261 q0 -30 -10.5 -56 q-10.5 -26 -28.5 -45 q-18 -19 -42.5 -30 q-24.5 -11 -52.5 -11 q-48 0 -74.5 25.5 q-26.5 25.5 -26.5 75.5 q0 30 10.5 56 q10.5 26 28.5 45 q18 19 42 29.5 q24 10.5 51 10.5 q47 0 75 -24.5 q28 -24.5 28 -75.5 ZM842 1454 q0 -11 -16.5 -30 q-16.5 -19 -39 -39 q-22.5 -20 -46 -37.5 q-23.5 -17.5 -38.5 -24.5 q-48 48 -94.5 70 q-46.5 22 -75.5 22 q-26 0 -53.5 -17 q-27.5 -17 -50.5 -61.5 q-23 -44.5 -38 -122 q-15 -77.5 -15 -198.5 l0 -86 l255 0 l32 -31 q-9 -15 -22.5 -32 q-13.5 -17 -27 -32 q-13.5 -15 -26.5 -27 q-13 -12 -22 -18 q-23 12 -66 23.5 q-43 11.5 -123 11.5 l0 -713 q0 -6 10.5 -12 q10.5 -6 34.5 -12.5 q24 -6.5 63.5 -15 q39.5 -8.5 98.5 -19.5 l0 -53 l-524 0 l0 53 q69 12 103 29.5 q34 17.5 34 29.5 l0 713 l-129 0 l-23 31 l78 74 l74 0 l0 31 q0 106 14.5 182 q14.5 76 40 131 q25.5 55 60 95 q34.5 40 74.5 74 q30 26 65 46 q35 20 68.5 33.5 q33.5 13.5 64.5 20.5 q31 7 54 7 q36 0 72.5 -12 q36.5 -12 66 -27.5 q29.5 -15.5 48.5 -31.5 q19 -16 19 -25 Z" /><glyph glyph-name="fl" unicode="&#xfb02;" d="M714 0 l0 53 q43 7 71.5 14.5 q28.5 7.5 45 15 q16.5 7.5 23.5 15.5 q7 8 7 16 l0 1172 q0 30 -2.5 50.5 q-2.5 20.5 -8.5 34.5 q-6 14 -16 22 q-10 8 -25 13 q-12 -12 -27 -25 q-15 -13 -29.5 -24.5 q-14.5 -11.5 -28 -20.5 q-13.5 -9 -22.5 -13 q-48 48 -94.5 70 q-46.5 22 -75.5 22 q-26 0 -53.5 -17 q-27.5 -17 -50.5 -61.5 q-23 -44.5 -38 -122 q-15 -77.5 -15 -198.5 l0 -86 l255 0 l32 -31 q-9 -15 -22.5 -32 q-13.5 -17 -27 -32 q-13.5 -15 -26.5 -27 q-13 -12 -22 -18 q-23 12 -66 23.5 q-43 11.5 -123 11.5 l0 -713 q0 -6 10.5 -12 q10.5 -6 34.5 -12.5 q24 -6.5 63.5 -15 q39.5 -8.5 98.5 -19.5 l0 -53 l-524 0 l0 53 q69 12 103 29.5 q34 17.5 34 29.5 l0 713 l-129 0 l-23 31 l78 74 l74 0 l0 31 q0 106 14.5 182 q14.5 76 40 131 q25.5 55 60 95 q34.5 40 74.5 74 q30 26 65 46 q35 20 68.5 33.5 q33.5 13.5 64.5 20.5 q31 7 54 7 q24 0 49 -6 q25 -6 48.5 -15 q23.5 -9 43.5 -20 q20 -11 35 -22 q51 11 97 25.5 q46 14.5 94 37.5 l38 -36 l0 -1400 q0 -15 33 -31 q33 -16 115 -30 l0 -53 l-475 0 Z" /></font>
</defs>
</svg>
